<svg xmlns="http://www.w3.org/2000/svg" width="26" height="24" fill="none" viewBox="0 0 26 24">
  <g clip-path="url(#a)">
    <path fill="#fff" stroke="#fff" stroke-linecap="round" stroke-linejoin="round" stroke-width="2.5" d="M9.5 22a1 1 0 1 0 0-2 1 1 0 0 0 0 2Zm9 0a1 1 0 1 0 0-2 1 1 0 0 0 0 2Z"/>
    <path stroke="#fff" stroke-linecap="round" stroke-linejoin="round" stroke-width="2.5" d="M.5 1h4l2.68 13.39a2 2 0 0 0 2 1.61h9.72a2 2 0 0 0 2-1.61L22.5 6h-17"/>
  </g>
  <defs>
    <clipPath id="a">
      <path fill="#fff" d="M0 0h26v24H0z"/>
    </clipPath>
  </defs>
</svg>
