<svg xmlns="http://www.w3.org/2000/svg" width="1440" height="39" fill="none" viewBox="0 0 1440 39" preserveAspectRatio="none">
 <g clip-path="url(#a)">
  <path fill="#3858E9" d="M597.4 7.5c-.2-.1-.5-.3-.7-.4-1.3.2-2.9.2-3.9.9 1.2.3 2.2.6 3.4.9.3-.4.7-.9 1.2-1.4Zm12.1-2.4h4l.1-.5c-1.6-.7-3-.5-4.1.5Zm3.8 3.8c.2-.1.4-.3.6-.4-.8-.3-1.6-.6-2.4-.8-.2.1-.4.3-.6.5l2.4.7Zm-10.7-1.1c-.1.2.1.4.2.6.7-.1 1.3-.2 2.2-.3 0 .3-.2.7 0 .9.3.2.9.4 1.5.5.3 0 1-.2 1.1-.4.4-.8-.2-1.5-1.8-1.8-1.2-.3-2.6-.4-3.2.5Zm-27.2 20.6c-.3 0-.7.2-.7.3 0 .2.3.5.6.6.4-.1.8-.2 1.3-.5-.4-.2-.7-.3-1-.4h-.2Zm13.3-20.5c-.9 0-2-.7-2.8-1.2-.8-.4-1.5-.9-2.5-1.5-.7.9-1.2 1.5-1.7 2.1l3.5.1c-.5.6-.9 1.1-1.4 1.6.7.3 1.3.6 1.8.9 1.8-.2 3.4-.4 5.5-.6-.3-.6.6-1.5-2.4-1.4Zm-43 5.9c-.5-1.3-2.5-.5-3.5-.4-1.7.2-2.8.2-3.5-.8-1.4.4-2.7.8-4.1 1.2.8 0 1.7.1 2.6.1l7.2.2c.5-.1.9-.2 1.3-.3Zm2.4.4s0-.1 0 0c-.4-.9-1.4-.5-2.2-.3 0 .1.1.2.1.3h2.1Zm-37.9-2c-.4.2-.8.3-1.1.5 1.8.1 3.6.2 5.5.3-1.5-.4-2.3-1.5-4.4-.8ZM139 18c-2.4.5-2.1.8 0 1.4V18Zm-8.3 1c1.1.5 1.9.8 3.3 1.4-.2-1-.3-1.5-.5-2.3-1.1.4-1.8.6-2.8.9Zm438.6-4.4h3.7c.8-.1 1.6-.3 2.4-.3 2.2-.1 4.8-.7 6.7-.3 4.6.8 9.4-.5 13.8.5.2 0 .6 0 .8-.1 2.2-1 5-.9 8.4-.8-2.4-.9-4.1-1.5-6.2-2.3-.5.4-1.4.9-2.2 1.5-1.3 0-2.5-.1-3.7-.1-2.3 0-4.4.1-6.7-.3-2-.3-4.4.4-6.6.6h-1.2c-3.8-.7-6.4.3-9.4 1.5.1.1.1.1.2.1Zm-3.7 0c.6-.3 1.2-.7 1.8-1-1-.2-1.9-.3-2.5-.5-2.4-1.1-4.7-1-7.3-.1-2.3.8-4.9 1.3-8 .3.1.4.3.8.5 1 2.8.1 5.6.2 8.4.2h1.2c2.1 0 4 0 5.9.1Zm24.5-8.2 2.8.1c-.6-1.2-1.6-.9-2.8-.1Zm-9.8-1.2c-.7.6-1.3 1.2-1.9 1.8.4.1.7.2 1.1.3.9-.4 2-.8.8-2.1Zm-1.8 4.4c1.3-.2 1.7-.5 1.1-1-2.4.2-4.5.3-6.6.5 3 1.5 2.4.9 5.5.5Zm36.4 3.2c.1.1.6.3.9.3 1.5-.1 1.4-.6.8-1.3-1 .2-2.1.3-1.7 1Zm477.8 14-.4-.4c-.3 0-.6.1-1 .2.1.2.3.4.4.4.3-.1.6-.2 1-.2Zm39 1.7c1.6-.4 2.7-.6 3.8-.8-1.8-.3-3.1 0-3.8.8ZM651.1 12.2c.2.1.3.3.5.4l.8-.2c-.2-.1-.4-.3-.7-.3-.1-.1-.4.1-.6.1ZM1110 26.6c0 .2-.1.4 0 .6 1.1.6 2 .4 3.5-.6-1.7.1-2.6 0-3.5 0ZM19.9 37.4c-.9.3-2.2.5-1.1 1.6h.2c.7-.5 1.2-.9 1.7-1.3-.2-.1-.4-.2-.8-.3ZM1183.2 27c-.7.2-1.4.3-2.1.5.1.1.2.2.2.3.8-.1 1.5-.2 2.2-.4-.1-.2-.2-.3-.3-.4Zm-25.5.1c-.8-.2-1.1-.3-1.4-.3-.2 0-.6.1-.6.1 0 .1.1.3.2.5.3-.1.6-.1 1.8-.3Zm-21.7 3.8c.3-.2.8-.3.8-.4 0-.1-.4-.3-.7-.4-.2 0-.7.2-.7.3 0 .1.3.3.6.5ZM128.7 19c-.6-.2-1.1-.6-1.8-.6-1.4-.1-2.8 0-4.2.1-.4 0-.8.2-1.2.3 0 .1.1.2.1.4 1.8.2 3.6.4 5.4.4.6 0 1.2-.4 1.7-.6Zm500.5-6.3c-.1-.1-.1-.3-.2-.3h-.6l.3.4c.2 0 .4 0 .5-.1Zm-1.7-6.2c.1.2.2.3.3.5.3-.1.5-.1.8-.2-.2-.1-.3-.3-.6-.4-.1-.1-.6.1-.5.1Zm-7.9.6c-1.4.1-2.8.2-4.4.3.7 1.4 3.1 1 4.7 1.2 1 .2 2.3 0 2.1-.8-.2-.6-1.2-.8-2.4-.7Zm18.9 5.7c.8 0 1.6 0 2.4-.1 0-.2-.1-.3-.1-.5-.8 0-1.6.1-2.4.1 0 .2.1.3.1.5Zm-25.4-.3H609c1.7.6 3 .6 4.1 0Zm32.2-6.3c-.2-.1-.4-.2-.5-.2-.2 0-.5.1-.6.2 0 .1.2.2.4.3.3-.1.5-.2.7-.3Zm-23.7 7.2c1.4-.4 2.6-.8 4.6-1.5-4.7-.3-5.6 0-4.6 1.5ZM47.8 11.6c1.3-.2 1.7-.5 1.1-1-2.3.2-4.4.3-6.5.5 2.9 1.5 2.3.9 5.4.5Zm72.5 2.4c-.1 0-.4.1-.7.1.2.1.3.3.5.4l.8-.2c-.2-.1-.3-.2-.6-.3ZM82.5 26.8c.1.1.1.2.3.3.1 0 .4-.1.6-.1l-.4-.4c-.2 0-.4.1-.5.2ZM44.7 16.2c2.2-.1 4.8-.6 6.7-.3 4.5.8 9.3-.5 13.7.5.2 0 .6 0 .7-.1 2.2-.9 5-.9 8.3-.8-2.4-.8-4.1-1.5-6.1-2.2-.5.4-1.4.9-2.2 1.5-1.2 0-2.4-.1-3.6-.1-2.2 0-4.4.1-6.7-.3-2-.3-4.3.4-6.6.6-.4.1-.8.1-1.2 0-3.7-.7-6.3.3-9.3 1.5 2.6.6 4.4-.2 6.3-.3Zm4.9-9c-.6.6-1.3 1.2-1.9 1.8.3.1.7.2 1.1.2.9-.4 1.9-.7.8-2ZM78 26.1c0 .1.1.3.3 1 .6-.5.8-.7.8-.9 0-.1-.3-.2-.6-.4-.2.1-.5.2-.5.3Zm-18.9 1.4h-1.4c0 .1.1.2.1.3.2 0 .6.1.7 0 .3 0 .5-.2.6-.3ZM55 30.6c1.2.5 1.6.7 1.8.7.4-.1.7-.3 1.1-.4-.3-.2-.6-.4-.9-.5-.6 0-1.1.1-2 .2Zm22 1.2c.2-.2.7-.3.6-.4-.1-.1-.5-.3-.8-.3-.2 0-.5.2-.7.3.2.1.5.2.9.4ZM5.3 30.3c-1.6.3-2 .9-1.5 1.8.8-.2 1.6-.5 1.8-.4 1.8.6 3.2.1 4.6-.4-1.6-1.1-3.2-1.4-4.9-1Zm53.9-22 2.8.1c-.5-1.1-1.6-.8-2.8-.1ZM9.5 28l3.4.1c-.8-.8-1.9-.9-3.4-.1Zm39.5-.3c-.3 0-.7.1-1 .1.3.2.5.4.9.5.1 0 .5-.2 1-.3-.4-.1-.7-.3-.9-.3Zm-30.3-.2c-.4-.1-.7-.2-1.1-.3-.4.3-.9.7-1.3 1l.8.3c.5-.3 1-.7 1.6-1Zm1.3 2.8c-1.3.4-2.2.6-3.1.9-3.6-1.1-3.7-1.1-6.6 0 .1.8.9 1.4 2.4 1.2 2.5-.3 4.9-.9 7.3-1.4.2 0 0-.3 0-.7ZM78.5 7.1h4l.1-.5c-1.7-.7-3-.5-4.1.5Zm3.5 7.4h-4.1c1.7.6 3.1.6 4.1 0Zm8.5.8c1.4-.4 2.6-.8 4.6-1.5-4.7-.3-5.6.1-4.6 1.5Zm-10.7-5.2c.8.3 1.6.5 2.4.8l.6-.4c-.8-.3-1.6-.6-2.4-.8-.2.1-.4.2-.6.4Zm7 20.9c.2 0 .4-.1.6-.1-.2-.1-.4-.3-.6-.4-.3.1-.4.2-.6.3.2.1.3.2.6.2Zm-58-3.5c-1.5-.1-3-.3-4.4-.5 1.4 1.3 2.6 1.5 4.4.5Zm-6.3.5c-.1-.2-.1-.5-.2-.5h-2c0 .2.1.4.1.5h2.1ZM39 23.6c-1.1.4-1.8.6-2.4.9 1.9.5 2.7.2 2.4-.9Zm64.5-5.9c.1.9.2 1.4.2 1.8.6 0 1.5 0 1.8-.1.9-.6.2-1-2-1.7Zm10.4-9.5c-.2 0-.4-.2-.5-.2-.2 0-.5.1-.6.2 0 .1.2.2.4.3.3-.1.5-.2.7-.3ZM40.8 26.1c-1.2.7-2.1 1.2-3.2 1.9 1.5.2 2.3.3 3.9.6-.3-1-.4-1.6-.7-2.5Zm73.3-7.4c2.7 1.1 3 1.1 5.2-.1-1.8.1-3.2.1-5.2.1Zm-5.5 1.1c1-.5 1.7-.8 2.5-1.2-3.2-.5-3.2-.5-2.5 1.2Zm-1.5-5.6c0 .2 0 .3.1.5.8 0 1.6 0 2.4-.1 0-.2-.1-.3-.1-.5-.8.1-1.7.1-2.4.1ZM50.7 26.6c-.1-.2-.2-.4-.4-.6-.5.3-.8.5-.8.5.2.1.5.2.8.3.1-.1.4-.2.4-.2Zm-6 4.4c.2 0 .8-.1 1.5-.3-.6-.3-.9-.5-1.3-.5-.2 0-.8.2-.8.3 0 .2.3.5.6.5Zm9.1-6.3c-.9-1-2.8-1.2-5.9-.5 2.1.9 4 .6 5.9.5Zm-6.6 7.2c.5.2 1.1.4 1.6.6.1-.1.3-.2.4-.3-.5-.2-1-.5-1.5-.6-.1.1-.3.2-.5.3ZM45 27.8c.1-.1-.4-.3-.7-.5-.4.2-.8.3-.8.4 0 .1.4.4.7.4.3.1.8-.1.8-.3Zm-11.4-3.6c-.8-.2-1.6-.5-2.8-.8.8 1 .7 1 1.9 1.2.2 0 .4-.2.9-.4Zm0 8.1c1-.8 4.2-.4 4.5-2.1-2.4.4-4.4.7-7.5 1.1 1.6.6 2.3.8 3 1Zm2.1-4.5c-.2-.1-.3-.2-.4-.2-.2 0-.4.1-.5.2 0 .1.3.1.4.2.2 0 .3-.1.5-.2ZM12 37.3c-3.7 0-7.5.4-11 0H0v1.2c1.7-.2 3.4-.2 5.2.3.4.1 1 .1 1.5 0 2.2-.2 4.4-.4 6.9-.6.2-.5-.3-.9-1.6-.9ZM24.1 8.9c.5-.9-.2-1.5-2.1-1.6-2 0-2.3.7-2.3 1.5 0 .4-.2.9-.5 1.7-1-.8-1.5-1.1-2-1.5-.8.1-1.5.3-2.2.4-.3-.2-.6-.4-.7-.5-.5-1.6-1.1-1.7-4.1-1.3-1.4.2-3 .9-4.2-.5-.4.5-.9 1-1.3 1.5-.4 0-.8 0-.9-.1-1-1-2.3-1.4-3.8-1.5v3.2c.5-.3 1.8-.2 3.2-.3-.6.9-1.2 1.7-1.8 2.6 1 .1 1.7.3 2.4.3 3.9-.4 7.8-.7 11.8-.2h.4c6-.1 12-.2 17.9-.5 2-.1 3.7-.3 5.6.4 1.5.5 2.3.2 2.9-1.3l-3-.2c0-1-.1-1.9-2.6-2.2-2.2-.3-2.6.5-3.8 1.5-1.2-1.1-2.2-2-3.2-2.9-2.7.2-3.1 1.1-3.5 2.1-.1.3-.8.8-1.2.8-1.4 0-1.3-.5-1.1-1 0-.2.1-.3.1-.4Z"/>
  <path fill="#3858E9" d="M21.2 22.3c2-.6 3.9-1.2 6.2-2 .5.8.8 1.4 1.2 2.1 1.6-.2 3.5-.1 4.2-.6 2.2-1.4 5.5-.7 8.2-1.2 1.7-.3 3.3.4 3.3 1.6 1.5-.4 2.8-2.1 4.4 0 1-.6 1.7-1 2.3-1.4 4.2 0 8.2.2 12.1-.1 6.2-.5 12.4-.2 18.6-.3.4 0 .9 0 1.2-.1 2.7-1 5-.4 6.9.2 3-.2 5.5-.4 8.1-.5 2-.1 2-.1 3.5-1.6-3.3 0-6.4-.1-9.5 0-2.2.1-4.4.4-6.7.5-1 .1-2.2 0-3.2-.1-1.9-.2-3.8-.4-4.8.4-3.8-.6-7.1-1.1-10.7-.3-1.5.3-3 .4-4.7 0-.7-.2-1.8-.4-2.2-.2-2.6 1-5.1.1-7.6.1H40.5c-1.6 0-3.3-.1-4.9-.1H22.9c-.8 0-1.5.1-2.3.1-.8.1-1.8.3-2.3.1-2.1-.7-4.2-.4-6.5-.3-3.8.1-7.8-.2-11.8-.3v9.9c1.8.1 3.9-.1 5.8.2.4-.5.8-1.1 1.2-1.6.9-.5 3.5.2 3.6-1.1-1.5 0-2.9 0-4.4.1-1.3.1-2.7.3-4.4.5-.8-1.5-2.7-2.9-.3-4.3 2.1-.1 4.1-.3 6.3-.4.1.9.2 1.8.2 2.7 1.9.1 2-.4 1.8-1.2-.1-.8-.9-1.7.9-2.6.3.5.2.8.6 1 .7.3 1.7.4 2.5.7 1-1.2 3.4-.4 5-.8 1.6-.3 2.2.3 2.4.9ZM.5 14.4c-.2 0-.3-.1-.5-.1v2.4c.8-.1 1.8-.6 2.1-.9.6-.6-.5-1.1-1.6-1.4Zm8.3-8c3.4.2 7-.2 10.7-.3 0-.4-.1-.8-.1-1.3.2 0 .4-.1.6-.1.6.5 1.2 1 2 1.6.9-.3 1.8-.4 2.4-.8 2-1.2 3.3-1.3 4.8-.2.9.6 1.8.7 3 .7 1.4 0 2.9 0 4.3-.1.5 0 1.1-.3 1.5-.5 1-.8 2.5-.9 4.2-.8.2.7.4 1.4.7 2.3-1.3.1-2.6.2-4 .3 2.4 1.3 3.9 1 6-1.5 1.9.2 4.1.4 6.3.3 2.1-.1 4.4.6 6.5-.5-2.6-.9-5.5 0-8.9-.6 1.5-.2 2.1-.2 2.8-.3 9.4-.1 18.6-.4 27.9-.5 1.7 0 4.3-.6 5 .9 0 .1 2.2 0 2.3-.1.7-1.3 2.8-1 4.6-1.1 13.7-.5 27.4-1 41.1-1.4 10-.3 20.1-.5 30.2-.6 5.5-.1 11 .1 16.6.1 7.2 0 14.5 0 21.8.1 4.3 0 8.6.2 12.9.2 7.3-.1 14.6.9 21.9.4 9.8 1.1 19.9.2 29.7.9 4 .3 8 .6 11.9.8 1.8.1 3.8 0 5.6 0 .7 0 1.3-.1 2 0 4.2.4 8.3.9 12.9.4 4.1-.4 8.6-.1 12.9.1 4.1.1 8.2.4 12.4.5 3.3.1 6.7 0 10 0s6.7-.2 10-.1c1.1 0 2.3 0 3.4.1-.2-.1-.3-.3-.4-.5 2.7.3 5.2 0 7.1.6L380 6c8.8.3 17.6.9 26.4 1.2 5.9.2 11.8.3 17.7.6 11.2.5 22.5 1.1 33.7 1.8 11.6.6 23.3 1.3 34.9 2 4.8.3 9.7.6 14.5.9.4-.3.2-.7-.6-1.3-.3-.2-.7-.4-1.1-.5h-.2l.1-.1c1.1-.2 2.2-.7 3.4-.7 3.3 0 6.7.2 10.8.3-1.6 1.1-2.8 1.9-3.8 2.7 5.5.3 11.1.5 16.6.6.4-.6-.6-1-1.8-1.3-3.3-.9-6.5-.4-9.8.1-.6.1-1.3.2-1.9.4.4-1.8 1.8-2.5 4.8-2.5 1.7 0 3.4-.2 5.1-.4.5-.1 1.2-.6 1.1-.9-.6-1.4 1.2-1.2 3.4-1.2-.7.9-1.2 1.7-1.8 2.6 1 .1 1.8.3 2.4.3 4-.4 7.9-.7 11.9-.2h.4c6-.1 12.1-.2 18-.5 2-.1 3.7-.3 5.7.4 1.6.6 2.3.2 2.9-1.3H570c0-1.1-.2-1.9-2.6-2.2-2.3-.3-2.7.6-3.9 1.5-1.2-1.2-2.2-2-3.2-3-2.8.2-3.1 1.1-3.5 2.1-.1.3-.8.8-1.2.8-1.4 0-1.3-.5-1.1-1 .1-.1.1-.3.2-.4.5-.9-.2-1.5-2.1-1.5-2.1-.1-2.3.7-2.3 1.5 0 .4-.2.8-.5 1.7-1-.8-1.5-1.1-2-1.5l-2.2.4c-.3-.2-.6-.4-.7-.5-.5-1.6-1.2-1.8-4.2-1.3-1.4.2-3 1-4.2-.4-.4.5-.9 1-1.3 1.5-.5 0-.9 0-.9-.1-1.7-1.7-4.1-1.7-7.4-1.1-3.7.6-7.5.2-11.3 0-2.6-.1-1.8-1.3-2.4-2.2-2.1-.1-4.2-.3-6.3-.4v-.2c1.8 0 3.5-.1 5.2 0 1.3 0 2.8.1 2.9 1.1 0 .2.8.6 1.3.7 4.3.1 8.6.4 12.9-.8 2.9 1.3 6.8.8 10.3.9 3.5.2 7-.1 10.8-.3 0-.4-.1-.8-.1-1.3.2 0 .4 0 .6-.1.6.5 1.2 1 2 1.7.9-.3 1.8-.4 2.4-.8 2-1.2 3.3-1.3 4.9-.2.9.6 1.8.7 3.1.7 1.4 0 2.9 0 4.4-.1.5 0 1.2-.3 1.5-.5 1-.8 2.5-.9 4.2-.8.2.7.4 1.4.7 2.4-1.3.1-2.6.2-4 .3 2.4 1.3 4 1 6.1-1.5 2.1.1 4.3.3 6.6.2 2.1-.1 4.5.6 6.6-.5-2.7-.9-5.5 0-9-.6 1.5-.1 2.2-.2 2.8-.3 9.4-.2 18.7-.5 28.1-.6 1.7 0 4.3-.6 5 1 0 .1 2.2 0 2.3-.1.8-1.3 2.8-1 4.7-1.1 13.8-.5 27.7-1 41.5-1.4 5.3-.2 10.6-.3 15.9-.4H375.9c.2.1.3.2.5.4-.5.1-.9.1-1.2.1-.3 0-.3-.3-.5-.4.1 0 .2 0 .3-.1h-6.7c.1.1.3.2.3.2-.1.1-.5.3-.7.3-.2 0-.5-.2-.9-.4.2-.1.3-.1.5-.2H0v6c2.7.4 5.9.1 8.8.2Zm423.8.2c-.1-.1-.3-.2-.3-.3 0-.1.3-.1.5-.2.1.1.3.2.3.3.1.1-.2.2-.5.2Zm62.2-3.8v.3c-.8 0-1.6.1-2.4.1v-.3c.8 0 1.6-.1 2.4-.1Zm2.6 5.5c-2.4.5-3.9.2-6-.4 2.7-.7 4-.1 6 .4Zm-8.1-.6c.2.1.6.2.5.3 0 .1-.2.2-.4.3-.2 0-.4 0-.6-.1.1-.2.3-.4.5-.5Zm-17.7.1c.6.2 1.1.4 1.7.6-.1.1-.3.2-.4.3-.6-.2-1.1-.4-1.7-.6.1-.1.3-.2.4-.3Zm-4-.5c.1 0 .2.2.3.3-.2 0-.5.1-.7.1-.1-.1-.2-.2-.2-.3.2-.1.5-.1.6-.1ZM459.1 4c1.2.1 2.4.2 3.3.3l-.4 2.8c-.2 0-.5 0-.8.1-.5-.3-1-.6-1.6-1-.9.2-1.8.3-3 .6-.9-1.6 1.3-2.1 2.5-2.8Zm-10 1.1c.3-.2.6-.4.9-.7.7-.6 1.9-.7 2.6-.2.4.3.1 1-.4 1.3-.7.4-2 .6-3 .9-2-.9-3.8-1.6-5.6-2.4 2.3-.2 4.2.1 5.5 1.1Zm-18.9-1.9c3.5.1 7 .2 10.5.4.4 0 .7.3 1.3.6-2.8.3-5.1.5-8 .8-1-.4-2.5-.9-4-1.4 0-.2.1-.3.2-.4Zm-3.8 0c.1.1.3.2.5.2l-1.2.6c-.2-.1-.4-.2-.5-.2l1.2-.6Zm-4-.1c-.1.1-.2.3-.3.5-1-.2-2-.3-3.1-.5 1.2-.3 2.3-.3 3.4 0Zm-12-.9c.4-.1 1.8 0 2.1.2 1.1.8-.1 1.1-1.5 1.5-1.2-.6-2-1.1-.6-1.7Zm-13.2-.8c.7.1 1.6.5 2 .5 2.7-.5 4.8.3 7.4.5-3.6.9-11.1.5-16.5-.7 2.6-1.3 4.9-.5 7.1-.3ZM389 1c-2.1 1.5-2.4 1.5-4.7.1 1.7 0 3.1 0 4.7-.1Zm-6.6-.5c.1.2.1.3.1.5-1.1.1-2.2.2-3.2.3 0-.2-.1-.4-.2-.6 1.1-.1 2.1-.1 3.3-.2Zm-45.9 3.7c.1.1.3.2.4.3-.2 0-.4.2-.6.2-.2 0-.4-.1-.5-.3.2 0 .4-.1.7-.2ZM90.8 9.8c-.2-.6-1.1-.8-2.3-.8-1.3.1-2.7.2-4.4.3.7 1.4 3 1 4.6 1.2 1 .2 2.3.1 2.1-.7Z"/>
  <path fill="#3858E9" d="M3.5 23.9c.2.1.3.2.4.4l.9-.3-.3-.3c-.4 0-.7.1-1 .2Zm80.3-9.1c.1.1.6.3.9.3 1.5-.1 1.4-.6.8-1.2-1 0-2.1.1-1.7.9Zm492-7.8c-.1-.1-.3-.2-.4-.3l-1.8.6c.1.1.2.2.4.3.6-.3 1.2-.4 1.8-.6ZM98 14.6c-.1-.1-.1-.3-.2-.3h-.6l.3.4c.2 0 .3 0 .5-.1Zm-1.8-6.1c.1.2.2.3.3.5.3-.1.5-.1.8-.2-.2-.1-.3-.3-.6-.4 0-.1-.5.1-.5.1Zm-87.7 6c-1.8.5-3.3 1-5.2 1.6 4.7.7 8.2.6 12-.3-.5-1.2-2.4-.5-3.5-.4-1.6.1-2.7.1-3.3-.9Zm36.2-5.8c-.6.1-1.1.3-1.7.5.1.1.2.2.4.3.6-.2 1.1-.3 1.7-.5-.1-.1-.3-.2-.4-.3Zm-29.3 7c.2.4 0 1 1.4.8.4 0 .9-.4.8-.5-.3-.8-1.3-.4-2.2-.3Zm51.1-6.3c-.3-.1-.5-.2-.7-.4-1.3.2-2.8.2-3.9.9 1.2.3 2.1.6 3.3.9.4-.4.8-.9 1.3-1.4ZM768.6.6c9.9 1.1 20.1.2 30 .9l12 .9c1.9.1 3.8 0 5.7 0 .7 0 1.4-.1 2 0 4.3.4 8.4.9 13 .4 4.2-.4 8.7-.1 13 .1 4.2.1 8.3.4 12.5.5 3.4.1 6.8 0 10.2 0 3.4 0 6.8-.2 10.1-.1 12.3.2 24.7.5 37 .8 8.9.3 17.8.9 26.7 1.2 6 .3 12 .3 17.9.6 11.4.6 22.7 1.2 34 1.8 11.8.6 23.5 1.3 35.2 2 14.9 1 29.9 1.8 44.9 2.2 10.2.2 20.4.6 30.6.7 10.1.1 20.2 0 30.2 0h1.6c12 0 23.9.2 35.9.1 11.8-.1 23.6-.4 35.4-.7 3-.1 6-.2 9-.2 2.1-.1 4.3-.2 6.5-.3 1.7-.1 3.5-.3 5.2-.3 7.7-.2 15.5-.4 23.2-.5 9-.1 17.9 0 26.9-.1 20.8-.2 41.6.2 62.4.6 18.2.3 36.5.5 54.7.4 15.2-.1 30.2.6 45.3.9V0H736.5c3.3.1 6.6.2 9.9.2 7.4-.1 14.8.9 22.2.4ZM27.2 14.9c-2.3.8-4.9 1.3-7.9.3.2.5.4 1.1.9 1.2 1.3.2 3 .5 4.2.3 2.8-.5 5.4-.4 8.1.1.6.1 1.3.1 1.8.1.8-.5 1.5-.9 2.4-1.4-1-.2-1.9-.3-2.5-.5-2.2-1.2-4.5-1-7-.1ZM76.7 11c.4-.8-.2-1.4-1.8-1.8-1.3-.3-2.7-.4-3.3.5-.1.2.1.4.2.6.7-.1 1.5-.2 2.2-.3 0 .3-.2.7 0 .9.2.2.9.4 1.5.5.4 0 1.1-.3 1.2-.4ZM57.9 9.9c-.9.1-1.9-.7-2.8-1.1-.8-.4-1.5-.9-2.5-1.5-.7.9-1.2 1.5-1.7 2.1l3.5.1c-.5.6-.9 1.1-1.4 1.6.6.3 1.3.6 1.8.9 1.8-.2 3.4-.4 5.4-.6-.3-.7.6-1.6-2.3-1.5Z"/>
 </g>
 <defs>
  <clipPath id="a">
   <path fill="#fff" d="M0 0h1440v39H0z"/>
  </clipPath>
 </defs>
</svg>
