<?xml version="1.0" encoding="UTF-8"?>
<svg width="1357" height="57" fill="none" preserveAspectRatio="none" version="1.1" viewBox="0 0 1357 57" xmlns="http://www.w3.org/2000/svg">
 <g clip-path="url(#a)" fill="#e8e8e8">
  <path d="m277 35c-0.1-0.2-0.1-0.5-0.2-0.5-0.6 0-1.3 0-2 0.1 0 0.2 0.1 0.4 0.1 0.5 0.6 0 1.4 0 2.1-0.1zm10-3.4c0.1 0 0.3-0.2 0.9-0.4l-2.8-0.7c0.8 0.9 0.7 0.9 1.9 1.1zm-14 3.1c-0.4-0.1-0.7-0.2-1.1-0.3-0.4 0.3-0.9 0.7-1.3 1.1 0.3 0.1 0.5 0.2 0.8 0.2 0.5-0.4 1-0.7 1.6-1zm25 2.5c0.1 0.2 0.3 0.5 0.6 0.6 0.2 0 0.8-0.2 1.5-0.3-0.6-0.3-0.9-0.5-1.3-0.5-0.1-0.1-0.8 0.1-0.8 0.2zm52-22c-0.1 0-0.6 0.1-0.5 0.1 0.1 0.2 0.2 0.3 0.4 0.4 0.3-0.1 0.5-0.1 0.8-0.2-0.3 0-0.4-0.2-0.7-0.3zm-92 16c-0.3 0.1-0.6 0.2-1 0.3 0.1 0.1 0.3 0.2 0.4 0.3l0.9-0.3c0.1-0.1-0.2-0.3-0.3-0.3zm5.2 4.1 3.4 0.1c-1.3-1.2-1.3-1.2-3.4-0.1zm26-0.5c-0.2-0.1-0.3-0.2-0.4-0.2-0.2 0-0.4 0.1-0.5 0.2 0 0.1 0.3 0.1 0.4 0.2 0.2 0 0.4-0.1 0.5-0.2zm-44 3.1c-0.7 0.1-1.7 0-2.2-0.2-3.1-1-5.8-0.8-8.2 0.8-0.9-0.9-1.9-1.1-3.9-1-4 0.1-7.9-0.3-12-0.5-3.5-0.2-7.1-0.3-11-0.5 0 0.6 0 0.9 0.1 1.2h0.1l-0.1 0.1c-0.6 0.2-1.5 0.4-1.7 0.7-0.3 0.4-0.5 1 0 1.4 0.3 0.3 1.7 0.5 2.4 0.4 2.2-0.4 4.3-0.8 6.4-1.3 0.3-0.1 0.6-0.2 1.1-0.4l-0.2 1.8c1.8-0.1 3.4-0.2 5-0.3 1.7-0.1 3.5-0.2 5.2-0.2 3.7 0 7.4 0.1 11 0.2 0.5-0.6 0.8-0.9 1.2-1.5 1 0.7 1.8 1.2 2.6 1.6 1.4-0.2 2.7-0.6 3.7-0.4 1.1 0.1 2 0.7 2.8 1 1.9-0.7 4.9-0.6 6-1.8-0.8-0.6-1.6-1.1-2.4-1.7-2 0.2-3.9 0.5-5.9 0.6zm48-7.3c-1.1 0.4-1.7 0.6-2.4 0.9 2 0.5 2.7 0.2 2.4-0.9zm59-10h-0.6l0.3 0.4c0.2 0 0.4-0.1 0.5-0.2-0.1 0-0.1-0.1-0.2-0.2zm-59 17c-2.4 0.4-4.4 0.7-7.5 1.2 1.6 0.5 2.3 0.7 3 0.9 1-0.9 4.2-0.4 4.5-2.1zm1.6 13c0.2-0.1 0.4-0.2 0.7-0.3-0.7-0.3-1.4-0.7-2.3-1.1-1.2 1.3 0.3 1.3 1.6 1.4zm-2.2-15c1.5 0.2 2.3 0.3 3.9 0.5l-0.8-2.4c-1.1 0.7-2 1.2-3.1 1.9zm7.5-0.3c0.1-0.1-0.4-0.3-0.7-0.5-0.3 0.2-0.8 0.3-0.8 0.4s0.4 0.4 0.7 0.4c0.2 0 0.8-0.2 0.8-0.3zm-30 16c2.7 0.6 3.6 0.6 8.2-0.4-3-0.5-5.6 0.1-8.2 0.4zm-9.5-13c-1.5 0.4-2 1-1.4 1.8 0.8-0.2 1.6-0.5 1.8-0.4 1.9 0.6 3.2 0.1 4.6-0.5-1.8-1.1-3.3-1.4-5-0.9zm23-3.1c-1.2-0.1-2.4-0.2-4.4-0.4 1.5 1.2 2.7 1.4 4.4 0.4zm-8.7 2.9c-1.3 0.4-2.2 0.7-3.1 0.9-3.6-1-3.7-1-6.6 0.1 0.1 0.8 0.9 1.4 2.4 1.2 2.5-0.3 4.9-1 7.3-1.5 0.1 0 0-0.3 0-0.7zm6.8 12c-0.3 0.1-0.6 0.3-0.9 0.4 0.7 0.3 1.3 0.6 2 0.8l0.6-0.3zm-7.8-3.6c0.8-0.6 1.3-1 1.8-1.4-0.3-0.1-0.5-0.2-0.9-0.2-0.8 0.3-2.2 0.5-0.9 1.6zm-125-25c0.1 0.2 0.2 0.3 0.5 0.5 0.5-0.1 0.9-0.1 1-0.3 0.1-0.1-0.2-0.3-0.3-0.5zm122 1.7c0.2 0.4 0 0.9 1.4 0.8 0.4 0 0.9-0.4 0.8-0.5-0.4-0.9-1.4-0.5-2.2-0.3zm-3.6-0.3c-1.6 0.2-2.8 0.2-3.4-0.8-1.8 0.6-3.2 1-5.1 1.6 4.7 0.6 8.2 0.4 12-0.5-0.6-1.2-2.5-0.4-3.5-0.3zm41-4.8c0.6 0.3 1.3 0.6 1.8 0.8 1.8-0.2 3.4-0.4 5.4-0.6-0.3-0.7 0.6-1.5-2.4-1.4-0.9 0-1.9-0.7-2.8-1.1-0.8-0.4-1.5-0.9-2.5-1.5-0.7 0.9-1.2 1.4-1.7 2.1l3.5 0.1c-0.5 0.6-0.9 1-1.3 1.6zm-10-1.7c0.1 0.1 0.2 0.2 0.4 0.3 0.6-0.2 1.2-0.4 1.8-0.5-0.1-0.1-0.3-0.2-0.4-0.3-0.7 0.1-1.3 0.3-1.8 0.5zm16-1.1h2.7c-0.5-1-1.6-0.8-2.7 0zm31 6.5c1.3-0.4 2.6-0.9 4.6-1.5-4.7-0.3-5.6 0-4.6 1.5zm-199 0.9c0.3 0.2 0.8 0.4 1.3 0.7 0.4-0.2 0.8-0.5 0.8-0.5-0.3-0.2-0.8-0.4-1.2-0.6-0.3 0.1-0.9 0.3-0.9 0.4zm-9.6 0.2c-0.9-0.4-1.1-1.7-3.6-0.7 0.8 0.7 1.6 1.4 2.4 2.2 2-0.5 2.4-1 1.2-1.5zm198-6.2c0.8 0.2 1.6 0.5 2.4 0.7 0.2-0.1 0.4-0.3 0.6-0.4-0.8-0.3-1.6-0.5-2.4-0.8-0.2 0.2-0.4 0.4-0.6 0.5zm4 4.6c0.1 0.1 0.7 0.3 0.9 0.3 1.5-0.1 1.4-0.6 0.8-1.2-1 0-2.1 0.1-1.7 0.9zm6.9-5c-0.2-0.6-1.1-0.8-2.3-0.7-1.3 0.1-2.7 0.2-4.4 0.3 0.7 1.4 3 0.9 4.6 1.1 1.1 0.2 2.4 0.1 2.1-0.7zm-8.7 4.7c-1.4 0-2.4 0-4.1 0.1 2.6 0.8 2.6 0.8 4.1-0.1zm-7.1-5.1c-1.3-0.2-2.7-0.3-3.3 0.5-0.1 0.2 0.1 0.4 0.2 0.6 0.7-0.1 1.3-0.2 2.2-0.3 0 0.3-0.2 0.7 0.1 0.9s0.9 0.4 1.5 0.4c0.3 0 1-0.3 1.1-0.4 0.4-0.8-0.2-1.4-1.8-1.7zm-9.1 5.7c-1.3 0-2.5-0.1-3.6 0-2.2 0.1-4.3 0.1-6.7-0.2-2-0.2-4.3 0.4-6.6 0.7-0.4 0.1-0.8 0.1-1.2 0-3.7-0.7-6.3 0.4-9.3 1.6 2.6 0.6 4.4-0.2 6.2-0.4 2.2-0.2 4.7-0.7 6.6-0.4 4.6 0.7 9.3-0.6 14 0.3 0.2 0 0.6 0 0.7-0.1 2.2-1 4.9-1 8.3-0.9-2.4-0.8-4.1-1.4-6.1-2.1-0.3 0.3-1.2 0.9-2 1.5zm17-8.4c-2.4-0.9-2.4-0.9-4 0.5 1.5 0 2.8 0 4-0.1zm-55 9c-2.3 0.9-4.9 1.3-7.9 0.4 0.2 0.5 0.4 1.1 0.9 1.2 1.4 0.2 3 0.4 4.2 0.2 2.8-0.5 5.4-0.4 8.1 0 0.6 0.1 1.3 0 1.8 0.1 0.8-0.5 1.5-0.9 2.4-1.4-1-0.2-1.9-0.2-2.5-0.5-2.2-1.1-4.5-0.9-7 0zm22-7.9c-0.6 0.6-1.3 1.2-1.9 1.8 0.4 0.1 0.7 0.2 1.1 0.2 0.9-0.4 2-0.8 0.8-2zm16 3.3c0.3-0.4 0.8-0.8 1.2-1.3-0.2-0.1-0.5-0.3-0.7-0.4-1.3 0.2-2.8 0.3-3.9 0.9 1.3 0.3 2.2 0.5 3.4 0.8zm499-7.4c0.8 0.3 1.6 0.5 2.4 0.8 0.2-0.1 0.4-0.3 0.6-0.4-0.8-0.3-1.6-0.6-2.4-0.8-0.2 0.1-0.4 0.3-0.6 0.4zm-5.8 0c0 0.3-0.2 0.7 0.1 0.9s0.9 0.4 1.5 0.4c0.3 0 1-0.3 1.1-0.4 0.4-0.8-0.2-1.4-1.8-1.7-1.4-0.2-2.7-0.3-3.3 0.6-0.1 0.2 0.1 0.4 0.2 0.6 0.7-0.2 1.5-0.3 2.2-0.4zm8.5-3.5c-2.4-0.9-2.4-0.9-4.1 0.5 1.5 0 2.8 0 4-0.1zm-24 2.1h2.8c-0.6-1.1-1.6-0.8-2.8 0zm11 5.4-1.8-0.6c-0.2 0.2-0.5 0.4-0.9 0.6zm-4.6-3.1c0.3-0.4 0.8-0.9 1.2-1.4-0.2-0.1-0.5-0.3-0.7-0.4-1.3 0.3-2.9 0.3-3.9 0.9 1.2 0.4 2.2 0.6 3.4 0.9zm32-2.4c-0.2-0.1-0.3-0.3-0.6-0.4-0.1 0-0.6 0.1-0.5 0.1 0.1 0.2 0.2 0.3 0.4 0.4 0.3 0 0.5-0.1 0.7-0.1zm12 5.3v-0.2c-0.8 0-1.6 0.1-2.4 0.2v0.1c0.8-0.1 1.6-0.1 2.4-0.1zm-20 0.3h3.6c0.4-0.1 0.8-0.3 1.3-0.4-3.2-0.3-4.7-0.2-4.9 0.4zm-1.5-3.7c1 0.1 2.3 0 2.1-0.8-0.2-0.6-1.1-0.8-2.4-0.7-1.4 0.1-2.8 0.2-4.4 0.3 0.7 1.4 3 1 4.7 1.2zm-2.8 3.7c-0.1-0.1-0.2-0.3-0.3-0.5-0.8 0.1-1.5 0.2-1.8 0.5zm474 7.3c0.1 0.2 0.3 0.4 0.4 0.4 0.4 0 0.7-0.1 1-0.2-0.2-0.1-0.3-0.3-0.4-0.4-0.3 0.1-0.6 0.2-1 0.2zm19 0.4c1.1 0.5 2 0.4 3.5-0.6h-3.5zm26 2.5c-0.2 0-0.7 0.2-0.7 0.3s0.3 0.3 0.6 0.5c0.4-0.2 0.8-0.3 0.8-0.4 0-0.2-0.4-0.4-0.7-0.4zm-552-13c0.7 0.3 1.3 0.6 1.8 0.8 1.8-0.2 3.4-0.4 5.4-0.7-0.3-0.7 0.6-1.5-2.4-1.4-0.9 0-2-0.7-2.8-1.1s-1.5-0.9-2.5-1.5c-0.7 0.9-1.2 1.5-1.7 2.1l3.5 0.1c-0.5 0.7-0.9 1.1-1.3 1.7zm548 11c1.6-0.4 2.7-0.6 3.8-0.9-2.8-0.3-2.8-0.3-3.8 0.9zm-51 17c0.1 0.1 0.2 0.2 0.4 0.3 0.2-0.1 0.3-0.1 0.5-0.2-0.2-0.1-0.3-0.1-0.6-0.2-0.1 0-0.2 0-0.3 0.1zm-507-30c0.1 0.1 0.2 0.2 0.4 0.3 0.6-0.2 1.2-0.4 1.8-0.5-0.1-0.1-0.3-0.2-0.4-0.3-0.7 0.1-1.2 0.3-1.8 0.5zm6.6-2.1c-0.9 0.8-1.4 1.3-1.9 1.8 0.4 0.1 0.7 0.2 1.1 0.2 0.9-0.4 2-0.8 0.8-2zm-486 31c0.5 0.2 1.1 0.4 1.6 0.5 0.1-0.1 0.3-0.2 0.4-0.3l-1.5-0.6c-0.1 0.2-0.3 0.3-0.5 0.4zm83-14c1.1 0.5 1.9 0.8 3.4 1.4-0.2-1-0.3-1.5-0.5-2.3-1.3 0.4-2 0.6-2.9 0.9zm-73 9.7c0.2 0 0.6 0.1 0.7 0 0.3-0.1 0.4-0.2 0.6-0.3-0.4 0-0.9 0-1.4 0.1 0 0 0 0.1 0.1 0.2zm25-1.4c0.1 0.1 0.1 0.2 0.3 0.3 0.1 0 0.4-0.1 0.6-0.1l-0.4-0.4c-0.2 0.1-0.4 0.2-0.5 0.2zm-28 4.2c1.2 0.5 1.6 0.7 1.8 0.7 0.4-0.1 0.7-0.3 1.1-0.5-0.3-0.1-0.6-0.4-0.9-0.4-0.5 0-1.1 0.1-2 0.2zm48-13c0.1 0.8 0.2 1.3 0.3 1.8 0.6 0 1.5 0 1.8-0.1 0.9-0.7 0.1-1.1-2.1-1.7zm-17 13c0.2 0.1 0.3 0.2 0.6 0.2 0.2 0 0.4-0.1 0.6-0.1-0.2-0.1-0.4-0.3-0.6-0.4-0.3 0.2-0.5 0.3-0.6 0.3zm-38-5.9c2 0.9 3.9 0.5 5.9 0.4-1.3-1.5-1.3-1.5-5.9-0.4zm61-11c-0.8 0-1.6 0.1-2.4 0.2 0 0.2 0 0.3 0.1 0.5 0.8 0 1.6 0 2.4-0.1-0.1-0.3-0.1-0.4-0.1-0.6zm-31 12c-0.2 0.1-0.5 0.1-0.6 0.2 0 0.1 0.1 0.3 0.3 1 0.5-0.5 0.8-0.7 0.8-0.8 0.1-0.2-0.3-0.3-0.5-0.4zm-30 2.4c0.3 0.2 0.5 0.4 0.9 0.5 0.1 0 0.5-0.2 1-0.3-0.4-0.1-0.7-0.3-0.9-0.3-0.3-0.1-0.7 0-1 0.1zm1.5-1.4c0.2 0.1 0.5 0.2 0.8 0.3 0.1-0.1 0.4-0.2 0.4-0.2-0.1-0.2-0.2-0.4-0.4-0.6-0.5 0.3-0.8 0.5-0.8 0.5zm27 4.5c0.3 0.1 0.5 0.2 1 0.4 0.2-0.2 0.6-0.3 0.6-0.4-0.1-0.1-0.5-0.3-0.8-0.3s-0.5 0.2-0.8 0.3zm63-13v-1.4c-2.5 0.6-2.1 1 0 1.4zm-16-0.6c-0.4 0-0.8 0.2-1.2 0.4 0 0.1 0.1 0.2 0.1 0.4 1.8 0.1 3.6 0.3 5.4 0.4 0.5 0 1.1-0.4 1.6-0.6-0.6-0.2-1.1-0.5-1.8-0.6-1.3-0.2-2.7-0.1-4.1 0zm475-16c0.3-0.1 0.5-0.2 0.7-0.4-0.2 0-0.4-0.2-0.6-0.1-0.2 0-0.5 0.1-0.6 0.2 0.1 0.1 0.3 0.2 0.5 0.3zm7.8 5.6c-0.2-0.1-0.3-0.2-0.5-0.3-0.1 0-0.4 0.1-0.7 0.1 0.1 0 0.1 0.1 0.2 0.1 0.3 0.1 0.6 0.1 1 0.1zm-486 6.4c0.2 0.1 0.3 0.3 0.5 0.4 0.4-0.1 0.6-0.1 0.8-0.2-0.2-0.1-0.4-0.3-0.6-0.3-0.1-0.1-0.4 0-0.7 0.1zm-0.2 4.4c-1.7 0.1-3.2 0.1-5.2 0.2 2.7 1.1 3 1 5.2-0.2zm-11 1.3c1-0.5 1.7-0.8 2.5-1.2-3.2-0.5-3.2-0.5-2.5 1.2zm4.1-11c0 0.1 0.2 0.2 0.4 0.3 0.3-0.1 0.5-0.2 0.7-0.4-0.2 0-0.4-0.2-0.5-0.1-0.3-0.1-0.5 0.1-0.6 0.2zm-184 39c-1.5 0-3.1-0.2-4.6-0.3 0-0.3-0.1-0.6-0.2-0.7-2.3 0.3-4.9 1.1-6.8 0.8-3.6-0.5-7.7 0.1-11-1.6 0.4 1.4 1 2.1 3.5 2.2 3 0.1 6 0.4 9 0.4l17 0.3c0.6 0 1.6-0.2 1.9-0.4 0.2-0.2-0.2-0.7-0.5-0.9-0.5-0.4-1.2-0.7-1.8-1.1-0.6 0.3-1 0.5-1.5 0.8l0.2-0.1c-1.5 0.8-3.5 0.6-5.3 0.6zm26-15 0.1-0.1zm-68 15c-4.8-0.9-4.8-0.9-10-0.5h-0.4c-2.9-0.3-6.3 0.1-8.1-1.3-5.3 0.5-10 0.9-14-1-1.8 0.2-3.8 0.5-5.8 0.7-0.6-0.4-1.1-0.7-1.3-0.9-4.7 1-9.4-0.4-14 0.4 8.9 1.3 51 3.3 55 2.6z"/>
  <path d="m164 21c-4.1 0.1-8.2 0.8-12-0.4-0.5-0.1-1.5 0.1-2.3 0.2-3 0.4-5.9 0.9-8.5-0.6-0.7 1.1-0.5 1.7 1 2.3 1.4 0.5 2.4 1.3 3.8 2.1-2.8 0.1-4.8 0.2-6.9 0.2-1.3-1.5-1.3-1.5-0.3-4-1.3-0.1-2.9-0.6-4-0.3-1.4 0.3-2.3 1.1-3.5 1.8-1-0.3-2-0.5-3-0.8h-0.1 0.1c-1.1-0.3-1.4-1.2-3.3-1.1-1.2 1.6 2.2 1.7 3.3 2.4-2 1.3-4.3 1.8-6.1 1.2s-3.4-0.9-5.8-0.5c0.2-0.8 0.4-1.3 0.6-2.3-2.2 0.8-3.5 1.6-5.2 1.8-1.6 0.2-3.6-0.2-5.4-0.4-0.6 1.9-0.6 1.9 3.3 1.9 5.6 0 11 0.8 17 0.6 0.3 0 0.5 0 0.8 0.1 1.6 0 3.2-0.1 5.8-0.1 3.2 1 7.9 0.5 12 0.8 4.4 0.3 8.7 0.8 14 0.1-2.4-1.5-5-1.5-7.8-1.1-1.1 0.2-1.9 0.3-2.8-0.2 0.5-0.1 0.9-0.2 1.1-0.4l2.1-1.2c1.9-1.1 3-1.3 5.7-0.8 1 0.2 1.8 0.5 2.9 0.8 2.2-1.3 4.6-0.3 6.9-0.1 0.5-1.6-0.2-2.1-2.9-2zm-29 3.9c-0.9-0.8-1.6-1.5-2.4-2.2 2.4-0.9 2.6 0.4 3.6 0.7 1.1 0.5 0.7 1-1.2 1.5zm12-1c-0.5-0.2-1-0.4-1.3-0.7-0.1-0.1 0.5-0.3 0.8-0.5 0.4 0.2 0.9 0.4 1.2 0.6 0.2 0.1-0.3 0.3-0.7 0.6zm3-1.7c-0.1 0.1-0.6 0.1-1 0.3-0.2-0.2-0.3-0.4-0.5-0.5 0.4-0.1 0.8-0.2 1.2-0.2 0.1 0.1 0.4 0.3 0.3 0.4zm-80 23c2.3 0.1 4.5 0.2 6.7 0.3 1.3 0 2.6-0.1 4-0.2-1.5-1.1-3.7-1.6-6.5-1.3-0.9 0.1-1.8-0.1-2.7-0.1-4.1-0.3-8.1-0.8-12-0.9-2.1-0.1-4 0.2-6.2-0.3-1.7-0.4-3.9-0.3-6.2 0.4 0.6 0.4 1 0.9 1.6 1 3 0.3 6.1 1 9.1 0.2 3.2 0.9 6.2 1.7 10 0.9 0.7-0.2 1.6 0 2.4 0zm22-4.9c-3.4-0.9-6-1.7-8.8-2.4-0.5 0.2-1.1 0.4-1.9 0.6-0.9-0.2-1.8-0.5-2.8-0.6-1.1-0.2-2.3-0.2-3.4-0.4-2.7-0.4-3.2-0.2-4.7 1.6 3.8-0.4 6.5 1.2 10 0.6 3.2-0.4 6.4 1.2 11 0.6zm-32-1.2c2.2 0.4 4.5 0.7 6.9 1.1l0.2-2c-2.6 0.1-4.8 0.3-7 0.4 0 0.2 0 0.3-0.1 0.5zm-3.3-0.6c-0.7-1.6-2.3-1.7-5.8-0.5 1.8 0.7 3.8 0.6 5.8 0.5zm3-17c2.1 1.1 4.3 0.4 6.3 0.2-1.9-0.2-3.8-1-6.3-0.2zm25-0.6c-0.4 0.4-0.6 0.8-1 1.3-1-0.4-1.7-0.6-2.8-1-0.4 0.6-0.8 1.1-1.2 1.7 4.6 0.1 8.6 0.2 13 0.2l0.2-0.3c-1.9-0.3-3.9-0.5-6.1-0.9l0.2-1.7c-1.1 0.1-1.6 0.4-1.9 0.7zm-7.5-2.3c1.4 0.1 2.9 0.2 4.3 0.3-2-1.6-5.1-0.8-8.5-1.2 1 1.5 2.9 0.8 4.2 0.9zm28 2.6c0.4-0.3 1-0.6 1.6-1 4.9 1.1 6.7 0.8 7-1-6-0.2-12-1.3-18 0.2 3.3 1.1 7.9-0.2 9.9 1.8zm-43 28c1.9 0.1 3.9 0.2 5.9 0.4-1.7-0.9-3.7-1-5.9-0.4zm15-27c-2.3-0.2-4.5-0.8-6.9 0.3 3.4 0.8 5 0.7 6.9-0.3zm57 14c0.5-0.1 0.9-0.6 1-0.9 0.3-1.1-2.1-0.9-3.3-1.4 0.9-0.5 1.6-0.9 2.7-1.5-2.1-0.1-3.9 0-3.9 0.8 0 0.9 0.9 1.8 1.6 2.7 0.1 0.2 1.4 0.4 1.9 0.3zm51-2.8c1.8-1.5 1.8-1.5 1.2-2.5-2.4 0.9-2.4 0.9-1.2 2.5zm-1.2-12s-0.1 0.1 0 0c0 0 0.1 0 0.1 0.1zm3.8-6.3c-0.9-0.1-2-0.2-3.2-0.3-1.1 0.7-3.3 1.2-2.4 2.7 1.2-0.3 2.1-0.4 3-0.6 0.6 0.4 1.1 0.7 1.6 1 0.2 0 0.5 0 0.8-0.1zm-10 1.3c0.5-0.3 0.8-1 0.4-1.3-0.7-0.5-1.9-0.3-2.6 0.2-0.2 0.2-0.5 0.4-0.8 0.6-2-1.4-2-1.4-5.4-1 1.8 0.7 3.6 1.4 5.6 2.3 0.8-0.2 2.1-0.4 2.8-0.8zm-38 11c-1.3 0.9-2.5 1.5-1.6 2.2 1 0.8 2.4 1.2 4.5 1.1-1-1-1.8-2-2.9-3.3zm2.8 5.7c1.4 0.4 3.2 0.7 4.9 1.1 1.7-2.4 5-0.4 7.9-0.6l0.3-2.2c0.9-0.5 3.4-0.1 2.7-1.4-1.3 0.1-2.6 0.1-3.8 0.2-2.1 2.1-2.1 2-6.6 1.4-1.9-0.2-4.1-0.1-7-0.1 0.8 0.8 0.9 1.4 1.6 1.6zm-32-20c2.3 1.3 2.6 1.3 4.7-0.1-1.6 0.1-3 0.1-4.7 0.1zm51 21c1.5-0.1 2.7-0.2 4.6-0.3-2.4-1.2-2.9-1.2-4.6 0.3zm-145 7.4c2.4 0.1 4.7 0.3 7.1 0.4 0.3 0 0.6-0.3 1.3-0.7l-8.3-0.1c0 0.1-0.1 0.2-0.1 0.4zm11-21c-1.2-0.7-2.4-0.7-4.3-0.2 1.7 0.7 2.9 0.8 4.3 0.2zm110-4.4c1.3-0.4 2.5-0.7 1.4-1.5-0.3-0.2-1.7-0.3-2-0.2-1.3 0.6-0.5 1.1 0.6 1.7zm-4.3-1.4c-2.6-0.2-4.7-0.9-7.3-0.4-0.5 0.1-1.3-0.4-2-0.4-2.2-0.2-4.5-0.9-7 0.3 5.3 1.1 13 1.4 16 0.5z"/>
  <path d="m119 21c1.5-0.2 2.6-0.3 4.1-0.5-0.9-0.7-1.4-1.4-3.3-0.9-1.6 0.4-1.9 1-0.8 1.4zm-74 22c0.4-0.6 0.4-1.2-1.5-1.3-1.2-0.1-2.4 0-3.6 0-1.7 0-3.7 0.2-5.1-0.2-3.3-0.9-6.2 0.4-9.3 0.1 3 0.7 6.1 1 9.5 1 3.3 0 6.6 0.3 10 0.4zm160-8.3c1-0.3 1.7-0.5 3.2-0.9-2.1-0.5-3.2-0.9-4.5-1.1-1.4-0.2-2.6-0.4-3.5-1.1-1.4-1.1-4.6-1.4-8-0.7 2 0.5 3.8 1 5.7 1.5-1.5 0.8-4.1 0.9-3.8 2.2 3.9-0.9 7.6-1 11 0.1zm-50 18c-0.9 0-2 0.2-2.8 0-0.7-0.2-1.1-0.7-1.7-1.1-0.7 1.5-3.2 0.6-5.5 1 3.7 1.1 12 1.3 15 0.6-2.2-0.6-2.2-0.6-5-0.5zm12-38c-0.6-0.3-0.9-0.5-1.3-0.6-3.5-0.1-6.9-0.1-10-0.2-0.1 0.1-0.1 0.2-0.2 0.3 1.4 0.5 2.9 1 3.9 1.3 2.9-0.2 5.2-0.5 8-0.8zm-68 19c1.6 1.3 3.7-0.2 5.5 0.3-1.1-1.6-1.9-1.7-5.5-0.3zm6.1-6.2c-2.5 0.1-3.5 0.9-2.6 2.3 0.6-0.3 1.1-0.6 1.8-0.8s1.4-0.3 2.2-0.5c0.2-0.5 0.2-1-1.4-1zm7.6 2c-3.9 0.8-3.9 0.8-5.3 1.7 4.5 0.3 5 0.2 5.3-1.7zm12-2.1c-2 3.1-1.7 3.6 2.1 4.3-0.7-1.4-1.4-2.9-2.1-4.3zm-2.7 7.3c2.2 0.9 4.1 0.9 6.8 0.1-2.1-0.9-4.5 0.1-6.8-0.1zm-26-12c2.5 0.4 5.1 0.4 8.3-0.3-1-0.4-1.7-0.9-2.4-0.9-2.3 0-4.6 0.2-7.3 0.4 0.6 0.4 0.9 0.8 1.4 0.8zm21 5.1c0.6 0.7 1.1 1.5 1.7 2.3 0.8-0.5 1.7-0.9 2.4-1.4-1.6-1.3-1.6-1.3-4.1-0.9zm66-7.1c-4-0.9-8.5-0.3-13-1-0.3 0-0.8 0-1.1 0.1-0.5 0.2-1.1 0.4-1.2 0.7s0.3 0.6 0.8 0.8c0.6 0.2 1.5 0.2 2.3 0.3 2.3 0.4 4.5 0.9 6.8 1.3 0.7-0.8 1.6-1.4 3.6-1.5 0.4-0.1 0.9-0.5 1.4-0.7zm-32-7-1.2 0.6c0.2 0.1 0.3 0.1 0.5 0.2l1.2-0.6c-0.1 0-0.3-0.1-0.5-0.2zm6.8 3.1c0-0.1-0.2-0.2-0.3-0.3-0.2 0.1-0.5 0.1-0.5 0.2s0.2 0.2 0.3 0.3c0.2-0.1 0.5-0.1 0.5-0.2zm-147 23h1.1c-0.3-0.1-0.7-0.3-1.3-0.5 0.1 0.3 0.1 0.5 0.2 0.5zm-3.8-0.4-1.9-0.5-0.3 0.3c0.7 0.1 1.3 0.3 2 0.4zm-2.7 3.7h1.9v-0.2c-0.6 0-1.2-0.1-1.8-0.2zm40-13c-0.7 0.2-1.5 0.4-2.2 0.7 0.2 0.1 0.3 0.3 0.5 0.4 0.8-0.2 1.5-0.4 2.3-0.6-0.3-0.2-0.5-0.4-0.6-0.5zm144 21c-0.1-0.1-0.6-0.1-0.9-0.2 0 0.2-0.1 0.5 0.1 0.6 0.1 0.1 0.6 0.1 1 0.1-0.1-0.1 0-0.3-0.2-0.5zm-41-37c-1.6-0.4-1.6-0.4-3.3 0 1 0.2 2 0.3 3.1 0.4 0-0.1 0.1-0.3 0.2-0.4zm-146 4.3c-0.4-0.1-0.7-0.3-1.2-0.4-0.2 0-0.7 0.2-0.7 0.3 0 0.3 0.2 0.5 0.3 0.8 1.1-0.4 1.3-0.5 1.6-0.7zm24 26c-0.2-0.1-0.4-0.1-0.7-0.2-0.2 0.1-0.4 0.2-0.7 0.3 0.2 0.1 0.5 0.2 0.6 0.2 0.4-0.1 0.6-0.3 0.8-0.3zm-4.4-10c-0.6-0.1-1.3-0.3-1.9-0.4-0.1 0-0.4 0.3-0.5 0.4 0.7 0.1 1.3 0.3 1.9 0.5 0.1-0.2 0.3-0.4 0.5-0.5zm167 17h-0.1c0 0.1 0 0.1 0.1 0v0zm-158-33c-0.2 0-0.4 0.1-0.6 0.1 0.1 0.1 0.1 0.2 0.2 0.3 0.3-0.1 0.6-0.1 0.9-0.2-0.2 0-0.3-0.1-0.5-0.2zm9-1c-1.9 0.7-2.3 1.1-1.1 1.6 0.2 0.1 0.7 0 1.4 0-0.1-0.4-0.1-0.9-0.3-1.6zm-1.7 18c0.2 0.1 0.4 0.1 0.6 0.2 0.7-0.3 1.3-0.7 2-1l-0.6-0.3c-0.5 0.2-1 0.3-1.3 0.5-0.3 0.1-0.4 0.4-0.7 0.6zm143-7.1c0.7 0 1.4-0.1 2.2-0.2-0.1-0.2-0.3-0.4-0.4-0.7-0.7 0.2-1.3 0.3-2 0.5-0.1 0.1 0.1 0.4 0.2 0.4zm-5.6 2.6-0.4-0.4-1.6 0.6c0.1 0.1 0.3 0.2 0.4 0.3 0.5-0.2 1-0.3 1.6-0.5zm-15-8.2c-1.2 0.9-0.9 1.3 0.8 1.4 0.2 0 0.4-0.1 0.9-0.3-0.6-0.3-1-0.7-1.7-1.1zm-33-3.5c1-0.2 2-0.3 3.3-0.5-2.7-0.4-2.8-0.5-3.3 0.5zm44 13c-0.1-0.1-0.3-0.2-0.5-0.3-0.7 0.2-1.3 0.4-2 0.6 0.2 0.1 0.5 0.3 0.7 0.5 0.6-0.3 1.2-0.6 1.8-0.8zm2.4-2.8c-0.1-0.2-0.2-0.4-0.5-0.4s-0.7 0.1-1.4 0.2c1 0.3 1.2 0.4 1.5 0.4 0.1 0.1 0.4-0.2 0.4-0.2zm-6-0.7c0.3 0.1 0.5 0.2 0.8 0.3 0.2-0.1 0.3-0.3 0.5-0.4-0.3-0.1-0.6-0.1-0.9-0.2-0.1 0.1-0.3 0.2-0.4 0.3zm-36-3.2c-0.8 0.7-1.5 1.4-2.3 2.1 2.9-0.2 3-0.8 2.3-2.1z"/>
  <path d="m1357 7.3c-4.4 0-8.9 0.1-13 0.1-0.6 0-1.1 0.1-1.6 0.1-10 0.2-20 0.4-30 0.4-10 0-20-0.2-31-0.3-15-0.1-30-0.7-45-1.5-12-0.6-24-1-35-1.5-11-0.5-23-0.9-34-1.3-6-0.2-12-0.2-18-0.3-8.9-0.3-18-0.7-27-0.9-12-0.2-25-0.2-37-0.3-3.4 0-6.8 0.2-10 0.3-3.4 0.1-6.8 0.2-10 0.1-4.2-0.1-8.3-0.3-12-0.4-4.4-0.1-8.9-0.4-13 0.1-4.6 0.6-8.7 0.1-13-0.2-0.7-0.1-1.3 0.1-2 0.1-1.9 0-3.8 0.1-5.7 0.1-4-0.2-8-0.5-12-0.7-8.1-0.5-16 0.1-25-0.2h-82c-9.2 0.3-18 0.6-28 1-14 0.6-28 1.3-42 1.9-1.8 0.1-3.9-0.1-4.6 1.2-0.1 0.1-2.3 0.2-2.3 0.1-0.8-1.5-3.3-0.9-5-0.9-9.4 0.3-19 0.7-28 1-0.7 0-1.3 0.1-2.8 0.3 3.5 0.5 6.3-0.4 9 0.5-2.1 1.1-4.5 0.5-6.6 0.6-2.2 0.1-4.5 0-6.6-0.1-2.1 2.5-3.6 2.9-6 1.6 1.4-0.1 2.8-0.2 4-0.3-0.3-0.9-0.5-1.6-0.7-2.3-1.7-0.1-3.2 0-4.2 0.9-0.3 0.3-0.9 0.5-1.5 0.6-1.4 0.1-2.9 0.1-4.4 0.2-1.3 0-2.2-0.1-3.1-0.7-1.6-1-2.8-0.9-4.9 0.3-0.6 0.3-1.5 0.5-2.4 0.8-0.8-0.6-1.4-1.1-2-1.6-0.2 0-0.4 0.1-0.6 0.1 0 0.5 0.1 0.9 0.1 1.3-3.7 0.2-7.3 0.5-11 0.4s-7.4 0.5-10-0.8c-4.2 1.2-8.6 1-13 1-0.4 0-1.2-0.4-1.3-0.6-0.1-0.9-1.6-1-2.9-1-1.8 0-3.5 0.1-5.2 0.1v0.2c2.1 0.1 4.3 0.2 6.3 0.3 0.6 0.9-0.1 2 2.4 2.1 3.8 0.1 7.7 0.5 11-0.1 3.3-0.6 5.8-0.6 7.4 1 0.1 0.1 0.5 0.1 0.9 0.1 0.4-0.5 0.9-1 1.3-1.5 1.3 1.3 2.8 0.6 4.2 0.4 3-0.5 3.6-0.3 4.2 1.2 0.1 0.2 0.4 0.3 0.7 0.5 0.8-0.1 1.5-0.3 2.2-0.4 0.5 0.4 1.1 0.8 2.1 1.5 0.3-0.8 0.5-1.3 0.5-1.7 0-0.8 0.2-1.5 2.3-1.5 1.9 0 2.6 0.6 2.1 1.5-0.1 0.1-0.1 0.3-0.2 0.4-0.1 0.5-0.2 1 1.1 1 0.5 0 1.1-0.5 1.2-0.8 0.3-1 0.7-1.9 3.5-2.2 1 0.9 2 1.8 3.3 2.9 1.2-0.9 1.6-1.8 3.9-1.5 2.5 0.3 2.6 1.1 2.7 2.2l2.9 0.1c2.1-0.2 4.2-0.4 6.6-0.6 0.6 0.4 0.2 0.8-1.1 1-3.1 0.5-2.5 1-5.5-0.4-0.6 1.5-1.3 1.9-2.9 1.4-1.9-0.6-3.6-0.4-5.7-0.3-3.2 0.2-6.5 0.3-9.7 0.4-5.2-0.2-10-0.4-16-0.7-2.2-0.1-4.3-0.2-6.5-0.3 0.3-0.4 0.5-0.7 0.8-1.2-2.1 0.1-3.8-0.1-3.5 1-8.6-0.4-17-0.7-26-1.1-11-0.5-22-0.9-34-1.3-2.8-0.1-5.6-0.1-8.4-0.2l0.1-1.1c-0.9-0.1-2.1-0.2-3.3-0.3-0.7 0.4-1.7 0.8-2.2 1.3-1.3 0-2.6 0-3.9-0.1h-0.3c0.2-0.3 0.2-0.7-0.1-0.9-0.8-0.5-1.9-0.3-2.6 0.2-0.2 0.2-0.4 0.3-0.6 0.5h-0.5c-1.7-1.2-1.9-1.2-5.2-0.8 0.6 0.2 1.1 0.4 1.7 0.7-1.9-0.1-3.9-0.1-5.8-0.2 0.8-0.1 1.6-0.2 2.5-0.3-0.6-0.3-0.9-0.5-1.3-0.6-3.5-0.1-7-0.1-10-0.2-0.1 0.1-0.1 0.2-0.2 0.3 0.5 0.2 0.9 0.3 1.4 0.5-1.6 0-3.2-0.1-4.9-0.1h-0.3c0.2-0.1 0.5-0.2 0.7-0.4-0.2-0.1-0.4-0.1-0.5-0.2-0.4 0.2-0.8 0.4-1.1 0.6-4.3-0.1-8.6-0.1-13-0.2 0.6-0.3 0.9-0.6 0.2-1.1-0.3-0.2-1.7-0.3-2.1-0.2-1 0.4-0.9 0.8-0.2 1.2-6.8-0.1-14-0.1-20-0.1-3.4 0-6.7 0.2-10 0.2-3.4 0.1-6.7 0.2-10 0.1-4.1-0.1-8.3-0.3-12-0.4-4.3-0.1-8.8-0.4-13 0.1-4.6 0.5-8.6 0.1-13-0.2-0.6-0.1-1.3 0.1-2 0.1-1.9 0-3.8 0.1-5.6 0.1-4-0.2-8-0.5-12-0.7-9.9-0.5-20 0.4-30-0.5-7.3 0.6-15-0.3-22-0.1-4.3 0.1-8.6-0.1-13 0-7.3 0-15 0.2-22 0.2-5.6 0.1-11 0-17 0.1-10 0.3-20 0.6-30 1-14 0.6-27 1.3-41 1.9-1.8 0.1-3.9-0.1-4.6 1.1-0.1 0.1-2.2 0.2-2.3 0.1-0.7-1.5-3.3-0.9-5-0.9-9.3 0.3-18 0.6-28 1-0.7 0-1.3 0.1-2.8 0.3 3.4 0.5 6.2-0.4 8.9 0.5-2.1 1.1-4.5 0.4-6.5 0.5-2.2 0.1-4.4 0-6.5-0.1-2 2.5-3.6 2.8-6 1.6 1.4-0.1 2.7-0.2 4-0.3-0.3-0.8-0.5-1.5-0.7-2.3-1.7-0.1-3.2 0-4.2 0.8-0.3 0.2-0.9 0.5-1.4 0.6-1.4 0.1-2.9 0.1-4.3 0.2-1.3 0-2.2-0.1-3-0.7-1.6-1-2.8-0.9-4.8 0.3-0.6 0.3-1.5 0.5-2.4 0.8-0.8-0.6-1.4-1.1-2-1.6-0.2 0-0.4 0.1-0.6 0.1 0 0.5 0.1 0.9 0.1 1.3-3.7 0.2-7.2 0.5-11 0.4s-7.3 0.5-10-0.8c-4.2 1.2-8.5 1-13 1-0.4 0-1.2-0.4-1.3-0.6-0.1-0.9-1.5-1-2.9-1-1.7 0-3.4 0.1-5.2 0.1v0.2l6.3 0.3c0.6 0.9-0.1 2 2.4 2.1 3.7 0.1 7.6 0.5 11-0.1 3.3-0.6 5.7-0.6 7.4 1 0.1 0.1 0.5 0.1 0.9 0.1 0.4-0.4 0.8-0.8 1.3-1.5 1.3 1.3 2.8 0.6 4.2 0.4 3-0.5 3.6-0.3 4.1 1.2 0.1 0.2 0.4 0.3 0.7 0.5 0.7-0.1 1.5-0.3 2.2-0.4 0.5 0.4 1 0.7 2 1.5 0.3-0.8 0.5-1.3 0.5-1.7 0-0.8 0.2-1.5 2.3-1.5 1.9 0 2.6 0.6 2.1 1.5-0.1 0.1-0.1 0.3-0.2 0.4-0.1 0.5-0.2 1 1.1 1 0.4 0 1.1-0.5 1.2-0.8 0.3-1 0.7-1.9 3.4-2.1 1 0.9 2 1.7 3.3 2.8 1.2-0.9 1.6-1.8 3.8-1.5 2.5 0.3 2.6 1.1 2.6 2.2l2.9 0.1c2.1-0.2 4.2-0.4 6.5-0.5 0.6 0.4 0.2 0.8-1.1 1-3.1 0.5-2.4 1-5.4-0.4-0.5 1.5-1.3 1.9-2.9 1.4-1.9-0.6-3.6-0.4-5.6-0.3-5.9 0.3-12 0.5-18 0.7-0.2 0-0.3 0.1-0.4 0-4-0.5-7.9-0.1-12 0.4-0.6 0.1-1.4-0.1-2.4-0.2 0.6-0.9 1.1-1.6 1.8-2.6-2.2 0.1-4-0.1-3.4 1.2 0.1 0.2-0.6 0.8-1.1 0.8-1.7 0.2-3.4 0.4-5.1 0.5-3 0.1-4.4 0.7-4.8 2.6 0.7-0.2 1.3-0.3 1.9-0.4 3.2-0.6 6.4-1 9.7-0.2 1.2 0.3 2.3 0.7 1.7 1.3-0.4 0.4-1.8 1-2.5 1-2.7-0.2-5.7 0.1-7.7-0.9-2.4 0.2-4.6 0.4-6.8 0.6s-4.4 0.2-6.6 0.3c-1-1 0.2-1.7 1.6-2.2 2.5-0.9 3.1 0.8 5.4 0.9 1.1-0.8 2.3-1.6 3.9-2.8-4.1-0.1-7.4-0.2-11-0.2-1.1 0-2.2 0.4-3.3 0.7 0.4 0.2 0.8 0.3 1.1 0.5 1.4 0.9 1.1 1.4-1.2 1.8-0.9 0.2-1.8 0.2-2.6 0.4-0.5 0.1-0.7 0.4-1.1 0.7-0.6-0.5-1-0.8-1.4-1.1h0.1c-2 0.5-4 1-6.2 1.6-2-1.7-5.6-1.4-9.2-1.8 0.5 0.9 0.8 1.7 1.1 2.3 3.1 0.2 5.9 0.8 8.3 0.5 4.4-0.5 8.3 0.4 13 0.2 3.5-0.2 7.1 0.2 11 0.1 3.8-0.2 7.6-0.1 11 0 4.3 0 8.7 0.3 13 0.1 2.3-0.1 4.3-0.5 6.5 0.2 0.5 0.2 1.5-0.1 2.3-0.1 0.8-0.1 1.6-0.2 2.3-0.2 4.3-0.1 8.5-0.2 13-0.2 1.6 0 3.3 0.1 4.9 0 3.8 0 7.6-0.1 12-0.1 2.5 0 5.1 0.8 7.6-0.2 0.4-0.2 1.6 0 2.2 0.2 1.6 0.4 3.2 0.3 4.7 0 3.5-0.8 6.9-0.3 11 0.2 1.1-0.9 3-0.6 4.8-0.5 1 0.1 2.2 0.1 3.2 0.1 2.2-0.2 4.4-0.5 6.7-0.6 3.1-0.1 6.2-0.1 9.5-0.1-1.4 1.5-1.4 1.5-3.5 1.6-2.5 0.2-5 0.4-8 0.6-1.8-0.6-4.2-1.1-6.9-0.1-0.3 0.1-0.8 0.1-1.2 0.1-6.2 0.2-12 0-19 0.6-3.9 0.4-8 0.2-12 0.3-0.6 0.4-1.3 0.8-2.3 1.4-1.6-2-2.9-0.3-4.4 0.1 0-1.2-1.7-1.9-3.3-1.5-2.7 0.5-5.9 0-8.2 1.3-0.7 0.4-2.6 0.4-4.2 0.6-0.4-0.7-0.7-1.2-1.2-2-2.3 0.8-4.2 1.4-6.2 2-0.2-0.6-0.8-1.2-2.3-0.8-1.6 0.4-4-0.4-5 0.8-0.9-0.2-1.8-0.3-2.6-0.6-0.4-0.1-0.3-0.5-0.6-1-1.8 1-1 1.8-0.9 2.6 0.2 0.7 0 1.3-1.8 1.2-0.1-0.9-0.2-1.8-0.2-2.6-2.2 0.2-4.2 0.3-6.3 0.5-2.4 1.4-0.5 2.8 0.3 4.2 1.6-0.2 3-0.5 4.4-0.6s2.9-0.1 4.4-0.2c-0.1 1.3-2.7 0.7-3.5 1.2-0.4 0.5-0.8 1-1.2 1.6-3-0.5-6.4 0.5-8.4-0.9-1.8 0.3-3.2 0.5-4.6 0.6-5.6 0.4-11 0.2-17-0.3-1.4-0.1-2.5-0.1-3.8 0-3.2 0.2-6.5 0.7-9.6 0.2-3.4-0.6-6.5-0.3-9.8 0.1-0.4 0.1-0.8 0.1-1.2 0-3.2-0.3-6.5-0.5-9.7-0.8-1.1-0.1-2.2-0.1-3.1 0l0.2-0.2c-0.9 0.2-1.9 0.3-3.5 0.6 0.7 0.1 1.2 0.1 1.7 0.1-0.3 0.1-0.6 0.3-0.8 0.5 1.4 0.6 2.7 1 4 1.6 0.6-0.5 1-0.9 2-1.8 0.4 0.6 0.6 0.8 0.8 1l0.8 0.8c3.1-1.2 4.8-1.1 6.3 0 1.6 1.2 0.5 2.2-3.4 3.2-3.5-0.9-7-1.8-11-1.5-0.6 0-1.3 0-1.9-0.2-3.6-0.7-6.9-0.2-9.5 0.4-3.6-0.1-6.7-0.1-9.7-0.2-1.1 0-2.3 0.3-3.2 0.1-0.7-0.1-1.4-0.3-2-0.4 0.1 0 0.1-0.1 0.2-0.1-0.3-0.1-0.6-0.3-1-0.4-0.2-0.1-0.4-0.1-0.6-0.1 0 0.1 0 0.2 0.1 0.3 0 0 0.1 0 0.1 0.1-3.6-0.5-7.3-0.5-11 0.3-3.3-2-6.9-2.2-10-0.7-0.8-0.1-1.6-0.3-2.7-0.5 0.5-0.2 0.9-0.4 1.3-0.6 0.7-0.4 1.3-0.9 2.2-1.5-1.8-0.6-3-0.4-3.9 0.2s-1 1.2 0 1.8h-0.2c0.2 0.9 0.3 1.6 0.4 2.2 3.6-0.3 3.6-0.3 8.1 1 1.5-0.2 3.4-0.8 4.4-0.6 2.9 0.6 4.8 2.3 8.6 1 0.6-0.2 2.1 0.1 3 0.3 4.5 1.1 8.9 1.3 13-0.5 0.2-0.1 0.7 0 1.4 0-0.4 0.6-0.8 1.2-1.2 2 2.8 0 5.2 0.2 7.6 0.1 1.1 0 2.4-0.2 3.3-0.5 3-1 4.8-0.8 6.3 0.8 1.2-0.2 2.4-0.4 3.6-0.5 2.9-0.2 5.8 1.1 8.8 0 0.2-0.1 0.7 0.2 1.1 0.2 0.9 0.1 1.9 0.3 2.7 0.2 1.9-0.2 3.1 0 4.4 0.6 0.4 0.2 1.1 0.3 1.8 0.4 0.5-0.5 0.8-1 1.4-1.6 1.2 0.5 2.1 1 3.1 1.4 2.7-0.7 5.3-0.7 8.3-0.3 4.9 0.8 10 0.6 15 0.2 1.3-0.1 3.3-0.3 3.9 0 2.4 1.2 5.4 0.2 8 0.5 3.5 0.3 7.3-0.1 11-0.2 1.3 0 1.8 0.4 1.5 0.9-2.3 0.3-4.6 0.5-6.8 0.7-0.5 0-1.1 0.1-1.5 0-3.2-0.9-6-0.2-8.9 0.6-3-0.9-6.4-0.9-9.9-0.4-0.9 0.2-2.3 0.2-3 0-3.5-1.2-6.5-0.6-9.5 0.5-3.1-1.2-4-1.2-7.8-0.3-1.8 0.5-2.8 0.2-3.1-0.8 0-0.1-0.4-0.3-0.6-0.4-1.1 0.4-2 0.8-3.1 1.2-1.8-0.9-3.6-1-5.3-0.1-1.3-0.4-2.3-0.7-3.3-1-0.8-0.2-1.9-0.5-2.6-0.3-1.7 0.4-3.8 0.2-5.2 0.6-3 0.7-5.1 0.3-7.3-0.6-3.4 1.6-7.2 0.4-11 0.6-1.6-1.4-3.7-0.4-5.7-0.2-1-0.5-2-0.9-3.2-1.4-1.6 0.3-3.3 0.7-5.7 1.2-0.5-0.1-1.8-0.4-2.9-0.7-1.1 0.2-2.4 0.6-3 0.4-2.2-0.7-4.7-0.4-7-0.4-0.5 0-1.3 0-1.5-0.1-1.5-1-3.3-0.5-5.1-0.3-2 0.2-3.7 0.3-5.6-0.5-1.3-0.5-4.1-0.8-5.5-0.5-2.2 0.5-3.8 0.4-5.7 0.1-0.4-0.1-1 0.4-1.5 0.6 1.2 1.1 2.3 1.4 5.1 1.1 1.9-0.2 3.4-0.2 4.7 0.5 0.3 0.2 0.9 0.3 1.3 0.3 2.5 0 5-0.1 7.5-0.1 1.3 0 2.6 0 4 0.1 3.6 0.2 7.2 0.4 11 0.6 0.8 0 2-0.1 2.2 0.1 1.5 1 2.5-0.2 3.7-0.1 1.4 0.1 2.6 0.5 4 0.8 0.2 0 0.5 0 0.8-0.1 1.6-0.4 3-0.5 4.3 0.3 0.3 0.2 1.4 0.3 1.9 0.2 3.7-1 7.4 1.2 11-0.1h0.3c0.9 0.3 1.7 0.6 2.6 0.9 0.9-0.5 1.6-0.8 2.3-1.2 1.2 0.3 2.4 0.5 3.3 0.9 1.6 0.7 3.3 0.8 5.5 0.7 3.6-0.3 7.3-0.5 11-0.3 2.2 0.1 4.6 0.9 7 0.1 4.6 0.8 9.3 0.2 14 0.3 2.2 0 4.6 0.5 6.6 0.3 2-0.3 2.2 0.4 3 0.7 2.5-0.3 5-0.6 7.5-0.8 0.6-0.1 1.2 0.1 1.8 0.2 3.2 0.5 6.4 1.2 9.7-0.1 0.7-0.3 2-0.2 3-0.2 0.1 0.5 0.1 0.8 0.2 1.1 1.1 0.1 2.1 0.2 3.1 0.3-0.3 0.9-1.5 1.5-2.9 2-2.1-0.6-4.1-1.2-6.3-1.8-0.7 0.5-1.1 0.9-1.6 1.2-1 0.6-3.7 1-4.2 0.5-1.5-1.3-4-1-6.5-1.4l-0.2 1.5c-5-0.4-5-0.4-6.4 1.1 1.9 0.2 3.7 0.5 5.5 0.5 9.4 0 19-0.1 28-0.2 4.3 0 8.6 0.1 13 0 13-0.2 26-0.4 40-0.5 2.8 0 6.1-0.8 8.7 0.5 0.2 0.1 1.2 0 1.5-0.1 2-0.9 4.3-0.5 6.5-0.5 2.5 0.1 5.1 0.4 7.5 0.2 5.1-0.4 10-0.1 15 0.3 2.2 0.2 4.7 0.5 6.9-0.4 0.5-0.2 2 0.2 3.1 0.3 1 0.1 2.4 0.4 2.9 0.2 2-0.8 4-0.6 6.1-0.5 3.5 0.1 6.9 0.1 10 0.2 3.1 0.1 6.2 0.1 9.3 0.1 2.9 0 5.6 0.7 8.6 0.2 0.7-0.1 1.8 0.2 2.6 0.4 2.2 0.6 4.6 0.6 7 0.5 2.8-0.1 5.6-0.2 8.3 0 4.9 0.3 9.7 0.6 15-0.1 0.9-0.1 1.9-0.1 2.8 0 3.3 0.2 6.6 1.2 10 0.3 2.1 0.5 4.2 0.7 6.4 0 0.2-0.1 0.8 0.1 1.1 0.2 1.5 0.8 3.6 0.7 5.6 0.8l19 0.6c2.6 0 5.3 0.4 7.9-0.3 0.5-0.2 1.5 0 2.3 0.1 1.4 0.1 2.8 0.5 4.2 0.5 10 0.1 21 0 31 0h6l17 0.1c0.4 0 0.9 0 1.2-0.1 2.2-0.8 4.3-0.4 6.5-0.2 1.6 0.1 3.1 0.3 4.7 0.3 7.5 0 15-0.2 22-0.2 15-0.1 29-0.1 44-0.3 20-0.3 39-0.3 59-0.2 20 0.1 41 0 61 0 3.1 0 6.2-0.2 9.3-0.2 1.7 0 3.3 0 4.9-0.6 1.3-0.6 3.2-0.6 4.7 0 0.4 0.2 0.8 0.5 1.2 0.5 4.1-0.1 8.4 0.5 12-0.8 0.7 0.2 1.3 0.5 2 0.8 2.6-1.1 5.8-0.8 8.8-0.7 3.5 0.2 6.7 0.7 10 0 4.2-0.7 4.4-0.5 6.7 0.4 0.6-0.3 1.3-0.5 1.9-0.8 0.7 0.2 1.4 0.5 1.9 0.6 0.8-0.3 1.6-0.6 2.2-0.8 1 0.4 1.9 0.6 2.4 0.8 1.7-0.4 3.1-0.8 4.4-0.9 1.3 0 2.6 0.4 4 0.7 1-0.5 2-1.1 3.5-0.3 0.3 0.1 0.7 0.2 1.1 0.2 2.8-0.3 5.6-0.6 8.7-0.9 0.7 0.2 1.4 1 3 0.2 0.3-0.2 1.5-0.3 1.8-0.1 1.7 0.6 2.5-0.6 4-0.5s3 0.3 4.5 0.4c0.2 0 0.5-0.2 0.7-0.2 2-0.1 4-0.4 5.9-0.3 1.4 0.1 2.6-0.1 3.9-0.1 4.4-0.2 8.9-0.3 13 0.5 2.4 0.4 5.4 0.2 8.1 0.1 1.9-0.1 3.4-1.3 5.6-0.6 5.2-0.7 10-1.2 16-0.6 0.6 0.1 1.4-0.2 2.2-0.3 1.6-0.1 4.1-0.6 4.5-0.3 1.8 1.3 2.9 0.4 4.4-0.1 0.7-0.2 2.4-0.4 2.5-0.3 1.7 1.3 4.3 0 6.2 0.5 0.1 0 0.6-0.1 0.8-0.3 1.4-1 3.3-0.8 4.7-0.3 1.5 0.6 3 0.5 4.5 0.5 4.9 0 9.7-0.2 15-0.2 6.5 0 13-0.2 20-0.3 6.3-0.1 13-0.1 19-0.2 8.6-0.1 17-0.1 26-0.2 6.6-0.1 13-0.4 20-0.5h3.4c0.3 0 0.7 0 1-0.1 2.7 0 5.3-0.1 8-0.1 1.2 0.1 2.3 0.2 3.5 0.2 7.6 0 15-0.2 23-0.2 15-0.1 30-0.1 44-0.3 20-0.3 39-0.3 59-0.2 20 0.1 41-4 62-4 3.1 0 6.2-0.2 9.3-0.2 1.8 0 3.3 0 4.9-0.6 1.3-0.6 3.2-0.6 4.8 0 0.4 0.2 0.8 0.5 1.2 0.5 4.1-0.1 8.4-1.5 12-2.8 0.7 0.2 1.3 0.5 2 0.8 2.7-1.1 5.8-0.8 8.9-0.7 3.5 0.2 6.7-1.3 10-2 4.3-0.7 4.4-2.5 6.8-1.6 0.6-0.3 1.3-0.5 1.9-0.8 0.7 0.3 1.4 0.5 2 0.6 0.9-0.3 1.6-0.6 2.2-0.8 1.1 0.4 1.9 0.6 2.4 0.8 1.8-0.4 3.1-0.9 4.4-0.9s2.6 0.4 4 0.7c1-0.5 2-3.1 3.6-2.3 0.3 0.1 0.8 0.2 1.1 0.2 2.9-0.3 5.7-2.6 8.8-2.9 0.7 0.2 1.4 1.1 3 0.2 0.3-0.2 1.5-0.3 1.8-0.1 1.7 0.6 2.6-2.6 4-2.5 1.5 0.1 3-1.7 4.6-1.6 0.2 0 0.5-0.2 0.7-0.2 1.4-0.1 2.8-2.2 4.1-2.3v-21zm-1099 16c1.9-0.6 3.4-1.1 5.1-1.6 0.6 1 1.8 1 3.4 0.8 1-0.1 2.9-0.9 3.5 0.3-3.9 0.9-7.3 1.1-12 0.5zm14 0.3c-1.4 0.2-1.3-0.4-1.4-0.8 0.9-0.2 1.9-0.6 2.2 0.2 0.1 0.2-0.4 0.5-0.8 0.6zm50-7.7c-0.5 0.5-0.9 1-1.2 1.3-1.2-0.3-2.2-0.5-3.3-0.8 1.1-0.6 2.6-0.7 3.9-0.9 0.2 0.1 0.4 0.3 0.6 0.4zm-4.5-0.9h-2.7c1.1-0.9 2.2-1.1 2.7 0zm-9.3-1.1c1 0.6 1.6 1.1 2.5 1.5s1.9 1.1 2.8 1.1c2.9-0.1 2.1 0.7 2.4 1.4-2 0.2-3.6 0.4-5.4 0.6-0.5-0.2-1.1-0.5-1.8-0.8 0.4-0.5 0.8-1 1.3-1.6l-3.5-0.1c0.5-0.6 0.9-1.2 1.7-2.1zm-9.3 2.4c-0.2-0.1-0.3-0.2-0.4-0.3 0.6-0.2 1.1-0.4 1.7-0.6 0.1 0.1 0.3 0.2 0.4 0.3-0.5 0.2-1.1 0.4-1.7 0.6zm5.4-0.3c-0.4-0.1-0.8-0.2-1.1-0.2 0.6-0.6 1.2-1.2 1.9-1.8 1.2 1.1 0.1 1.5-0.8 2zm-14 7.6c-0.5 0-1.2 0-1.8-0.1-2.7-0.4-5.3-0.5-8.1 0-1.2 0.2-2.9 0-4.2-0.2-0.6-0.1-0.8-0.6-0.9-1.2 3 1 5.6 0.5 7.9-0.4 2.5-0.9 4.8-1.1 7.2 0 0.5 0.2 1.4 0.3 2.5 0.5-1.1 0.5-1.8 0.9-2.6 1.4zm31-0.9c-0.2 0.1-0.5 0.1-0.7 0.1-4.4-1-9.1 0.4-14-0.3-1.9-0.3-4.4 0.2-6.6 0.4-1.9 0.1-3.6 0.9-6.2 0.4 3-1.2 5.6-2.2 9.3-1.6 0.4 0.1 0.8 0.1 1.2 0 2.2-0.3 4.6-0.9 6.6-0.7 2.3 0.3 4.4 0.2 6.7 0.2 1.2-0.1 2.4 0 3.6 0 0.8-0.6 1.6-1.1 2.2-1.5 2 0.7 3.7 1.3 6.1 2.1-3.6 0-6.3 0-8.5 0.9zm11-5.5c-0.1 0.2-0.8 0.5-1.1 0.4-0.6 0-1.2-0.2-1.5-0.4s-0.1-0.6-0.1-0.9c-0.9 0.1-1.5 0.2-2.2 0.3-0.1-0.2-0.3-0.4-0.2-0.6 0.6-0.9 1.9-0.8 3.3-0.5 1.6 0.3 2.2 0.9 1.8 1.7zm5.7-4.4-0.1 0.5c-1.2 0-2.5 0.1-4 0.1 1.7-1.5 1.7-1.5 4.1-0.6zm-4.4 7.9c1.6 0 2.7 0 4.1-0.1-1.6 0.9-1.6 0.9-4.1 0.1zm4.2-3.6c-0.8-0.2-1.6-0.5-2.4-0.7 0.2-0.2 0.4-0.3 0.6-0.5 0.8 0.2 1.6 0.5 2.4 0.8-0.2 0.1-0.4 0.3-0.6 0.4zm2.6 4c-0.3 0-0.9-0.1-0.9-0.3-0.4-0.7 0.6-0.8 1.7-1 0.6 0.7 0.7 1.2-0.8 1.3zm3.8-4.4c-1.6-0.2-4 0.2-4.6-1.1 1.6-0.1 3-0.2 4.4-0.3 1.2-0.1 2.2 0.1 2.3 0.7 0.3 0.7-1 0.8-2.1 0.7zm1.9 4.7c-1-1.4-0.1-1.8 4.6-1.5-2 0.6-3.3 1-4.6 1.5zm5.7-6.9 0.5-0.1c0.2 0.1 0.4 0.3 0.6 0.4-0.2 0.1-0.4 0.1-0.8 0.2-0.1-0.2-0.2-0.3-0.3-0.5zm1.3 6.2-0.3-0.4c0.2 0 0.5-0.1 0.6 0 0.2 0 0.2 0.2 0.2 0.3-0.2 0-0.3 0.1-0.5 0.1zm-93 11c-0.2-0.1-0.3-0.2-0.4-0.3 0.3-0.1 0.6-0.2 1-0.3 0 0 0.4 0.2 0.3 0.3zm-10 9c-0.8-0.3-1.7-0.9-2.8-1-1-0.1-2.3 0.3-3.7 0.4-0.8-0.5-1.5-0.9-2.6-1.6-0.5 0.6-0.8 0.9-1.2 1.5-3.4-0.1-7.1-0.1-11-0.2-1.7 0-3.5 0.1-5.2 0.2-1.6 0.1-3.1 0.2-5 0.3l0.2-1.8c-0.5 0.2-0.8 0.3-1.1 0.4-2.1 0.5-4.2 0.9-6.4 1.3-0.7 0.1-2.1-0.1-2.4-0.4-0.4-0.4-0.3-1 0-1.4 0.2-0.3 1.1-0.5 1.7-0.7 0-0.3-0.1-0.6-0.1-1.2 3.9 0.2 7.4 0.3 11 0.5 4 0.2 7.9 0.6 12 0.5 1.9 0 3 0.2 3.9 1 2.4-1.7 5.1-1.8 8.2-0.8 0.6 0.2 1.5 0.3 2.2 0.2 2-0.2 3.9-0.5 5.8-0.7 0.8 0.6 1.6 1.1 2.4 1.7-1 1.2-4 1-5.9 1.8zm45-10c0.3 1.1-0.4 1.3-2.4 0.9 0.7-0.2 1.4-0.5 2.4-0.9zm-3.6 4c0.2 0 0.3 0.1 0.4 0.2-0.2 0.1-0.3 0.1-0.5 0.2-0.1-0.1-0.3-0.2-0.4-0.2 0.1 0 0.4-0.2 0.5-0.2zm-4.5-4.1 2.8 0.7c-0.5 0.2-0.7 0.4-0.9 0.4-1.2-0.1-1.1-0.1-1.9-1.1zm-8.5 4.1c0.1 0 0.2 0.3 0.2 0.5-0.7 0-1.4 0.1-2.1 0.1 0-0.2-0.1-0.4-0.1-0.5 0.6 0 1.3-0.1 2-0.1zm-1.3 10c-0.5 0.4-1.1 0.8-1.8 1.4-1.3-1.1 0.1-1.3 1-1.6 0.2 0 0.5 0.1 0.8 0.2zm-3.4-10c0.3 0.1 0.7 0.2 1.1 0.3-0.5 0.3-1.1 0.6-1.5 1-0.2-0.1-0.5-0.2-0.8-0.2 0.4-0.4 0.8-0.7 1.2-1.1zm-4.6 1-3.4-0.1c2.1-1.1 2.1-1.1 3.4 0.1zm-7.2 3.6c-0.2-0.1-1 0.2-1.8 0.4-0.5-0.8-0.1-1.4 1.4-1.8 1.7-0.4 3.2-0.1 4.9 0.9-1.4 0.6-2.7 1.1-4.5 0.5zm7 0.7c-1.5 0.2-2.3-0.4-2.4-1.2 2.9-1.1 3-1.1 6.6-0.1 0.9-0.3 1.8-0.6 3.1-0.9 0 0.4 0.1 0.7 0 0.7-2.4 0.6-4.7 1.2-7.3 1.5zm2.1 11c2.6-0.3 5.2-0.9 8.2-0.4-4.6 1-5.6 1-8.2 0.4zm13 0.7c-0.7-0.3-1.3-0.6-2-0.8 0.3-0.2 0.6-0.3 0.9-0.4l1.7 0.9zm-3.6-17c2 0.2 3.2 0.3 4.4 0.4-1.7 1-2.9 0.8-4.4-0.4zm6.3 4.2c3.1-0.5 5.1-0.8 7.5-1.2-0.3 1.7-3.5 1.2-4.5 2.1-0.7-0.2-1.4-0.4-3-0.9zm9.1 12c-1.3-0.1-2.9-0.1-1.6-1.4 0.9 0.4 1.6 0.8 2.3 1.1-0.2 0.1-0.5 0.2-0.7 0.3zm-2.2-15c1.1-0.7 2-1.2 3.2-1.9l0.8 2.4c-1.7-0.2-2.5-0.3-4-0.5zm6-0.3c0-0.1 0.4-0.2 0.8-0.4 0.3 0.2 0.7 0.3 0.7 0.5 0 0.1-0.5 0.3-0.8 0.3-0.3-0.1-0.7-0.3-0.7-0.4zm1.2 3.2c-0.3-0.1-0.6-0.3-0.6-0.6 0-0.1 0.6-0.3 0.8-0.3 0.4 0 0.7 0.2 1.3 0.5-0.7 0.2-1.3 0.4-1.5 0.4zm4.1 1.3c-0.5-0.2-1.1-0.4-1.6-0.5 0.2-0.1 0.4-0.2 0.6-0.4l1.5 0.6c-0.2 0.2-0.3 0.3-0.5 0.3zm0-4c-0.4-0.1-0.6-0.3-0.9-0.5 0.3-0.1 0.7-0.2 1-0.2s0.5 0.2 0.9 0.3c-0.5 0.2-0.9 0.4-1 0.4zm1.4-1.6c-0.3-0.1-0.5-0.2-0.8-0.3 0 0 0.3-0.2 0.8-0.5 0.1 0.2 0.3 0.4 0.4 0.6 0 0-0.3 0.1-0.4 0.2zm-2.4-2.5c4.5-1.1 4.5-1.1 5.9 0.4-2 0.2-3.8 0.5-5.9-0.4zm8.9 6.9c-0.2 0-0.5-0.2-1.8-0.7 0.9-0.1 1.4-0.2 1.9-0.2 0.3 0 0.6 0.3 0.9 0.4-0.3 0.2-0.6 0.4-1 0.5zm1.8-3.5h-0.7c0-0.1-0.1-0.2-0.1-0.3 0.5 0 1 0 1.4-0.1-0.2 0.2-0.4 0.3-0.6 0.4zm18 3.7c-0.4-0.2-0.7-0.3-1-0.4 0.3-0.1 0.5-0.3 0.7-0.3 0.3 0 0.7 0.1 0.8 0.3 0.1 0-0.3 0.2-0.5 0.4zm1.1-4.7c-0.2-0.7-0.3-0.8-0.3-1 0.1-0.1 0.3-0.2 0.6-0.2 0.2 0.1 0.6 0.2 0.6 0.4 0 0.1-0.3 0.3-0.9 0.8zm4.6-0.1c-0.2 0-0.2-0.2-0.3-0.3 0.2-0.1 0.3-0.1 0.5-0.2l0.4 0.4c-0.2 0-0.5 0.1-0.6 0.1zm4 3.9c-0.2 0-0.4-0.1-0.6-0.2 0.1-0.1 0.3-0.2 0.6-0.3 0.2 0.1 0.4 0.3 0.6 0.4-0.1 0-0.4 0.1-0.6 0.1zm19-12c-0.3 0.2-1.1 0.1-1.8 0.1-0.1-0.5-0.1-1-0.3-1.8 2.2 0.6 3 1 2.1 1.7zm1.5-5.2c0.8 0 1.6-0.1 2.4-0.2 0 0.2 0.1 0.3 0.1 0.5-0.8 0-1.6 0.1-2.4 0.1-0.1 0-0.1-0.2-0.1-0.4zm1.6 5.5c-0.8-1.6-0.8-1.7 2.5-1.2-0.8 0.3-1.4 0.7-2.5 1.2zm4.5-11c-0.2-0.1-0.5-0.2-0.4-0.3s0.3-0.2 0.6-0.2c0.2 0 0.4 0.1 0.5 0.1-0.2 0.1-0.5 0.2-0.7 0.4zm6.2 9.8c-2.2 1.3-2.4 1.3-5.2 0.2 2-0.1 3.4-0.1 5.2-0.2zm0.8-4.1c-0.2-0.1-0.3-0.3-0.5-0.4 0.2-0.1 0.5-0.2 0.7-0.1 0.3 0.1 0.4 0.2 0.6 0.3-0.3 0.1-0.5 0.1-0.8 0.2zm7 4.9c-1.8-0.1-3.6-0.2-5.4-0.4 0-0.1-0.1-0.3-0.1-0.4 0.4-0.1 0.8-0.3 1.2-0.4 1.4-0.1 2.8-0.2 4.2-0.1 0.6 0 1.2 0.4 1.8 0.6-0.6 0.3-1.2 0.7-1.7 0.7zm3.6-0.6c0.9-0.3 1.6-0.5 2.8-0.9 0.2 0.8 0.3 1.3 0.5 2.3-1.4-0.6-2.2-0.9-3.3-1.4zm8.2-1.1v1.4c-2-0.5-2.4-0.9 0-1.4zm466-10c0.2 0.1 0.4 0.2 0.5 0.3h-1c-0.1 0-0.1-0.1-0.2-0.1 0.3-0.1 0.6-0.2 0.7-0.2zm-7-5.8c0.2 0 0.4 0.1 0.6 0.1-0.2 0.1-0.4 0.2-0.7 0.4-0.2-0.1-0.5-0.2-0.4-0.3 0-0.1 0.3-0.2 0.5-0.2zm-3.9 6.1v0.2h-2.4v-0.1c0.8 0 1.6 0 2.4-0.1zm-12 0.4h-0.4c0.1 0 0.3-0.1 0.4 0zm-1.1-5.9c0.2 0.1 0.4 0.3 0.6 0.4-0.2 0.1-0.4 0.1-0.8 0.2l-0.4-0.4c0-0.1 0.6-0.2 0.6-0.2zm-1.7 5.5c-0.5 0.2-0.9 0.3-1.3 0.4h-3.6c0.2-0.5 1.7-0.6 4.9-0.4zm-11-4.4c1.7-0.1 3.1-0.2 4.4-0.3 1.2-0.1 2.2 0.1 2.4 0.7 0.2 0.8-1.1 0.9-2.1 0.8-1.7-0.2-4 0.2-4.7-1.2zm1.6 4.4c0.2 0.2 0.3 0.3 0.3 0.5h-2.1c0.2-0.3 1-0.4 1.8-0.5zm-3.5-2.8c-0.8-0.3-1.6-0.5-2.4-0.8 0.2-0.2 0.4-0.3 0.6-0.5 0.8 0.2 1.6 0.5 2.4 0.8-0.2 0.2-0.4 0.4-0.6 0.5zm0.3-4.3-0.1 0.5c-1.2 0-2.5 0.1-4 0.1 1.7-1.5 1.7-1.5 4.1-0.6zm-11 3.3c0.6-0.9 1.9-0.8 3.3-0.6 1.6 0.3 2.2 0.9 1.8 1.7-0.1 0.2-0.8 0.5-1.1 0.4-0.6 0-1.2-0.2-1.5-0.4s-0.1-0.6-0.1-0.9c-0.7 0.1-1.5 0.2-2.2 0.3-0.1-0.2-0.3-0.4-0.2-0.5zm-1.9 4.2h-2.7l0.9-0.6zm-3.4-4.4c-0.5 0.5-0.9 1-1.2 1.4-1.2-0.3-2.2-0.5-3.4-0.8 1.1-0.7 2.6-0.7 3.9-0.9 0.3 0 0.5 0.2 0.7 0.3zm-4.5-1h-2.8c1.2-0.8 2.2-1.1 2.8 0zm-9.5-1c1 0.6 1.7 1.1 2.5 1.5 0.9 0.4 1.9 1.1 2.8 1.1 3-0.1 2.1 0.7 2.4 1.4-2 0.2-3.6 0.4-5.4 0.7-0.5-0.2-1.2-0.5-1.8-0.8 0.4-0.5 0.8-1 1.3-1.6l-3.5-0.1c0.5-0.8 1-1.3 1.7-2.2zm-9.3 2.4c-0.2-0.1-0.3-0.2-0.4-0.3 0.6-0.2 1.2-0.4 1.7-0.6 0.1 0.1 0.3 0.2 0.4 0.3-0.6 0.2-1.1 0.4-1.7 0.6zm5.4-0.4c-0.4-0.1-0.8-0.2-1.1-0.2 0.5-0.5 1-1 1.9-1.8 1.2 1.2 0.1 1.6-0.8 2zm502 26c-0.2-0.1-0.3-0.2-0.4-0.3 0.1 0 0.2-0.1 0.3-0.1 0.2 0 0.4 0.1 0.6 0.2-0.2 0.1-0.3 0.2-0.5 0.2zm10-14c-0.1 0-0.2-0.2-0.4-0.4 0.3-0.1 0.7-0.2 1-0.2l0.4 0.4c-0.3 0.1-0.7 0.2-1 0.2zm18 0v-0.6h3.5c-1.5 1-2.4 1.1-3.5 0.6zm22 0.9c1-1.2 1-1.2 3.8-0.9-1.1 0.3-2.2 0.6-3.8 0.9zm4.3 2.4c-0.3-0.2-0.6-0.3-0.6-0.5 0-0.1 0.5-0.3 0.7-0.3 0.3 0 0.7 0.2 0.7 0.3s-0.4 0.3-0.8 0.5zm-1288-4.2c-0.1-0.2-0.2-0.4-0.2-0.6-0.7 0.1-1.4 0.2-2.2 0.4 0 0 0.1 0.3 0.2 0.3 0.7-0.1 1.5-0.1 2.2-0.1zm-6.8-0.3h2.3c0-0.1 0.1-0.2 0.1-0.3-0.8-0.1-1.5-0.1-2.3-0.2zm95 7.5c-0.2 0.1-0.4 0.2-0.5 0.3 0.2 0 0.5 0.1 0.7 0.1s0.3-0.2 0.5-0.3c-0.3 0-0.6-0.1-0.7-0.1z"/>
  <path d="m214 19c0.2 0 0.5 0.1 0.6 0.1 0.2 0 0.4-0.2 0.4-0.3s-0.3-0.1-0.5-0.3c-0.2 0.1-0.4 0.3-0.5 0.5zm-10 12c0.3-0.2 0.7-0.4 0.8-0.6 0.2-0.2 0.1-0.5 0.2-1-3.3 0.6-3.3 0.7-1 1.6zm16-18c-0.8 0-1.6 0.1-2.4 0.1v0.3c0.8 0 1.6-0.1 2.4-0.1zm2.7 5.3c-2-0.5-3.3-1.1-5.9-0.3 2.1 0.5 3.5 0.8 5.9 0.3zm-24 0.7c0.1-0.1 0.3-0.2 0.4-0.3-0.6-0.2-1.1-0.4-1.7-0.6-0.1 0.1-0.3 0.2-0.4 0.3 0.5 0.2 1.1 0.4 1.7 0.6zm-20 14c-0.1 0.1 0.4 0.3 0.8 0.5 0.3-0.3 0.6-0.6 0.7-0.8 0-0.1-0.5-0.2-0.7-0.3-0.3 0.3-0.7 0.4-0.8 0.6zm13 0.8c-0.4-0.3-0.8-0.5-1.2-0.8-0.3 0.1-0.9 0.3-0.8 0.3 0.4 0.3 0.8 0.6 1.2 0.8 0.3-0.1 0.5-0.2 0.8-0.3zm0.7-16c0.1 0.1 0.2 0.2 0.2 0.3 0.2 0 0.4-0.1 0.7-0.1l-0.3-0.3c-0.1 0-0.4 0.1-0.6 0.1zm-82 18c-2.3-0.7-3.2 0.3-4.4 0.6 1.4-0.1 2.7-0.3 4.4-0.6zm0.7-2.5c-1 0.3-2.1 0.6-3.2 0.9 0.2 0.1 0.4 0.2 0.6 0.4 1.5-0.2 2.7-0.6 2.6-1.3zm-0.6-4.9-2.6 0.5c0.8 0 2 0.9 2.6-0.5zm5.5 6.5 1.5-0.3c-0.6 0-1.2-0.1-2.3-0.2 0.5 0.4 0.7 0.5 0.8 0.5zm-7.2-22c-1.1 0.1-2.2 0.1-3.2 0.2 0.1 0.2 0.1 0.4 0.2 0.6 1.1-0.1 2.1-0.2 3.2-0.3-0.1-0.2-0.1-0.4-0.2-0.5zm-60 24c0.7-0.2 1.3-0.3 2-0.5l-0.3-0.4c-0.7 0.1-1.4 0.3-2.2 0.4 0.3 0.2 0.4 0.3 0.5 0.5zm53-24c0.2 0 0.7 0 1.1-0.1-0.3-0.2-0.5-0.4-0.8-0.4-0.2 0-0.6 0.1-0.9 0.2 0.3 0 0.4 0.2 0.6 0.3zm16 25c0.8 0.2 1.5 0.3 2.1 0.4-0.8-0.7-0.8-0.7-2.1-0.4zm-1.8-5.1c1.3-0.4 3.4-0.4 3.5-1.4-3.7 0.1-3.7 0.1-3.5 1.4zm-8.8-3.3h0.2c0-0.1-0.1-0.1-0.2 0zm-26 4.1c0.2 0 0.5-0.2 1-0.3-0.5-0.1-0.8-0.3-1.1-0.2-0.2 0-0.5 0.2-0.7 0.3 0.3 0.1 0.5 0.2 0.8 0.2zm-21 3.7c0.7-0.1 1.5-0.3 2.2-0.4-0.1-0.1-0.2-0.3-0.3-0.4-0.7 0.1-1.5 0.3-2.2 0.4 0.1 0.1 0.2 0.3 0.3 0.4zm6.8-18c-0.5 0.4-0.9 0.7-1.3 1.1 0.3 0.1 0.6 0.1 0.9 0.2 0.4-0.4 0.7-0.8 1.1-1.2-0.2 0-0.4 0-0.7-0.1zm-3.2-1.7c-0.2 0.1-0.5 0.2-0.7 0.2 0.2 0.1 0.3 0.2 0.5 0.2s0.4-0.1 0.5-0.2c0 0-0.1-0.1-0.3-0.2zm25 1.7c0 0.2 0.2 0.4 0.3 0.7 0.6-0.1 0.9-0.2 1.2-0.3-0.2-0.2-0.3-0.4-0.6-0.6-0.1 0-0.9 0.1-0.9 0.2zm-2.2 16c1-0.5 1.9-0.9 2.9-1.4-4 0-4.2 0.1-2.9 1.4zm5.1-22-1.8-0.1v0.3h1.8zm3.8 0.5c0-0.1-0.4-0.3-0.6-0.3-0.3 0-0.6 0.2-1 0.3 0.3 0.2 0.6 0.4 0.8 0.4 0.4 0 0.8-0.2 0.8-0.4zm-2.6 21c-0.1 0.1 0.3 0.3 0.6 0.5 0.3-0.2 0.7-0.3 0.7-0.4s-0.4-0.3-0.6-0.4c-0.3 0.1-0.7 0.2-0.7 0.3zm505-27c-1.6 0.1-3 0.1-4.7 0.2 2.4 1.2 2.7 1.2 4.7-0.2zm8.3 0.2c-2.2-0.2-4.5-0.9-7 0.3 5.4 1.2 13 1.4 16 0.5-2.6-0.2-4.7-1-7.4-0.4-0.5 0.1-1.4-0.3-2.1-0.4zm-32-1v-0.3h-1.8l-0.1 0.2zm2.3 0.3c0.3 0.2 0.6 0.4 0.9 0.4 0.2 0 0.6-0.2 0.7-0.3 0-0.1-0.4-0.3-0.6-0.3-0.3-0.2-0.6 0-1 0.2zm125 0.9v0.3l2.4-0.2v-0.3c-0.8 0.1-1.7 0.1-2.4 0.2zm-118-1.2c0.2 0.1 0.3 0.4 0.5 0.4s0.7 0 1.2-0.1c-0.3-0.2-0.5-0.4-0.8-0.4-0.2-0.1-0.5 0.1-0.9 0.1zm47 2.8c0.1-0.2 0.2-0.3 0.3-0.5-1.6-0.4-1.6-0.4-3.4 0 1.1 0.2 2.1 0.4 3.1 0.5zm-43-1.7c1.1-0.1 2.2-0.2 3.2-0.3-0.1-0.1-0.1-0.3-0.1-0.5-1.1 0.1-2.2 0.1-3.3 0.2 0.1 0.2 0.2 0.4 0.2 0.6z"/>
 </g>
 <defs>
  <clipPath id="a">
   <path d="M0 0h1357v57H0z" fill="#fff"/>
  </clipPath>
 </defs>
</svg>
