<?xml version="1.0" encoding="UTF-8"?>
<svg width="635" height="152" fill="none" version="1.1" viewBox="0 0 635 152" xmlns="http://www.w3.org/2000/svg">
 <g fill="#232DE5">
  <path d="m183 70c1.6-0.24 3.3-1.3 4.5 1 0.28 0.56 1.6 0.76 2.5 0.8 3.5 0.12 6.9 0.12 10 0.2 1.1 0.04 2.3 0.12 3.8 0.2-0.64 1.1-1 1.7-1.6 2.6 1.5 0.16 2.8 0.32 4.3 0.48 0.68-3.2 2.9-3.4 5.5-3.3 2.9 0.08 5.8 0.08 8.8-0.08 17-0.72 34-1.6 51-2.2 7.4-0.28 15-0.2 22-0.36 6-0.12 12-0.44 18-0.48 2.2 0 4.4 0.48 6.7 0.64 1 0.08 2-0.04 3-0.2 1.4-0.24 2.7-0.84 4.1-0.88 16-0.44 33-0.8 49-1.2 11-0.28 23-0.56 34-0.96 7.8-0.24 16-1.2 23-0.76 4.2 0.24 8.2-0.6 12-0.76 4.1-0.16 8.2-0.44 12-0.76 2.2-0.16 4.2-0.04 5.5 3 0.64-1.6 1-2.4 1.4-3.5 10-0.44 20-0.88 31-1.3-1.4 3.1-4.4 2.3-6.4 3.6a96 96 0 0 0-1.8-2c-0.4 0.08-0.72 0.04-0.88 0.16-2.6 2.8-5.9 2.7-9.2 2.3-1.6-0.2-3.1-0.64-4.6 0.36-0.6 0.4-1.6 0.32-2.3 0.36-5 0.16-10 0.12-15 0.48-4.9 0.36-9.8 1.1-15 1.7-0.28 0.04-0.64 0-0.76 0.12-3.8 3.6-8.4 1.9-13 1.9-0.64 0-1.3 0.08-2.7 0.12a129 129 0 0 1 2.8-2c-0.24-0.2-0.4-0.48-0.56-0.48-7.4 0.16-15 0.28-22 0.48-8.5 0.24-17 0.56-25 0.84-8.4 0.28-17 0.56-25 0.76-3.3 0.08-6.6-0.04-9.9 0.24-5.9 0.52-12 0.2-18 0.28-2.6 0.04-5.3 0.12-8 0.44-4 0.48-7.8 1-12-1-0.84-0.48-2.6-0.32-3.4 0.32-1.5 1.3-2.8 1.1-4.3 0.32a2.9 2.9 0 0 0-1.2-0.24c-5.3 0.08-11 0.16-16 0.28-2.4 0.04-4.7 0.2-7 0.4-1.4 0.12-2.8 0.4-4.3 0.6-0.92 0.12-2 0.68-2.7 0.36-3-1.6-6-0.36-9-0.08-4.6 0.4-9.2 1.2-14 0.32-0.64-0.12-1.4-0.16-2 0-6.1 1.5-12-0.08-18 0.88-3.7 0.6-7.4 1.3-11 1.5-6.5 0.32-13 0.52-20 0.2-2.3-0.12-4.4-0.52-7.3 1.2 5.9 0.6 11 1.4 16 1.6 4.5 0.16 9-0.28 14-0.4 0.88-0.04 1.7 0.16 2.6 0.36-14 1.6-28 1.2-42 1.1v0.92c5 0.08 10 0.44 15 0.2 5.6-0.24 11-0.28 17 1.7 1.1 0.4 2.7 0.32 3.8-0.2 2.3-1.1 4.6-1 7-0.72 1.5 0.2 3.1 0.04 4.8 0.04 0.12-1.5 0.24-2.6 0.32-3.6 0.4-0.16 0.72-0.44 1.1-0.44 3.8-0.04 7.7 0.04 12-0.08 2.5-0.08 5-0.6 7.4-0.76 5-0.32 10-0.52 15-0.8 1.7-0.08 3.4-0.12 5.1-0.16 1.1-0.04 2.2 0 3.4 0 0.04 0.28 0.04 0.56 0.08 0.88-2.9 0.44-5.8 0.92-8.8 1.4 0 0.32-0.04 0.64-0.04 0.96 1 0.32 2.1 0.88 3.2 0.88 3.5-0.04 7-0.36 10-2 0.56-0.28 1.3-0.52 1.9-0.48 3.8 0.24 7.6 0.6 11 0.8 3.2 0.16 3.2 0.04 4.9-2.8h11v0.12c-2.7 0.36-5.3 0.72-8 1.1v1c1.1 0.08 2.1 0.16 3.2 0.2 1.7 0.08 3.5 0.28 5.2 0.16 1.4-0.12 2.9-0.44 4.2-1 1.1-0.52 2-2 3-2.2 2.2-0.32 4.4 0.04 6.7 0.12-0.2 1-0.32 1.6-0.48 2.3 3-0.36 5.7-0.64 8.4-1.1 1.2-0.2 2.4-0.88 3.6-1.3 0.6-0.24 1.2-0.6 1.9-0.6 4.4 0.08 8.9 0.2 13 0.44 2.2 0.12 2.6 1.4 1.5 3.5 3.1-0.28 6 0.64 9 0.48 0.04-0.28 0.08-0.6 0.12-0.88-0.64-0.4-1.2-0.8-1.9-1.2 0.2-0.2 0.36-0.48 0.52-0.52l15-0.36c1.8 1.9 4.2 1.7 6.6 1.8 2.5 0.16 4.9 0.76 7.4 1.5-8.8 0.32-18 0.68-26 0.92-13 0.36-26 0.56-39 0.92-9.6 0.28-19 0.8-29 1.2-3.4 0.12-6.9-0.04-10 0.16-6.9 0.36-14 1-21 1.3-6 0.24-12 0.12-18 0.16-0.88 0-1.8 0.2-2.6 0.32-1 0.16-2 0.48-3.1 0.48-9.2 0.16-18 0.2-27 0.44-2.6 0.08-5.2 0.8-8.5 1.4 1.5 0.92 2.5 1.5 3.4 2.1l-0.12 0.6h-5.8c0.36-1.1 0.68-1.9 1.2-3.3-4.8-0.68-9.5-0.52-14-0.48-4.8 0.08-9.5-0.52-14-0.8-0.76 1.4-1.1 2.9-2 3.6-0.8 0.64-2.3 0.6-3.4 0.56-3.4-0.24-6.8-0.6-10-0.92-0.52-1.1-0.84-2.4-1.6-3.2-1-1-2.4-0.88-3.6 0-0.4 0.28-1.2-0.08-1.9-0.08-0.6 0-1.4-0.04-1.8 0.28-3.7 2.8-3.7 2.8-7.8 1.6-0.36 1.7 0 2.9 1.9 3 1.6 0.12 3.2 0.04 4.8 0.08 9.8 0.4 20 0.88 29 1.2 3.2 0.12 6.5 0 10 0-0.92-1-1.4-1.5-2-2.2 1-1 2.2-1.2 2.9 0 1.5 2.5 3.8 2.6 6.2 2.6 4.8-0.04 9.6 0 15 0-2.9 3.3-5.8 2.5-9 1.4-1.1-0.36-2.4-0.56-3.5-0.32-5.2 1.1-10 0.4-15-0.08-2-0.16-4-0.84-5.6 1.4 2.4 3.6 6.1 2.5 9.6 2.1-1.3-0.2-2.7-0.38-4-0.56h16c0 0.2 0.04 0.4 0.04 0.6-0.8 0.2-1.6 0.36-2.3 0.52 0.4 0.72 0.8 1.4 1.6 2.8-8.5 0-16 1.6-24-1-2.6 3.4-6.6 0.12-9.9 1.8-0.56-0.68-1-1.2-1.5-1.9-2.2-2.8-2.6-2.8-4.7 0.88-0.96-0.64-1.9-1.2-2.8-1.9-2.3 1.8-2.3 1.8-0.88 4.1 2.4 0.32 4.4 0.56 6.4 0.84 0.64 0.08 1.4 0.44 2 0.28 4.2-1.3 8.5-1.2 13-0.8 2.2 0.24 4.4 0.8 6.8 1.3 1.6-1.8 3.9-1.7 6.2-0.64 2.1 0.92 3.9 0.44 6.1 0 4.6-0.92 9.3-1.6 14-0.24-0.2 1-0.36 1.8-0.56 2.8 2 0.6 2.8-0.4 3.6-1.8 1.1-1.8 2.6-3.3 5.9-2a95 95 0 0 0-3.5 1.4c0.12 0.2 0.24 0.6 0.36 0.6 3.6 0.08 4.4 3.1 5.6 5.5 0.84 1.6-0.96 3.6-2.9 3.5-0.76 0-1.6-0.2-2.2 0.12-3.5 1.7-3.5 1.7-6.8-0.16-1.8 0.88-3.6 1.5-5.8 0.56-1.3-0.52-3.2 0.6-5.7 1.1 2.5 1 4.2 2 6.1 2.4 1.6 0.28 3.3-0.12 5-0.36 1.7-0.2 3.5-1.2 5-0.68 4.7 1.5 9.5 0.44 14 0.76 1.9 0.16 3.8 0.56 5.9 0.88-0.12 1.7-0.2 3-0.28 4.4 3.5-1.8 4.3-3.4 3.4-7.3-3.5-0.84-7-1.7-11-2.6 3-0.32 5.5-0.6 8.4-0.92-0.36-0.84-0.6-1.4-0.84-1.9 0.8-0.2 1.6-0.4 2.5-0.64-2.1-2.3-1.6 0.52-2.4 0.72-1.2 0.16-2.3 0.56-3.4 0.48-1.7-0.12-3.3-0.52-5.6-0.92 0.4-1.4 0.88-3.1 1.4-4.8 1.6 0.28 3 0.52 5.2 0.92-2.2-2.2-3.6-3.7-4.7-4.8 0.4-2.4 0.72-4.1 1-5.8l-0.12 0.12h4.8c-0.48 1.5-0.84 2.5-1.2 3.8 0.88 0.4 1.8 0.8 3 1.3-0.16 0.4-0.36 0.84-0.52 1.3-0.48 1.4-1.4 2.8 0.4 3.9 1.5 0.88 2.4 0.12 3.3-1.2 0.32-0.44 1-0.64 2-1.2-1.2-1.1-2.1-1.9-3-2.8 1.1-2.5 3.9-0.88 5.6-2.5h-5.2c0-0.24 0-0.52-0.039-0.76 2.2-0.12 4.4-0.24 6.6-0.32 0.28 0 0.56 0 0.8 0.04 1.4 0.36 4.6 0 5.7-0.64 0.4-0.24 0.84-0.28 1.5-0.52-0.68-0.36-1-0.52-1.6-0.84 2.5-2.6 3 1.2 4.2 1.3-0.6 1.9-1.2 3.9-2 6.4-0.84-0.32-2.1-0.52-3.1-1.2-2.6-2-2.6-1.9-4.7 0.48-0.68 0.8-1.9 1.1-3.2 1.7 1.3 3.7 5 2.5 7.6 4.3 0.08-1.6 0.16-2.5 0.2-3.6h3.6c-0.92 2.2 0.6 2.4 2.1 2.7 0.4-1.1 0.52-2.4 1.2-2.9 0.88-0.6 2.2-0.6 3.4-0.64 3.2-0.16 6.3-0.24 9.3-0.32v-9.8c1.3-0.24 2.7-0.88 3.2 1.1 0.16 0.76-0.2 1.6-0.4 2.9 0.24 0.08 0.92 0.32 1.8 0.68 0.28 1.5-0.44 3.8 1.6 4.7 2 0.88 3.6-0.08 4.6-1.8 3.5 2 6.6 2.1 9.6-0.44 0.28-0.24 0.68-0.6 1-0.56 3 0.24 6.2-0.16 8.9 0.96 4.2 1.8 8.3 0.52 12 0.72 1.3 0.08 2.6-0.56 3.9-0.52 1.7 0.04 2.3-0.84 2.6-2.6-1.8-0.52-3.6-1-5.7-1.6-0.32-0.72-0.8-1.8-1.2-2.9-1-2.5 0.12-4.4 2.7-4.2 2.5 0.28 4.9 0.76 7.5 0.28 0.56-0.12 1.8 0.76 1.9 1.4 0.4 1.5 1.2 1.5 2.7 1.2-0.08-0.76-0.12-1.6-0.24-2.7 1.8-0.4 3.8-0.8 5.6-1.2 0-0.12 0.04-0.24 0.04-0.36-1.3-0.16-2.6-0.32-4-0.48 1.8-3.2 6.4-3.6 12-1.1-1.7 0.68-3.1 1.2-5 2 2.4 0.72 4.4 0.64 6.4 0.44 4.5-0.44 9-1 13 0.72 0.6 0.24 1.2 0.44 1.8 0.64 3 1.1 3 1.1 3 4.5 2 0.44 4 0.92 6 1.4 0.04 0.2 0.04 0.4 0.08 0.56-1.2 0.32-2.5 0.64-3.9 1 3.3 1.9 5 2.1 8.2 1.4 1.6-0.36 4.1 0.08 6.3 1.2-1.2 0.64-2.2 1.2-3.9 2.1 1.4 0.72 2.2 1.3 3.1 1.5 1.6 0.32 3.1 0.08 3.6 2.3 0.28 1.2 2.5 0.84 2.5 0.16 0.2-3.1 2.2-1.1 3.4-1.2-1.2 1.2-2.4 2.4-3.7 3.6 2.9 3.4 6 0.96 9.2-0.32-0.24 1.8 0.08 2.8 2 2.7 1.6-0.08 3.2 0 5.2 0-2.6 1.4-5.2-0.04-7.7 1.9 2.4 0.72 4.2 1.2 6.5 1.9 1-1 2-2.8 3.5-3.5 1.4-0.68 3.3-0.36 5.2-0.48 0.68-1.3-0.4-3.5 1.9-4.2 1.5-0.44 4.6-0.04 7 1.2l-1.4 3.4c-1.4 0.2-2.8 0.36-4.2 0.56-0.04 0.28-0.08 0.6-0.12 0.88 1.9 0.64 3.8 1.3 5.7 1.9 1.1 0.32 1.6 0.88 1.2 2-2-0.2-4-0.4-6-0.56-0.08 0.28-0.12 0.6-0.2 0.88 1.3 0.48 2.6 1 3.8 1.5 1.8 0.6 1.8-0.8 2.2-1.9 2.9 0.16 5.7 0.28 8.6 0.44 2.7 0.12 5.4 0.28 8.2 0.4 0.08-0.36 0.12-0.72 0.2-1.1-1.4-0.36-2.8-0.88-4.3-1.1-1.6-0.24-3.2-0.081-4.8-0.24-2.8-0.32-3.8-2.2-2.8-4.8 0.4-1.1 0.52-2.3 0.88-4.1 0.68 0.04 2-0.16 3.1 0.2 4.8 1.4 9.7 3 14 4.5-1.9 0.32-4.1 0.68-6.9 1.1 0.96 0.68 1.4 1.1 2 1.4 1 0.64 2.5 0.64 2 2.8-0.12 0.56 2.3 1.8 3.7 2.8 0.32 0.64-2 1.9 0.32 2.6 0.28 0.079 0.56 0.84 0.52 1.2-0.08 1.3-0.32 2.6-0.56 4.2-1.6-1.8-3.2-3.6-4.9-5.5l1.6-0.96c0-0.2-0.04-0.4-0.04-0.64-1.6-0.12-3.2-0.24-5-0.36 0.52 1.9 0.92 3.5 1.4 5.1-0.84 0.44-1.5 0.76-2.4 1.2 0.44 2.4 0.92 4.8 1.4 7.3 3.6 0.32 6.7 0.56 9.8 0.84-4.2 1.5-12 1.4-16 0.28-0.28-1.8-0.6-3.6-0.8-5.4-0.2-1.8-0.32-3.7-0.48-5.4-2.4-1.3-4-0.44-5.5 1.5a124 124 0 0 1-1.7-2.6c-3.7-0.08-2.1 4.9-5.3 5.5-0.12-1.2-0.04-2.2-0.36-3.1-0.28-0.8-1-1.4-1.6-2.2 1-0.88 1.8-1.6 3.1-2.6h-14c-0.04 0.32-0.04 0.64-0.08 0.92 2.6 1.7 5.7 0.88 8.5 1.4 0.24 1.6-0.68 1.9-1.8 2.1-1.9 0.36-4.6-0.64-4.8 2.8-1.5 0.2-2.9 0.44-4.4 0.64-0.04-0.12-0.08-0.28-0.12-0.4l1.7-0.56c-0.28-0.96-0.52-2-0.76-2.8-3.2-2.2-5.7 0.8-8.5 0.68-0.08 0.24-0.12 0.52-0.2 0.76 0.84 0.44 1.9 0.68 2.5 1.4 0.56 0.56 0.64 1.6 1 2.6 0.92-0.04 2-0.08 3-0.16 0.76 1.1 1.5 2.1 2.6 3.6-1.2-0.079-2-0.12-3.1-0.2 0.4 0.84 0.76 1.6 1.3 2.7-0.88-0.04-1.6-0.12-2.5-0.16-0.16 1.1-0.36 2.2-0.6 3.6-3.1-1-6.1-1.8-9-3-0.72-0.28-1.6-1.6-1.5-2.4 0.12-1.5 0.6-2.8-0.64-4.1-1.4-1.4-3-0.76-4.5-0.72-0.52 0-1 0.24-1.7 0.4-0.04 0.76-0.12 1.5-0.2 2.5-1.4-0.28-2.8-0.56-4.2-0.8-0.76 1.2-1.4 2.3-2.3 3.6 0.28 0.4 0.68 1 1.5 2.2-2.1-0.16-3.7-0.28-5.3-0.44 0.16-1.3 0.28-2.2 0.36-3.1 0.56 0.24 1.1 0.48 2.2 0.92-0.8-1.9-1.3-3.2-1.9-4.7-2.2 1.5-0.72 2.6-0.16 3.8-3.1-0.24-2.8 3.4-5 4.1 0.52 0.72 0.88 1.2 1.2 1.6-1.1 1-4.8 0.48-6.2-0.64-0.68-0.56-1.2-1.6-2-1.8-2.2-0.8-4.6-1.3-7.6-2.2a381 381 0 0 0 1.6 5.8c-1.4 0.24-2.9 0.64-3.6-1.8-0.32-1.2-1.3-1.1-3.4-0.2 0.84 0.56 1.5 0.96 2.8 1.8h-4.4c-0.24-0.96-0.44-1.8-0.72-3-2 0.079-4.8 1.5-4.8-2-2.4-0.48-4.5-0.88-6.6-1.3 0.36-3.5-0.56-5.3-3-6.6-2.2-1.1-2.9-0.92-5.8 1.8 1.6 0.64 3 1.2 4.6 1.8 0.28 1.7-2.8 3.6-0.04 5.4-5 4.2-11 2.7-13-3.5 1-1.6 2.1-3 4.4-2.5 0.48 0.08 1.2 0.08 1.5-0.24 0.48-0.52 1.1-1.6 0.88-1.9-0.44-0.64-1.5-1.4-2.1-1.3-1.6 0.32-3.1 1.1-5.1 1.9-0.24 0.92-0.6 2.3-1 3.8-2.5 1.3-4.4-3.4-7.5-0.48 0.68 1.2 1.4 2.6 2.3 4.2-0.64 0.44-1.6 0.96-2.5 1.7-1.2 1.2-2.1 1.1-3.3-0.16-2.2-2.2-3-1.8-3.7 1.1-0.2 0.72-0.6 1.4-0.88 2-1.8-0.92-3.7-1.5-5-2.7-1.6-1.7-3.3-1.1-5.2-1.2-0.36 0.96-0.72 1.8-1 2.6-0.36 0.04-0.64 0.16-0.84 0.12-2.3-0.68-4.5-1.8-6.8-1.9-1.4-0.04-2.8 1.5-4.6 2.5-1-0.84-2.4-2.4-4.6-1.8-1.9 0.44-3.9 0.56-6.3 0.88-0.12 0.32-0.36 1.2-0.76 2.5-1.3-0.68-2.5-1.3-4-2.1-1.5 0.64-3.4 2.5-5.1-0.24-0.08-0.12-0.2-0.24-0.28-0.24-1.4 0.08-2.9 0-4.2 0.44-0.32 0.12-0.04 2-0.04 3.3-2.5 3-5.6 0.8-8.5 0-0.48-0.12-0.72-1.1-1.1-1.7 0.68-0.04 1.4-0.16 2-0.16 0.28 0 0.52 0.32 1.2 0.8-0.44-2.5-0.32-5-1.4-6.7-1-1.8-3.2-2.9-4.9-4.4-1.4 2.1-1.3 3 0.16 3.9 2.5 1.6 2.5 1.6 3.6 3.2-1.4 1.4-2.8 2.7-4.2 4.1-2.4-2.4-5.6-1.7-7.8 2.3-1.9 0.12-3.7 0.28-5.6 0.4l0.08 0.12c0.8-0.72 1.6-1.4 2.8-2.6-0.4-1-1-2.5-1.8-4.6-0.92 3.3-0.92 3.3-3.8 5.2-1.8-0.92-2.9-3.6-6.1-2.5 0.24 1.3 0.44 2.6 0.84 4.8-1.5-1.4-2.3-2.5-3.4-3-1-0.44-2.4-0.24-3.8-0.36-0.64 1.4 2.4 3.7-0.64 5.6-0.2-1.1-0.4-2.1-0.56-3-3.6-0.88-3.6-0.88-5.6 3.2-0.8 0.04-1.7 0.12-2.6 0.12-0.88 0.04-1.8 0-2.4 0-1.2-1.8 2.2-4.2-1.3-5.2-2 1.1-2.1 3-1.9 5.1-2 0.32-3.3 0.04-3.8-2-0.16-0.68-0.76-1.4-1.3-1.8-1.4-1.2-1.4-1.1-2-2.9-2.4 0.76-2.4 0.76-1.3 2.8 0.52 0.96 0.88 2 1.3 3-2.7 0.52-2.7 0.52-3.9-2.8-1.3 1.5-1.3 1.5-1.4 3.5-2.6-0.28-2.6-0.28-2-5.4-1.5 0.16-2.8-0.76-4.3 0.56-1 0.88-2.6 1.2-3.9 1.7l0.24 0.84c0.6-0.08 1.3-0.36 1.8-0.16 0.6 0.2 1 0.84 1.8 1.5-2.7 1.7-5.2 1-7.6 1.1 0.08-4.8-1.6-6.2-5.3-4.4h0.04c-1.1 1.2-2.2 2.3-3.4 3.6-0.2-3.9-3.7-3.9-6.4-4.4-1.5-0.24-3.6 0.8-4.1 3.5 0.72-0.08 1.2-0.24 1.7-0.2 0.4 0.04 0.8 0.32 1.1 1.1h-5c-0.44-1.8-0.8-3.6-1.2-5.5-2.9 2-2.9 2-1.4 5.7-1.2 0.16-2.3 0.32-3 0.4-1.2-2.6-2.3-4.8-3.3-7-2.2 1.2-3.9 2.2-5.9 3.4v2.6c-2.6 0.88-2.2-1.6-3.2-2.4a555 555 0 0 1-5.6 1.5c-0.76-1.2-1.1-2.5-1.7-2.6-0.8-0.12-2 0.4-2.6 1-1 0.88-1.7 2.2-2.8 3.1-0.64 0.48-1.8 0.36-3.6 0.68 1.1-1.6 1.6-2.4 2.3-3.4-1.9-0.4-3.1 0.12-3.9 1.5-0.88 1.5-2 1.6-3.2 0.32-1.4-1.5-3.4-1.2-5.1-1.2-0.8 0-1.6 1.8-2.8 3.2-0.92-0.48-2-1-3.5-1.7-0.52 0.48-1.2 1.4-2.1 1.7-0.92 0.32-2 0.08-3.2 0.08-0.32 0.8-0.68 1.7-1.4 3.6-0.36-1.5-0.52-2.1-0.68-2.8-2.5-1.1-2.1 2.2-4 2.6-0.32-0.32-1-0.64-1.2-1.1-0.68-1.8-2.4-1.4-2.8-0.6-1.6 3-4.6 2.9-7.2 3.3-3.5 0.6-7.2 0.64-11 0.88-3.2 0.2-6-1-8.7-2.6-3.7-2.3-3.6-4.7 0.32-6.6 1-0.48 2.1-0.84 3.2-1.2-0.04-0.28-0.04-0.52-0.08-0.8h-11c1.6-2.6 1-3.9-0.56-5.6-1.4-1.6-3.2-3.4-3.5-6-0.2-1.3-2.1-2.6-3.5-3.4-1.1-0.6-1.9-1.1-2.4-2.4-0.92-2.6-2.2-4.7-4.8-6.2-2.3-1.3-3.4-3.9-2.8-6.9 0.28-1.2 0.32-2.5 0.48-3.9-1.2-0.32-2.3-0.6-3.6-0.96-0.08-0.48-0.04-1-0.28-1.4-2.5-4.6-1.4-9.7-1.9-15-0.24-2.7-0.92-5.5-1.7-8.1-0.24-0.72-1.7-1-2.5-1.6 2.5-1.8 2.5-1.8 1.1-4.7 1.2-0.44 2.4-0.84 3.6-1.3 0.52-1.9-1-2.8-1.6-4-0.56-1.2 0.2-3.1 0.36-4.8h5.2c0.04-0.2 0.08-0.36 0.08-0.56-1.1-0.32-2.2-0.52-3.3-0.92-1.4-0.52-2.5-1.2-0.8-2.8 0.32-0.28-0.04-1.3-0.08-2.3 1.1-0.28 2.3-0.6 3.8-0.96 0.16-0.8 0.36-1.7 0.6-2.7-1.2-0.68-2.3-1.3-3.7-2.2 0.28-1.1 0.56-2.2 0.88-3.5 11 1.8 21 5.1 33 3.2-3 1.8-6.2 2-13 1.5-4-0.36-8.1-0.76-12-1.2-0.32 2.4 0.2 3.5 2.4 3.5 1.2-0.04 2.4-0.04 3.6 0 0.68 0 1.4-0.04 2 0.24 6 2.9 8 2.7 13 2.1 1.8-0.2 3.6-1 5.2-0.72 2.1 0.32 2.9-0.84 4-2.5 0.36 0.72 0.6 1.1 0.72 1.5 0.12 0.48 0.16 1 0.24 1.6 1.7-0.24 3.2-0.48 4.7-0.68 0.2 1.1 0.4 2 0.56 2.9-1.3 0.44-2.8 0.96-4.2 1.4 0 0.16 0.04 0.36 0.04 0.52 2 0 4.1 0.16 6.1-0.04 10-0.88 20-1.6 30-2.9 5.6-0.76 11 0.6 17-0.52 2.2-0.48 4.8-0.04 6.4-2.5 0.24-0.36 2-0.2 2-0.04 0.68 2.7 2.9 1.8 4.6 2 2 0.24 4 0.04 6 0.04 0.64-1.6 1.2-3 2-4.8 1.3-0.08 2.7-0.72 4.1 0.84 0.56 0.6 2 0.4 3 0.64 2.2 0.52 4.8-0.84 7 1.4-1.1 0.64-2.1 1.2-3.1 1.8 0.039 0.2 0.12 0.4 0.16 0.6h18c-1.3-3.3-5.4-1.5-7.6-4.6 2.6 0.08 4.6-2 6.2 1.1 0.2 0.4 1.4 0.44 2.2 0.48 1.9 0.12 4-0.28 6.4 1.3-2 0.28-3.2 0.48-4.8 0.68 2 1.4 3.8 1.6 5.9 1.1 1.6-0.36 3.2-0.64 4.8 0.96 1.4 1.5 3.4 1 5.8-0.84 1.4 2.3 3.7 1.9 5.8 1.4 2.7-0.56 5.2-0.76 7.8 0.24 0.92 0.36 2.1 0 3.1 0.04 0.88 0 1.9-0.12 2.6 0.2 2 0.8 3.3 0.16 4.8-1.4-0.4-0.52-0.8-1.1-1.4-1.8h9.6v0.2c-1.6 0.08-3.1 0.16-4.8 0.28-0.48 2-0.08 3.9 1.9 3.4 3.9-1.1 7.6 0.04 11 0.08 3.6 0 6.2-0.56 6.8-4.4 1.4 1 2.6 1.9 3.6 2.7-0.24 0.04-1 0.24-1.8 0.4v0.36c0.88 0.04 1.8 0.039 2.6 0.16 2.3 0.28 4.2-0.32 5.4-2.7-0.64-0.24-1.2-0.48-1.8-0.72 0.2-0.12 0.36-0.36 0.52-0.36 2.6-0.16 5.2-1.2 7.7 0.6 0.6 0.4 2.1 0 3-0.44 3.6-1.8 7.3-0.84 11-0.84 0.6 0 1.2 0.88 2 1.6 1.9-2.1 4.2-2.5 7-2.2 3 0.32 6.1-0.36 9.1-0.44 9.2-0.28 18-0.4 27-0.76 6.6-0.28 13-0.88 20-2-1.5-0.88-2.9-1.8-4.5-2.7-2.5 1.3-5.1 2.6-7.7-0.12-0.6-0.64-2-0.68-3-0.76-2-0.12-4-0.04-6.2-0.04-0.08 0.88-0.12 1.6-0.2 2.3-2.1 0.84-2.5-0.44-2.6-2.1h-16c-0.92 0-2 0.52-2.7 0.24-2.8-1-3.2 0.72-3.4 2.9-1.9 0-3.8 0.08-5.6-0.04-0.84-0.08-1.6-0.56-2.4-0.96-0.32-0.16-0.52-0.68-0.84-0.76-2.4-0.44-4.8-1.1-7.2-1.1-4.2 0-8.5 0.24-13 0.68-1.9 0.2-3.7 1.2-5.6 1.7-1 0.28-2 0.56-3.1 0.56-2 0-4-0.32-6-0.24-1.5 0.08-3.1 0.48-4.5 1-2.4 0.84-4.4 1.5-7.1 0.2-2.2-1.1-5.2-0.76-7.8-0.8-2.5 0-5 0.36-8.2 0.64 0.8-1.5 1.1-2.8 1.8-3 1.2-0.36 3.1-0.56 3.8 0.12 2.7 2.6 5.6 1.3 8.2 0.4 3.2-1.1 6.3-1.1 9.4-0.68 3.2 0.48 3.2 0.76 5.4-1.4-0.12-1.5-0.24-3.1-0.4-4.6-2-0.96-5.2 0-5.3-3.8-0.72 3-2.6 3.4-4.9 3-1.6-0.28-3.1-0.8-4.8 1.1 4.1 1.8 8.4 1.6 13 2.4-0.64 0.64-0.92 1.2-1.3 1.2-6.5 0.32-13 0.84-20 0.84-6.2 0-12-0.6-19-0.68-4-0.04-7.9-0.56-12-1-3.6-0.4-7.2-0.24-11-0.32-4.9-0.08-9.9-0.08-15-0.32-2.2-0.12-4.4-0.8-6.6-1-3-0.28-6.1-0.48-9.1-0.44-2.5 0-5 0.4-7.5 0.56-1.6 0.08-3.5 0.84-4.1-1.8-0.04-0.28-1.2-0.52-1.8-0.44-2.3 0.44-5.1-1.2-7 1.4-3.4-0.24-7 0.2-10-0.88-4-1.4-7.8-1.3-12-0.52-2.6 0.52-5.1 0.88-7.8 0.2-1.8-0.48-4 0.08-6 0.2-8.5 0.56-17 1-25 1.7-1.6 0.12-3.3 0.8-4.8 1.5-1.6 0.76-2.9 1.1-4.4-0.24-1.1-1-2.3-1.2-3.2 0.4-0.24 0.4-1.1 0.92-1.3 0.8-3.2-2-6.4 1.6-9.8-0.16-1.7-0.88-4.2-0.28-6.3-0.24-3.7 0.04-8.1-1.1-11-3 0.36-2.6 2.8-1.4 4.2-2.2 0.12-0.6 0.24-1.2 0.36-1.9 0.36-0.08 0.76-0.28 1.2-0.2 4.3 0.6 8.6 1.2 13 1.9 1.8 0.24 3.7 0.72 5.5 0.6 16-1.2 33-2.5 49-3.6 6.8-0.48 14-0.56 20-0.84 1-0.04 2.1 1e-3 3.2 0.041 5.3 0.12 11 0.2 16 0.36 7.7 0.24 15 0.52 23 0.72 5 0.16 10 0.16 15 0.32 1.6 0.04 3.1 0.48 4.7 0.6 1.2 0.08 2.4 0.04 3.5-0.04 1.8-0.12 3.7-0.6 5.5-0.48 3.6 0.2 7.1 0.76 11 1 2.4 0.16 4.7 0.039 7.4 0.039v3.2c0.44-0.28 0.88-0.4 1-0.68 0.76-2 2.2-2.8 4.4-2.6 1.6 0.12 3.2-0.2 4.7-0.56 2.8-0.68 5.5-0.68 8 1.1-2.7 1.2-5.3 2.3-8.2 3.5 5.2 1.5 7.4 0.44 8-3.7 1.9-0.44 3.8-0.8 5.6-1.3 4.7-1.3 9.3 0.16 14 0.2 0.6 0 1.4-0.12 1.8-0.52 1.5-1.4 2.9-1.5 4.6-0.16 1.2 0.96 2.6 1.1 4.1 0.44 0.76-0.32 1.7-0.12 2.6-0.2 0.64-0.04 1.5 0.12 1.8-0.2 3-2.7 6.3-1.5 9.6-1.2 1.7 0.16 3.4 0.16 5.2 0.04 4.4-0.28 8.8-1.1 13-0.84 6.4 0.4 13-2.9 19-0.48 0.68 0.24 1.7 0.2 2.3-0.12 4.6-2 9.4-0.96 14-1.4 4.9-0.44 9.8-0.36 15-0.64 0.96-0.04 1.9-0.6 2.9-0.96-0.72-1.9-2.1-1.5-3.2-1.5-6.1 0.2-12 0.6-18 0.64-3.6 0.04-7.1-0.28-11-0.68-2-0.2-3.7-0.32-4.8 1.9-2.1-2.8-5.1-2.4-7.7-2.5-2.7-0.2-5.6-0.88-8.2 0.88-0.36 0.24-1.2-0.32-1.9-0.32-1.1-0.04-2.2 0-3.4 0.16-2.9 0.48-5.6 1.8-8.8 0.12-1.5-0.76-3.8 0.08-5.8 0.36-1.7 0.24-3.3 0.72-5 1.1-0.12-0.24-0.28-0.48-0.4-0.76 0.76-0.52 1.5-1.3 2.3-1.5 2-0.36 4-0.48 5.9-0.64 6.3-0.52 13-1.1 19-1.4 1.8-0.12 3.6 0.56 5.5 0.52 3.3-0.08 6.6-0.4 9.9-0.72 2.4-0.24 4.6-0.76 7 0.44 1.1 0.52 3 0.16 4.2-0.4 2.2-1 4.1-1 6.5-0.72 3 0.36 6.1 1.4 9.3-0.04 1.2-0.56 3-0.44 4.2 0 2 0.68 3.8 0.52 5.8 0.08 3-0.64 6-0.72 9.1-0.96 2.1-0.16 4.2-0.12 6.9-0.2a418 418 0 0 1-1.8-2.6c0.96-0.4 2-0.8 3-1.2h-0.08c1.3 2.3 3.6 0.88 5.4 1.3 1.4 0.36 3.2-0.24 4.7-0.44 0.92-0.12 1.9-0.48 2.8-0.36 6.5 1 13-0.44 19-0.32 3.4 0.08 7.5-0.68 11 2.6-4.8 0.2-9.4 0.56-14 0.56-4.7 0-9.5-0.6-14-0.44-4.6 0.16-9.1 0.96-14 1.6 1.1 1.3 1.8 2 2.4 2.7-3.8 2.4-3.8 2.4-6.3-0.24-0.12 2.4-0.2 4.4-0.36 7.2 2-1.7 4.4-0.44 5.9-2.4 0.12-0.16 0.76-0.16 1.1 0 2.6 1.2 4.8-0.04 7.1-1.6 1 0.88 1.9 1.8 2.8 2.5-0.08 2.4-1.6 3.2-3.3 2.7-4.6-1.2-9-0.32-14 0.4-3 0.48-6.1 0.44-9.1 0.96-3.9 0.68-7.3-0.28-11-3-3.6 3.6-8.6 3.2-13 4.2 0.68-1.7 0.68-1.7 4.7-3.3-1.8-1.6-3.9-0.08-5.6-0.68-2.2-0.76-4.2-0.24-6.2 0.36-1.9 0.56-3.9 0.64-6.2 1v2.6l0.16-0.2c-2 1.5-2 1.5-3 4.4 0.24 0.24 0.52 0.68 0.8 0.68 4.6-0.08 9.2 0.6 14-0.56 2.6-0.64 5.5-0.4 8.3-0.68 1.5-0.16 2.9-0.52 4.8-0.84 1.3 1.1 3 2.8 5.2 0.12 0.28-0.32 1.4-0.36 1.9-0.08 2.9 1.8 5 0.68 6.8-2.1 1.8 2.1 3.5 3.8 6.4 1.7 0.96-0.68 3.2-0.24 4.5 0.4 2.1 1 3.9 1 6.1 0.36 1.6-0.48 3.5-0.32 5.1 0.08 3.3 0.84 3.4 0.96 5.1-2 0.24-0.44 0.6-0.8 1.3-1.7 0.8 1.1 1.4 2 2.2 3 2.2 0.2 5.2-1.8 6.8 2.3 1.3-2.5 2.9-3.2 5.2-2.4 0.08 0.52 0.16 1.1 0.2 1.6 0.2 0.08 0.32 0.16 0.44 0.16 3.4 0.08 6.8 0.16 10 0.2 1.6 0.04 3.1 0.04 4.6 0.04 2.8 0 5.6 0.04 8.3-0.04 4.8-0.16 9.5-0.4 14-0.6 4.5-0.2 9-0.52 14-0.52 4.1 0 8.2 0.36 13 0.56-0.76 1.5-1.2 2.5-1.9 3.8 0.72 0.28 1.7 0.76 1.7 0.72 1.4-2.6 4-1.7 6-1.9 4.8-0.6 9.7-1.3 15-1 2.7 0.16 5.6-0.8 8.3 0.84 1.6 0.96 3.4 0.32 5.1-0.92 2.9-2.1 4.5-1.5 6.3 1.8 0.84-0.56 1.7-1.2 2.6-1.8 0.52 0.64 1 1.2 1.6 2 1-0.36 2-0.76 3-1.1 1 1.2-0.4 4.2-2 4.6-1.3 0.28-2.6 0.32-4 0.44-1.6 0.12-3.2 0.16-4.8 0.36-2.9 0.36-2.9 0.4-3.1 3.8 5.1 0.08 10-1 15 1-0.88 0.08-1.8 0.2-2.6 0.28-7.7 0.56-15 1.3-23 1.6-5.2 0.2-10-0.32-16-0.52 2.9-0.8 5.8-2.1 8.7-2.2 4-0.2 8.1 0.52 12 0.72 2.6 0.12 3-0.36 3-3.8-1.2 0.12-2.3 0.36-3.4 0.4-4.9 0.12-9.8-0.08-15 0.28-6.9 0.48-14 0.68-21 1.9-1.2 0.2-2.4 0-3.6-0.12-3.4-0.36-6.8-0.68-10 1.2-0.52 0.32-1.3 0.36-1.9 0.24-5.5-1.1-11-0.4-17-0.24-0.92 0.04-1.8 0.48-2.7 0.72 0 0.36 0.04 0.72 0.04 1.1 1.5 0.2 3 0.52 4.5 0.52 7.4-0.12 15-0.2 22-0.52 6.6-0.28 13-0.88 20-1.2 1-0.04 2.1 0.8 3.1 1.2-6.3 2-13 1.6-19 2-2.5 0.16-5 0.52-7.5 0.48-7-0.08-14-0.44-21-0.36-4.1 0.04-8.2 0.64-12 1-0.64 0.04-1.3 0.4-1.9 0.28-6.9-1.3-14-0.16-21-0.16-1.2 0-2.6-0.12-3.2 1.6-0.6 1.6-1.7 1.4-3 0.24-0.84-0.8-2.2-1.4-3.4-1.5-3.2-0.24-6.4-0.16-9.6-0.12-4.2 0.08-8.5 0.24-13 0.4-0.4 0-0.8 0.4-2 1 3.7 0.32 6.5 0.52 9.3 0.76 0 0.28-0.04 0.56-0.04 0.84-11 0.36-22 0.72-34 1.1 3.4-2.3 6.6-2.4 9.9-2.2 3.4 0.2 6.8 0.36 10 0.48 0.4 0 0.84-0.4 1.6-0.8-1.9-2-4-2.3-6.2-2.1-2.6 0.28-5.3 0.6-7.9 0.76-1.6 0.08-3.3 0.16-3.7-1.2-3.1 0.36-5.9 0.76-8.8 1-0.4 0.04-0.84-0.84-1.6-1.6 1.4-0.48 2.4-0.8 3.6-1.2-0.52-0.56-0.76-1-1-1-2.9-0.04-5.8-0.04-9.2-0.04-0.44 1.2-0.84 2.4-1.3 3.8-2.7-0.08-2.7-0.08-3.1-3.2-4.8-0.32-9.6-0.6-13 4.9-0.12-2.1-0.16-3-0.24-4.4-1.5-0.12-3-0.32-4.6-0.36-2.3-0.04-4.5 0.24-6.8 0.04-2.6-0.2-5-0.12-6.8 2.2-1.8-1.1-3.4-2.2-5-3.1-2.4 2.1-5.4 2.3-8.3 2.8-1.8 0.28-3.7 0.32-5.5 0.52-0.8 0.08-1.6 0.44-2.3 0.44-4.4 0.08-8.8 0.16-13 0.079-3.4-0.04-6.8-0.4-10-0.44-0.8 0-2.2 0.28-2.4 0.8-1.2 2.9-3.6 2.8-6 2.8h-3c2.2-0.92 4.1-1.7 6-2.4-0.08-0.28-0.2-0.56-0.28-0.88-7.7-1.5-15 0.24-22 4.3 0.52 0.92 1.1 2 1.7 3.1-1.4 0.68-2.7 1.3-4.5 2.2 1.1 0.76 1.7 1.2 2.8 2-2.5 0.84-4.5 1.5-6.6 2.2 3 0.96 5.8 3.2 9 0.16-0.92-1.8-0.92-3.3 1.8-3.4-0.84-1-1.6-2-2.5-3zm107 43c-0.28-0.88-0.32-2.2-1.8-1.6-0.28 0.12-0.32 0.84-0.56 1.5h2.4c-0.2 0.68-0.44 1.3-0.8 2.4 2-1.4 2-1.4 0.72-2.3zm-14 18c0.52-0.68 1-1.3 1.8-2.3-1.2-0.04-2-0.08-2.7-0.12-0.24-1.9-1.9-1.4-3.2-2.5 0.28 2.8 1.5 3.1 3.3 2.4 0.28 0.88 0.6 1.8 0.88 2.7-1.2-0.36-2-0.12-2.2 1.5 1.6 0.48 2.3 0.12 2.2-1.6zm-176-5.4c-0.52-0.6-1-1.2-1.6-1.8-2.2 0.12-4.4 0.2-6.6 0.32v1c2.7 0.88 5.4 1.4 8.2 0.48-0.12 0.24-0.36 0.44-0.4 0.68-0.08 0.6 2.2 3.8 2.7 3.7 0.44-0.04 1.1-0.32 1.3-0.68 0.2-0.32 0.08-1.1-0.2-1.4-1.1-0.88-2.2-1.6-3.4-2.4zm-33-51-6.8 0.12c0 0.24 0.04 0.44 0.04 0.68 2.5 0.12 5 0.24 7.8 0.36-0.52-0.56-0.84-0.92-1.2-1.3h6.2c0.16 1 0.28 1.7 0.32 2.2 4.6 0 9 0.04 13-0.04 1.5 0 3-0.24 2.4-2.8-3.1 2-3.4-1.4-5-2.6-0.68 0.4-1.7 0.6-2 1.2-0.92 2-2.6 2.1-4.4 2-1.2-0.04-2.4-0.4-3.5-0.4-2.4 0.08-5-1.2-7.3 0.52zm41 24c-1.2-2.1-2.7-3.1-5.4-2.5-2.2 0.52-4.6 1-6.7-0.84-0.52-0.44-1.8 0.04-3.4 0.08 1.1 2.7 2 4.8 2.9 7.1-0.16-0.04 0.12 0.04 0.36 0.12 2.1 0.68 1.7-2.4 3.1-2.2 1.3 0.2 2.5 1.6 3.8 1.6 3.5 0.16 7.1-0.039 11-0.16 0.76-0.04 1.5-0.28 3.1-0.6-2.6-0.44-4.2-0.72-5.8-1 0.2-1.2 0.32-2 0.52-3.4-1.4 0.72-2.3 1.2-3.2 1.6l0.08 0.08zm-16 5.5c0.32-0.6 0.92-1.3 0.8-1.5-1.6-2.3-3.3-4.6-4.9-6.8-2 0.12-3.7 0.24-6.1 0.44 1.9 2 3.2 3.4 4.4 4.6-1.1 0.44-2.3 0.88-3.6 1.4a370 370 0 0 1-2.7-6.3c-1.4-0.32-2.2 2.8-4.2 0.56 0.64-0.44 1.2-0.96 1.8-1.2 1-0.28 2.3 0 3.1-0.52 1.4-0.88 2.7-2 3.6-3.4 0.84-1.3-0.36-2-1.5-2.7-0.36-0.2-0.44-1.6-0.12-2 0.36-0.48 1.8-0.84 2-0.56 1.1 1.1 1.9 2.4 3.1 4.1 2.9 0.32 2.9 0.32 3.1 3.8 5.9 0.44 5.9 0.44 7.6-4.3 0.8 1.4 1.4 2.4 2.1 3.6 1.9-0.56 4.7 1.6 5.9-1.8-4.4-2.6-3.6-6.4 1.5-8.5-0.96-0.72-2-2-2.5-1.8-1.8 0.72-3.6-1.6-5.3 0.08-0.52 0.52-1.4 0.88-2.1 1-3.2 0.4-6.3 0.64-9.5 0.96-1.8 0.2-3.6 0.52-5.5 0.56-3.2 0.12-6.4-0.12-9.6 0.12-5.4 0.44-11 1.1-16 1.7-0.6 0.08-1.2 0.44-2.6 1 2 0.36 3.2 0.56 4.3 0.76-3.9-0.64-4.2 2.3-4.6 5-2.1-0.64-4.2-0.4-5.3-2.6-0.92-1.8-2.2-1.1-3.2 0.08-1.1 1.4-2.1 2.8-3.8 5 2.8-0.28 4.7-0.4 6.6-0.68 2.4-0.36 4.7-0.8 6.8 0.8 1.6 1.2 3 1 4.7-0.04 2.8-1.7 5.8-2.8 9.2-1.6-0.52 1.8-2.2 1.2-3.3 1.7-0.12 0.04-0.12 0.36-0.2 0.6 0.84 0.2 1.6 0.4 2.4 0.6-3.7 0.96-7.4 1.3-11 1.7-1.7 0.2-3.7 0.16-5 1.1-3.2 2.2-6.1 2.4-9.6 0.88-1.5-0.64-3.6-0.12-5.3-0.12-0.2 1.4-0.28 2.2-0.48 3.6-1.8-0.64-3.4-1.2-4.8-1.7l-4.1 1.9c-0.16-0.2-0.28-0.44-0.44-0.64 0.36-0.76 0.68-1.5 1-2.2-1.9-0.8-2.8 0.12-3.8 1.4-0.92 1.2-3.2-0.68-4.2 1.8 1.4 0.12 2.7-0.12 3.6 0.32 2.4 1.2 4.6 0.64 7 0.16 1.9-0.4 4-0.16 5.8 0.4 0.52 0.16 1.2 1.3 2.2 1.3 3-0.04 6.1-0.16 9.1-0.16 2.1 0 4.8-0.56 6.2 0.44 2.2 1.6 3.2 0.68 5-0.4 1.7-1 3.9-2.2 6.1 0.08 1.1 1.2 3.2 1.6 4.4-0.52 0.8-1.4 2.1-1.5 3.4-1.4 2.2 0.24 4.5 0.52 6.8 0.8 3.1-3.9 7.2-2 11-1.3zm-2.8 14c2.3-0.96 4.2-1.9 6.7-1.3 1.4 0.32 3.1 0.12 4.5-1.6-2.1-0.2-3.8-0.4-6-0.6 3.8-2.6 4.6-2.6 7.8 0 1.9-4 5.3-1 8-2.1v2h10v-0.32c-1.3-0.32-2.6-0.64-4-0.96-0.2-0.96-0.4-1.9-0.64-3-0.72 0-1.4-0.2-1.7 0.04-2.8 1.7-5.4 1.1-8.2-0.36-1.7-0.84-4-1.1-5.5 0.72-1.5 1.7-2.5 1.4-4.3 0.16-1.3-0.84-3.5-0.64-5.2-0.32-1.4 0.24-1.8 1.4-1.6 3.1 0.12 0.96-1.2 2.1-1.8 3-2.8-1.5 0.36-3.4-1.6-5.4-1.2-0.12-3-0.64-4.8-0.52-5.2 0.4-10 1-15 1.6-0.52 0.04-1.1 0.16-1.5 0.48-4.3 3.2-8.9 3.4-14 1.8-1.1-0.36-2.3-0.28-3.5-0.36-0.16 0-0.32 0.24-0.6 0.44 0.92 0.36 1.7 0.68 2.5 1v0.8c-2 0.08-4 0.16-6.2 0.24 1.4 4.2 1.4 4.3 5.1 4 2.4-0.16 4.7-0.6 7.1-0.72 5.7-0.2 11-1.8 17 1.1 0.84-1.1 1.6-2.1 2-2.5 2-0.32 3.3-0.6 4.6-0.76 1-0.12 2.2-0.36 3.1-0.08 2.7 0.8 5.9 0.68 7.2 4.2 0.24-0.16 0.48-0.32 0.76-0.48-0.12-1-0.2-2.1-0.32-3.4zm-29-51c-1.6 0.56-3.1 1-4.6 1.6 0.04 0.24 0.12 0.48 0.16 0.76 1.6 0.16 3.2 0.36 4.8 0.52-11 0.84-22 1-33 1.2-1.3 0.04-2.9-0.36-4.3 1.3 4.9 1.8 9.7 1.3 14 1.3 3.2 0 6.5-1.9 9.7 0.12 0.2 0.12 0.6 0.08 0.76-0.04 1.9-1.5 4.1-0.44 6.2-0.76 3.2-0.52 6.3-0.96 9.4-0.08 0.36 0.08 0.84 0 1.2-0.16 4.6-2.4 9.6-1.7 14-2.2 2.6-0.24 4.8-0.92 6.9-2.6h-4.6v-0.44c2.2-0.28 4.4-0.52 6.7-0.8-1.8-3.4-1.8-3.4 2.3-4.7-5.1-0.88-52 2.6-56 4.3h9c2.8-0.04 5.8-0.8 8.3 0.08 3 0.96 5.7-2.6 8.6 0.6v-1e-3zm220 41c-1.6 0.88-3.9-0.52-5 1.7 0.24 0.2 0.36 0.36 0.44 0.36 5.4 0.64 10-2.5 15-2.7 0.2 0 0.36-0.36 0.56-0.56 2-2.1 4.4-2.1 7.2-1.4-0.32 0.76-0.76 1.3-0.76 1.9 0 0.8 0.08 2 0.56 2.4 1.1 0.64 1.8 0.08 2.2-1.2 0.4-1.1 1.4-2.6 2.4-2.8 2.2-0.52 2.5-2 2.7-3.8h3.9c0.2 1.2 0.4 2.4 0.6 3.7-1.5 0.32-2.9 0.6-4.3 0.88 0 0.16 0.04 0.36 0.04 0.52h7.5c0.16-1.8 0.44-3.6 2.4-4.2 1.6-0.52 3.3-0.88 4.9-1.3-2.4-1.9-4.9-2.4-7.4-2.4-7.8 0.2-16 0.48-23 0.72-0.48 0-1 0.2-1.6 0.36-0.24 3 2.3 1.5 3.5 2.6-2.5-0.04-4.2 2.5-7.1 1.5 0.28-1.2 0.52-2.2 0.76-3.3-2.8-1.4-4.4-1.2-4.9 0.6 0.44 0.56 0.88 1.2 1.5 2-1.1 0.64-2 1.1-2.7 1.5 0.24 1.2 0.4 2.1 0.52 2.9zm-137-12c1.3-0.44 2.6-1.3 4-1.3 2.5 0.08 5 0.28 7.4-0.92 1.9-0.96 3 3 4.8 1.2 1.5-1.6 3-1.8 4.8-1.8 0.96 0.04 2-0.24 2.9-0.36-0.72-0.96-1.5-1.4-2.3-1.4-7.5 0.28-15-0.76-22-0.36-8.4 0.44-17-0.28-25-0.48-2-0.04-4 0.16-5.9-0.12-1.1-0.16-2-0.24-2.2 0.8-0.24 1.2 0.28 2.6 1.8 2.4 1.7-0.16 3.4-0.48 4.9-1.2 1.6-0.76 3-0.68 4.6 0 6 2.6 12 2 19 0.84 1.2 0.68 2.9 1.6 4.5 2.6zm88-50c2.8-0.04 5.4 0 8.1-1.5 2-1.1 5.1-2.5 7.6 0.4 0.52 0.6 2 0.52 3 0.56 2.1 0.08 4.2 0.04 6.3 0.04 1.2-0.92 2.5-1.8 3.9-2.8a142 142 0 0 0 2 3.6c0.8-1.4 2.4-2.4 4.4-3.2 0.4-0.16 1-0.88 0.92-1.1-0.28-0.64-0.8-1.6-1.3-1.6-3.1-0.16-6.4-1.2-9.1 1.2-0.64-1-1.2-2-2.1-3.3-1.4 1.1-2.2 2.6-4.2 2.2-6-1.3-12 0.56-18 1.7-1.7 0.32-2.9 1.3-2.1 3.8zm-61 27c1.2-1.1 3.4-2.2 3.3-3.1-0.2-3.3 1.9-2.8 3.8-3.1 0.84-0.12 1.7-0.32 2.4-0.48 0-0.6 0.12-0.96 0-1.1-1.3-1.4-4.2-1.8-5.7-1.2-0.92 0.44-1.9 0.68-3 0.88-1.1 0.2-2.3 0.2-4.2 0.32 1.6 1.4 2.6 2.3 4.1 3.7-4.8-0.08-8.8 0.92-13-0.64 0.4-3.7-0.04-4.1-3.4-3.1-1.5 0.44-3 0.92-4.4 1.4l-1.7-1.4c-2.3 2.8-6.6 2.1-9 5.4 1.3 0.28 2.2 0.76 2.7 0.52 1.8-1 3.4-0.24 5.2 0.24 2.9 0.8 6 1.3 9 0.2 4-1.4 9.8-1 14 1.5zm155-24-0.12 0.96c2.1 0.48 4.2 1.4 6.2 1.3 5.8-0.32 12-1.1 17-1.7 1.9 0.24 3.5 0.68 5.1 0.56 3.8-0.28 7.6-1 11-1.2 4.8-0.2 9.5 0.04 14 0 0.92 0 1.8-0.36 2.8-0.52-0.36-2.1-1.7-2.1-2.8-2-2.9 0.12-5.8 0.44-8.7 0.52-8.2 0.24-16 0.36-25 0.64-3.2 0.12-6.4-0.44-9.1 1.7-4.4-1.8-7.6-1.9-12-0.32zm-218 30c0-0.24 0-0.48-0.04-0.72-2.3-0.24-4.7-0.8-7-0.72-8.3 0.28-17 0.12-25 1.2-6.3 0.8-13 1.3-19 2-0.68 0.08-1.3 0.6-1.9 0.92 6.4 0.52 12 0.96 18 0.4 5.4-0.52 11-1.4 16-1.7 2.5-0.16 5 0.28 7.3-1.3 0.44-0.32 1.3-0.08 2-0.08l8.7 1e-3zm23 6.4c-2.6 0.56-4.2-0.04-5-2.2-0.16-0.4-1.4-0.64-2.2-0.56-2.9 0.2-5.8 0.52-8.3 0.8-0.84 1.8-1.5 3.2-2.2 4.7 5.8 1.6 11 0.64 17-0.68 0.28-0.16 0.4-0.92 0.92-2zm157-48c-4.7-0.16-9.2-1-13 1.3-1.8 1-3.3 1.8-5.3 1.4-0.68 2.2 0.44 2.9 1.4 3.4 1.6-0.68 2.9-1.8 3.8-1.5 1.1 0.36 1.9 1.9 2.4 2.4 3.5-0.76 6.4-1.4 9.4-2 0.44-1.4 0.88-2.9 1.5-4.9zm-150 73c1.6 3.6 3.1 3.9 7.4 2.2-0.4-1.1-0.8-2.2-1.2-3.2-1.3-0.48-2.6-0.72-3.7-1.4-1.4-0.92-2.5-0.88-4-0.16-2.6 1.2-5.5 1.9-8.5 1.2-0.72-0.16-1.6 0.2-2.8 0.36 3.4 2.4 6.9 4.1 8.3 4v-2.2c1.5-0.24 2.9-0.44 4.5-0.68zm45 4.1c0.68-0.72 1.8-1.8 2.8-3-1.6-4.3-1.6-4.3-4.4-3.5-0.2 1.4-0.4 2.7-0.68 4.8-1.4-2.9-3.6-0.04-5.2-1.8-1.3-1.3-3.7-1.6-5.4-2.2-0.92 1.2-1.7 2.1-2.9 3.5 5.1 0.76 10 1.4 16 2.2zm72-10c-1.7 0.2-2.6 0.24-3.4 0.4-0.76 0.16-1.7 0.84-2.2 0.56-3.2-1.9-5.8 0.32-8.4 1.3-2.5 0.92-2.6 3.1-0.72 5 1.7 1.6 3.6 2 6.2 1.2a260 260 0 0 1-2.2-4.7c1.1-0.2 2.1-0.72 2.5-0.4 2.4 1.8 4.1-0.52 6.2-0.76 0.56-0.08 1-1.3 1.9-2.6zm-175 20c-0.16-1.6-0.28-2.8-0.44-4.1-0.2 0.04-0.44 0.041-0.64 0.08-0.8 2-1.6 4-2.4 6.1 1.1 0.16 2.1 0.28 3.1 0.44a1e3 1e3 0 0 0-7.6 4.8c0.04 0.28 0.12 0.52 0.16 0.8 3-0.2 6-0.4 9.5-0.64-0.96-3.2 0.88-4.8 2.8-6.1-0.84-3.1-2.8-1.5-4.5-1.4zm273-26c0.44 0.32 0.64 0.6 0.88 0.6 1.8 0.12 2.3 1.1 1.8 2.7-0.44 1.6-1.6 2-3.1 1.5-0.72-0.24-1.4-0.92-2.1-0.96-0.52-0.04-1.1 0.64-2.5 1.5 4 1.2 7.2 2 11 1.8 0.12-2.8 3.6-4.8 0.8-7.7-2-2-3.2-1.8-6.7 0.64zm-17 0.24c-3.5-0.92-7-0.96-11-0.52-0.68 0.08-1.9 1.3-1.8 1.6 0.32 0.88 1.2 1.5 1.8 2.2-0.6 0.32-2.1-0.08-2 1.9 0.16 2.2 1.6 2 2.5 2.2 1.9-2.3 3.6-4.3 5.2-6.2 3.6 2.2 4.1 2 4.8-1.1zm-211-30c2 0.88 3.3 1.8 4.7 2 1.9 0.24 3.9 0.2 5.7-0.28 1.6-0.44 1.8-2 1.3-3.9-3.6-0.2-7.2-0.36-11-0.52-0.32 1.2-0.6 2-0.84 2.7zm127 34c2.8 1.8 5.6-0.32 8.4-0.081 2.8 0.24 5.6 0.2 8.3-0.24 2.7-0.44 5.7 1.2 8.2-1-1.4-0.28-2.8 0.039-4.1-0.16-2.1-0.32-4.7-2-6.1-1.3-2.3 1.2-4.4 1.5-6.8 1.3-2-0.12-3.9-0.32-5.9-0.52-1.4-0.16-2 0.48-2 2zm-124-5.5c1.5 2.4 2.3 2.9 4.6 3l5.8 0.12c1.4 0.04 2.6-0.28 3-2.1-2.2-0.88-4.5-2.7-6.4-2.4-2.2 0.44-5-1.7-7 1.4zm-18-17c0.8 0.32 1.3 0.72 1.7 0.64 3.1-0.52 6.2-0.96 9.3-1.7 2-0.48 3.8-0.56 5.7 0.64 1.6 1.1 3.3 0.56 4.9-0.4-1.4-0.84-2.8-1.3-4.3-1.5-1.2-0.16-2.4 0.08-3.6 0-3-0.2-6-0.48-9.1-0.64-2-0.16-3.6 0.56-4.6 3zm288-33c3 1.9 5.7 0.12 8.4 0.24 2.6 0.12 5.3 0.28 7.9-0.04 2.6-0.32 5.4 1.1 8.2-1.1-3.4-1.5-6.6-1.1-9.6-0.44-2 0.44-3.8 0.52-5.8 0.04-3-0.8-6.3-1.8-9.1 1.3zm-47 74c0.84 0.92 1.4 1.6 2.1 2.3 1.4-1.6 2.9 0.8 4.6 0.039-1.3-3.8-0.24-7.1 2.3-9.9-1-1.3-2.3-2-3.1-0.8-0.52 0.76 0.04 2.2 0.16 3.6-1.7 2.3-4.9-1.9-7 1.3 1.1 0.16 1.8 0.28 2.6 0.36 1.2 0.12 2.7-0.12 2.6 1.6-0.12 1.5-1.5 1.1-2.5 1-0.36 0.04-0.72 0.24-1.7 0.52zm-203-13c-0.04 0.28-0.12 0.6-0.16 0.88 3.6 2.4 7.2 4.4 12 4-1.1-2.1-3-3.5-1.1-5.4-3.4-0.96-3.4-0.96-4.6 1.1-2.2-0.2-4.3-0.36-6.4-0.56zm96-32c-5.4 0.44-11-0.44-16 2.8 1 0.48 1.4 0.8 1.6 0.76 3.9-1 7.8-0.4 12-0.4 2-0.04 2.7-1.2 3-3.2zm65 14c-0.32 0.12-0.64 0.28-0.96 0.4 0.64 1.4 1.2 2.8 2 4.2 0.2 0.36 0.92 0.76 1.4 0.68 2.2-0.32 4.4-0.8 6.7-1.2-0.56-1.6-1.1-3.1-1.6-4.6-2.7-0.2-3.4 1.6-3.7 4.7-1.7-1.8-2.8-3-3.8-4.1zm78-34c-2.4 0-4.9 0.16-7.3-0.04-3.9-0.32-5.6-0.04-6.9 1.5 4 0.8 12 0.36 14-1.5zm-35 1.6c3.4 1.4 15 0.68 18-1.2-6.2 0.52-12-0.56-18 1.2zm-123 53c2.8 0.56 5.1 1 7.4 1.4 1.1 0.2 1.8-0.08 1.6-1.4-3.4-0.88-3.4-0.92-7.4-4.5-0.6-0.52-1.9-0.32-2.8-0.36-0.2 0-0.4 0.52-0.72 0.96 0.92 0.4 1.7 0.72 2.4 1-0.2 0.92-0.36 1.7-0.6 2.8zm-191-51h7v-3.5c-2.3 0.2-4.3 0.36-6.6 0.56a41 41 0 0 1-0.4 2.9zm258 52c-0.2 1.2-0.32 2.2-0.48 3.1 0.84-0.64 1.5-1.1 2.1-1.6 0.44 0.64 0.96 1.3 1.4 2 0.2 0.32 0.2 0.76 0.28 1.1 0.44 2.3 1.7 2.2 3.6 1.3-1-2-1.9-3.6-2.8-5.6a92 92 0 0 1-4-0.36zm75 10c-0.44-1.4-0.76-2.5-1-3.5h-6.9c2.8 1.8 4.2 4.7 8 3.5zm-32-25c6.4 2.1 7 2 9.2-0.48-3.2-0.6-6.2-0.72-9.2 0.48zm-178-23c0.04-0.48 0.04-0.92 0.08-1.4a37 37 0 0 0-12-0.12c0 0.28-0.04 0.6-0.04 0.88 3.8 0.24 7.7 0.44 12 0.64zm181 27c-0.12 0.32-0.2 0.64-0.32 0.92 1.1 0.6 2.5 0.92 3.3 1.8 0.84 0.96 1.4 1.6 2.5 0.76 0.48-0.4 0.72-1.4 0.68-2-0.04-1.3-1.1-1.7-2.3-1.6-1.3 0.04-2.6 0.12-3.9 0.2zm-275 30c1.1-1.2 2.2-2.4 3.2-3.7 0.96-1.3 0.44-2.6-1.1-2.8-0.84-0.16-1.7-0.04-2.8-0.04 0.2 2.4 2.2 4.3 0.8 6.6zm73-58c-3.5-1.9-8.6-1.9-11-0.44 1.3 1.2 2.6 1.5 4.3 0.84 1.2-0.48 2.8-0.32 4.1-0.4h2.3zm196-45c-1.3-0.88-2.3-1.5-3.2-2.2-0.36 0.08-0.76 0.16-1.1 0.24 2.7 2.5 2 5 0.24 7.8 4.1-0.68 3.3-3.7 4.1-5.8zm-3 100c1 0.16 2.2 0.32 3 0.44 0.16-1.6 0.28-2.7 0.4-4-1-0.4-2.3-0.92-3.7-1.4 0.12 1.7 0.2 3.1 0.28 5zm-76-23c0.96 0.2 1.9 0.64 2.1 0.36 1.9-1.9 4-2.4 6.7-1.1-1.4-3.9-3.3-3.7-8.8 0.72zm-143-38c2.5 1.4 5.2-1.1 7.8 0.12 0.04 0.04 0.4-0.56 0.72-1-3-1.8-5.8-0.84-8.5 0.92zm298-20c1.8 2 3.9 1.4 5.9 1.4 0.28 0 0.56-0.96 0.92-1.7-1.5 0-2.6-0.04-3.8 0-1 0.04-2 0.2-3 0.28zm-154 59c3.2 1.3 1.6 4 2.2 7 1-1.8 2-3.6 3-5.4-1.4-1.3-2.5-2.8-5.2-1.6zm129 4.8c-5.1-0.84-5.1-0.84-6.7 0.32 4.2 2.1 4.6 2.1 6.7-0.32zm-273-18c0.44 3.9 1.4 4.4 4.8 2.5-1.2-1.4-2.3-2.8-4.8-2.5zm138 34c0.16 2.3 1 3.6 3.6 3.2-0.08-0.76-0.24-1.4-0.16-2 0.08-0.52 0.44-0.96 0.88-1.8-1.2 0.04-2 0.04-2.8 0.16-0.52 0.08-0.96 0.32-1.6 0.52zm98-70c0-0.4-0.039-0.8-0.039-1.2-2.7 0.36-5.4 0.72-8.2 1.1 2.8 0.68 5.6 1.1 8.2 0.12zm80-11c-0.08-1-0.12-2-0.24-3.5-1.9 0.6-3.9-0.56-5.3 1.7a181 181 0 0 1 5.6 1.8zm-265 26c0 0.16 0 0.28-0.04 0.44 1.8 0.43 3.5 0.88 5.2 1.4 1.5 0.4 2.8 0.56 3.4-1.8h-8.6zm165-42c-2.8-2.9-3.5-2.8-5.8 0.8 2-0.28 3.6-0.48 5.8-0.8zm-121 100c-1.5-0.96-2.6-1.5-3.5-2.2-1.7-1.3-2.2-0.2-2.8 1.2 1.9 1.4 3.7 2.2 6.3 1zm184-18c-0.84-2-2.5-1.5-3.8-1.5-0.4 0-0.84 0.72-1.6 1.4 2.1 0.88 3.7 2.5 5.4 0.12zm-88-2.9c-2.2 0.68-1.5 2.1-1 3 0.68 1.3 2 1.8 3.7 1.3-1-1.6-1.8-2.9-2.7-4.3zm-192-26c-1.3-0.88-2-1.8-2.6-1.6-0.68 0.16-1.5 1-1.7 1.7-0.36 1.2 0.8 1.6 1.7 1.5 0.64-0.08 1.2-0.76 2.5-1.6v1e-3zm-5.4-15c0.24-0.2 0.44-0.44 0.68-0.64-0.56-0.76-1-2-1.7-2.2-1.3-0.2-3.1-0.96-4.2 1.1 1.9 0.64 3.6 1.2 5.3 1.7zm152 50c-2.2-1.4-3.7-1.7-5.7-0.52 1.7 1.4 3.1 1.9 5.7 0.52zm107-7.2c-1.4-0.36-2.8-1.6-3.7 0.36-0.16 0.36 0.24 1.3 0.64 1.6 1.9 1.2 2.3-0.56 3.1-2zm-241-17c-1.4-0.4-2.9-0.8-4.3-1.2 0.64 2.7 2.1 2.9 4.3 1.2zm37 16c0.56-1.3 1.2-2.6 1.8-4.2-3.4 0.48-3.4 0.48-1.8 4.2zm163-17c0 0.24 0 0.48-0.04 0.76h5.7v-0.76h-5.6zm-290 21c-2-1.2-2.9 0.04-4.4 0.76 1 0.72 1.7 1.2 2.6 1.8 0.6-0.84 1.1-1.6 1.8-2.6zm214-40c2.8 1.5 4.7 0.52 7 0.24-2.3-2.8-4.2-0.72-7-0.24zm-149-2.1c1.4-0.96 2.4-1.6 3.8-2.6-4.2-0.96-4.4-0.88-3.8 2.6zm-60 15c-0.96 0.55-1.9 1.1-2.9 1.6 0.44 0.68 0.88 1.4 1.4 2 0.08 0.08 0.44-0.08 0.88-0.16 0.16-0.88 0.36-1.8 0.68-3.4h-1e-3zm80 18c-0.32 1.9 0.24 2.6 1.6 2.5 1.2-0.08 2.4-0.28 2.1-2.1-1.2-0.12-2.4-0.24-3.8-0.36zm262 22v-4.3c-3.4-0.24-0.8 2.7-2.9 3.3 1.3 0.48 1.9 0.68 2.9 1zm-288-1.2c1.8-1.6 1.8-1.6-0.28-3.6l0.28 3.6zm297-79c-0.08-0.36-0.12-0.68-0.2-1-1 0.2-2.1 0.4-3.1 0.6 0.08 0.32 0.12 0.68 0.2 1 1-0.2 2-0.4 3.1-0.56zm-0.08 6.6c1.2 1.2 2 1.1 3.1-0.12-1.1-1.1-2-1.2-3.1 0.12zm-230 5.8c0-0.52 0-1 0.04-1.5l-4.9 0.36v0.4c1.6 0.28 3.2 0.52 4.9 0.76zm-73 65c-0.32 2-0.6 3.9 2.6 3a874 874 0 0 0-2.6-3zm319-77v-1.3c-0.88 0.08-1.8 0.08-2.6 0.24-0.12 0.04-0.2 0.6-0.36 1.2a50 50 0 0 0 3-0.2zm-289 22c-0.04 0.32-0.04 0.64-0.08 0.96 1.4 0.48 2.8 1.4 5-0.6-2.2-0.16-3.6-0.28-5-0.36zm264 44c0.12 0.32 0.2 0.64 0.32 0.96 1.2 0.48 2.3 0.92 2.8-1.1 0.04-0.2-0.16-0.44-0.4-0.96-0.92 0.4-1.8 0.76-2.7 1.1zm-43-58c0.08-0.32 0.12-0.64 0.2-0.96l-5 0.24v0.48l4.8 0.24zm-23-0.12c0.08 0.24 0.16 0.48 0.2 0.72 1.1-0.16 2.2-0.28 3.2-0.44-0.04-0.28-0.08-0.52-0.12-0.8-1.1 0.2-2.2 0.36-3.3 0.52zm137-12c0.12 0.36 0.2 0.72 0.32 1 0.76-0.32 1.6-0.6 2.3-0.92-0.08-0.24-0.16-0.52-0.24-0.76-0.8 0.2-1.6 0.4-2.4 0.64zm-184 86c0-0.4-0.04-0.76-0.04-1.2-1.1 0.12-2.2 0.2-3.2 0.32 0.04 0.28 0.04 0.56 0.08 0.84h3.2zm59-42c1.6 0.8 2.7 2 4.5 0.44-1.4-1.2-2.5-1.6-4.5-0.44zm-215 37c0.079-0.36 0.16-0.68 0.24-1-1-0.24-2-0.52-3.4-0.84 0.48 3.1 1.8 2.4 3.1 1.9zm17-71-0.12-0.84c-1-0.08-2.1-0.6-3.2 1.4 1.4-0.24 2.4-0.4 3.3-0.52zm4.4 27c0.08-0.36 0.16-0.72 0.24-1-0.92-0.08-1.8-0.2-2.8-0.2-0.16 0-0.32 0.6-0.68 1.2h3.2zm58 23c-1.2 0.24-2.1 0.4-3.5 0.68 1.8 1.6 2.8 2.1 3.5-0.68zm-9.9 33c-2.4 0.84-2.4 0.84-1 2.9 0.36-1.1 0.68-2 1-2.9zm159-51c1.4 1.9 2.2 2.5 4.4 0.88-1.7-0.32-2.6-0.52-4.4-0.88zm-108 28c2.1-0.36 2.5-1.3 1.3-3.4-0.6 1.6-0.96 2.5-1.3 3.4zm73-30c0.04 0.36 0.04 0.68 0.08 1 0.92-0.16 1.8-0.32 2.7-0.48 0-0.2-0.04-0.36-0.04-0.56h-2.8zm-258-4.2c0.08-0.24 0.16-0.48 0.2-0.72-0.72-0.2-1.4-0.4-2.1-0.6-0.08 0.24-0.16 0.52-0.2 0.76 0.72 0.16 1.4 0.36 2.1 0.56zm109 0c-0.36 0.92-0.72 1.4-0.72 2 0 0.28 0.84 0.8 1.1 0.68 0.48-0.16 0.8-0.72 1.2-1.1-0.44-0.4-0.84-0.8-1.6-1.5zm6.8 11c-0.16-0.24-0.32-0.44-0.48-0.68-0.48 0.16-1 0.2-1.4 0.52-0.36 0.32-0.48 0.88-0.72 1.4 0.16 0.08 0.28 0.2 0.44 0.28 0.72-0.52 1.4-1 2.1-1.5zm210-41c0.08-0.28 0.16-0.6 0.24-0.88l-1.8-0.36c-0.04 0.16-0.12 0.36-0.16 0.52 0.56 0.24 1.2 0.48 1.7 0.72zm19-5-0.36-1.3c-0.8 0.32-1.6 0.64-2.4 0.96 0.12 0.32 0.2 0.6 0.32 0.92 0.8-0.16 1.6-0.36 2.4-0.56zm-18 66c0.04-0.2 0.08-0.36 0.12-0.56-0.56-0.16-1.2-0.28-1.7-0.44-0.04 0.24-0.12 0.64-0.08 0.64 0.56 0.16 1.1 0.24 1.7 0.36zm-319-36c-2-0.84-2-0.84-2.6 1 0.92-0.36 1.6-0.64 2.6-1zm3.8 52v0.64c0.2 0.12 0.48 0.44 0.6 0.36 0.4-0.16 0.72-0.48 1-0.72-0.52-0.04-1.1-0.16-1.6-0.28zm357-20c0.08-0.24 0.12-0.48 0.2-0.72-0.96-0.2-1.9-0.44-2.8-0.64-0.04 0.28-0.12 0.56-0.16 0.84 0.92 0.2 1.8 0.36 2.8 0.52zm-111 22c-1.2 1.4-1.2 1.4-0.32 2.7 0.16-1 0.2-1.7 0.32-2.7zm-120 7.5c-0.68-0.44-1.1-0.8-1.6-1-0.12-0.04-0.44 0.48-0.68 0.72 0.44 0.36 0.84 0.76 1.3 1 0.08 0.08 0.48-0.36 0.96-0.76zm17-17c1.7 1.7 2.3 1.7 2.5 0.2a49 49 0 0 1-2.5-0.2zm32-0.76-0.36 0.48c0.44 0.48 0.92 0.92 1.4 1.4l0.72-1.2c-0.56-0.24-1.2-0.44-1.7-0.68zm22 11c0.28 0.16 0.52 0.32 0.8 0.48 0.2-0.6 0.4-1.2 0.64-1.8a5.3 5.3 0 0 1-0.72-0.28l-0.72 1.6zm-19-5.2c-0.2-0.24-0.4-0.52-0.6-0.76-0.4 0.36-0.84 0.76-1.2 1.2 0 0 0.36 0.52 0.4 0.48 0.49-0.26 0.96-0.55 1.4-0.88zm-8.5-83c-0.2 0.12-0.4 0.24-0.56 0.36 0.12 0.16 0.24 0.48 0.4 0.48 0.16 0.04 0.36-0.2 0.56-0.32-0.12-0.16-0.24-0.32-0.4-0.52zm1 95c-1.2-1.2-1.2-1.2-2.5 0h2.5zm56-11c-0.64-0.28-1-0.6-1.2-0.52-0.28 0.12-0.64 0.52-0.64 0.8 0 0.24 0.52 0.76 0.6 0.72 0.36-0.2 0.68-0.52 1.2-1zm8.2-1.1c0.32 0.28 0.64 0.72 0.8 0.68 0.28-0.12 0.64-0.44 0.72-0.72 0.04-0.2-0.4-0.68-0.64-0.68-0.28 0-0.52 0.4-0.88 0.72zm-114-31c0.84-0.36 1.2-0.44 1.2-0.56 0.08-0.36-0.04-0.72-0.04-1.1-0.28 0.4-0.56 0.8-1.2 1.6zm0.12-35c-0.2 0.32-0.4 0.6-0.52 0.92 0 0.04 0.52 0.44 0.56 0.36 0.28-0.2 0.48-0.52 0.68-0.8-0.16-0.12-0.4-0.28-0.72-0.48zm135 59c-0.56 0.44-0.92 0.68-1.2 1-0.08 0.08 0.16 0.6 0.24 0.6 0.48-0.04 0.92-0.2 1.4-0.32-0.12-0.28-0.2-0.6-0.4-1.3zm28 6.6c0.08 0.2 0.12 0.4 0.2 0.56 0.72-0.2 1.4-0.44 2.2-0.64l-0.24-0.72c-0.76 0.28-1.4 0.56-2.2 0.8zm6.4-82c-0.16 0.12-0.32 0.28-0.52 0.4 0.16 0.12 0.36 0.28 0.56 0.36 0.04 0.04 0.28-0.16 0.28-0.2a2.6 2.6 0 0 1-0.32-0.56zm-301 41 0.12 0.84c0.56-0.12 1.1-0.2 1.6-0.32-0.04-0.16-0.04-0.32-0.08-0.48-0.56-0.04-1.1-0.04-1.7-0.04l1e-3 1e-3zm535 9.4c-1.6-1.9-4.9-2-4.5-5.2-2.8 0.08-5.5-1.6-7.8 0.56-0.2 0.2-0.24 0.56-0.4 0.96h3.5c0 0.24 0.04 0.48 0.04 0.72-2 0.28-4 0.6-6.1 0.88 0 0.16 0 0.32 0.04 0.48h7.7c-0.32 0.8-0.48 1.3-0.84 2.2 1.6-0.24 2.8-0.48 4-0.56 1.2-0.08 2.5 0 4.4 0zm3.8 5.6c-1-3.6-4.9-4.5-10-2.4 3.1 3.1 7.3 0.08 10 2.4zm-28 4.6h5.9c-1.9-1.6-3.9-1.7-5.9 0zm11-3.2c1.9 3.1 2.5 3.2 5.6 1.4-1.8-0.48-3.2-0.84-5.6-1.4zm35-13c-2-1.1-2.8-0.76-3.3 0.44-0.08 0.2 0.48 0.88 0.56 0.88 0.76-0.32 1.5-0.68 2.7-1.3z"/>
  <path d="m300 23c-1.6 0.6-4.1 1.6-6.7 2.5-1.1 0.36-2.3 0.64-3.5 0.68-6.1 0.24-12 0.52-18 0.56-2 0.04-3.9-0.52-5.9-0.72-1-0.12-2.1-0.04-3.1 0-0.8 0.04-1.6 0.48-2.4 0.28-6.2-1.8-13-0.24-19-0.24-6.2 0-12 0.44-19 0.64-2.8 0.08-5.5 0-8.3-0.2 2.1-1.2 4.6-1.6 6.8-0.76 2.6 0.96 4.8-0.28 7.8-0.32-1.2-0.88-1.9-1.4-3.2-2.3h9c0.52 0 1.3-0.12 1.6 0.2 2 2.8 4.8 1.4 7.2 1.3 2.2-0.08 4.4-1 6.6 0.16 0.32 0.16 0.8 0.04 1.2 0 5-0.48 10-1.1 15-1.4 4.9-0.28 9.8-0.28 15-0.32 6.7-0.08 13-0.039 19-0.039zm223 77c-1.1-0.56-2.2-1-3 0.48-0.64 1.2-0.16 1.9 0.84 2.7 0.8 0.6 1.4 1.6 1.9 2.2h6.1c-0.24 2.3-2 1.2-3 1.5-1.2 0.36-2.4 0.6-3.9 0.92 3.4 3.5 3.6 3.6 5.6 0.4 0.64 1.2 1.6 2.2 1.5 3-0.2 1.4-1.6 1.3-2.9 1.2-1.6-0.16-3.2-0.04-5-0.04-0.16 1.3-0.28 2.6-0.4 3.7-2.1-0.6-4-1.1-6.1-1.7 0.48-1 0.96-2 1.5-3.2-0.84-0.36-1.6-0.72-2.5-1.1 0-2.9-0.08-5.8 0.04-8.6 0.08-1.8 1.4-2.5 3-2.6 2.2-0.08 4.5-0.081 6.8-0.12l-0.12-0.079c-0.08 0.48-0.16 1-0.28 1.5l0.08-0.079zm-4.4 8c-1.3 0.52-2.1 0.8-3.3 1.3 1.9 1.3 2.4 0.52 3.3-1.3zm-24-63c0.12 1.1 0.2 1.7 0.28 2.4 0.32 0 0.72 0.12 0.8 0 1.7-2.4 4.5-2 6.8-2 4.1-0.16 8.2 0.36 13 0.64-0.4 2.9-2.4 4-5.4 5 0.28-1.2 0.48-1.9 0.8-3.3-1.1 0.24-2.2 0.2-2.9 0.64-4.7 2.8-9.8 3.6-15 3.4-1.5-0.04-3 0.64-5.3 1.2-0.4-0.44-1.3-1.4-2.3-2.5 0.8-1 1.5-2.3 1.9-2.2 3.2 0.6 5.1-1.7 7.9-3.2zm-210 42c-1-0.28-2.1-0.56-3.4-0.88 2.4-1.6 2.4-1.6 10-0.88-1.2 0.84-2 1.4-3.4 2.5 3.2 0.28 5.8 0.52 8.4 0.76v0.8c-2.6 0.44-5.3 0.92-8 1.4 0 0.36 0.04 0.68 0.04 1 1.8 0.16 3.6 0.28 5.4 0.44v0.76c-2 0.04-4.1 0.12-6.1 0.12-2.1 0-4.2-0.04-6.4-0.08-1.9-0.04-2.8 0.76-1.8 2.6-2.7 1.5-4.1-0.16-5.3-2.8a229 229 0 0 0-2.2 4.3c-0.44-1.4-0.68-2.3-1-3.6-1.8 0.76-3.5 1.5-6.2 2.6 0.72-2 1.1-3.1 1.5-4.2 2.8 0.28 5.4 0.52 8.9 0.84-0.79-0.69-1.6-1.4-2.4-2 0.28-0.68 0.56-1.4 1-2.6h11v-1.1zm-0.2 2.8c-2.7-0.8-6.2-0.84-7.1 0.079-0.44 0.44-0.44 1.4-0.64 2.2 3 0.28 5.4-0.56 7.8-2.3zm294 29c-3.4 1.6-4.1 1.5-7.3-1.3 1.9-3.2 4.6-4.6 7.4-2.9 1.8 1 2.9 3.5 4.2 5.4 0.28 0.4 0.36 0.96 0.52 1.5 2.5 0.76 5.4-0.68 7.7 1.6-1.6 0.76-3 1.4-4.7 2.3-1.1-0.76-2.1-2.3-4.4-1.3-1.2 0.52-3.1-0.64-4.7-1 0.52-1.7 0.92-2.9 1.4-4.1zm-199-29c-1.2 0.4-2.4 0.84-3.6 1.3 1.8 0.6 3.6 1.2 5.3 1.8-0.36 0.92-0.92 1.7-0.92 2.5 0 0.64 0.64 1.3 1 2-7.1 0.88-9.9-1.1-9.2-6.3-0.04-0.12-0.08-0.28-0.16-0.36-1.2-1-3-1.9-1.4-3.8 1.6-1.9 4.3-1.8 5.9-0.08 0.88 0.92 1.8 1.8 3 3zm223-40c2-0.76 3.4-0.56 4.3 1.5 0.8 2 2.5 2.7 4.5 2.5 4.5-0.56 9-1.2 13-1.8 0.52-0.08 1.1-0.64 1.4-1.1 1.8-2.5 5.3-3.2 8.7-1.3-0.96 0.48-1.8 0.68-2.3 1.2-0.4 0.48-0.36 1.4-0.44 1.8-1.5 0.36-3 0.72-4.4 1-0.4 0.08-0.76 0.28-1.1 0.32-5.3 0.32-11 0.6-16 0.92-1 0.08-2.1 0.2-3.2 0.32-3.2 0.28-3.8-0.12-4.5-3.4-0.16-0.6-0.36-1.2-0.56-2zm-589-15c3.1-0.6 27 1 32 2-1.9 0.44-3.8 1.1-5.8 1.2-2.1 0.16-4.3-0.28-6.4-0.32-1.2-0.04-2.4-0.08-3.6 0.28-5.4 1.7-10-0.64-15-2-0.28-0.08-0.44-0.6-0.84-1.2zm179 16c-2.5 0.16-5 0.32-7.6 0.56-3.6 0.32-7.1 0.68-11 1-1 0.08-2.3 0.56-3.1 0.16-3.5-1.9-7.2-1.2-11-1.2-1.3 0-2.5-0.12-3.8-0.2v-0.8c1.1-0.04 2.1-0.12 3.2-0.16 0.92-0.04 2.3 0.28 2.7-0.2 1.8-2.2 4.2-1.3 6.3-1.2 7 0.2 14 0.48 21 0.76 0.92 0.04 1.8 0.2 2.7 0.28-0.04 0.32 0 0.68 0.04 1zm354 29c5.3-5 9-4.6 11 0.68 1.9 0.08 3.8 0.48 4.7-2.3 0.36-1.2 1.9-2 3.4-3.4 0.52 1.6 0.88 2.7 1.2 3.9 0.96 0.16 1.9 0.36 3.6 0.64-1.7 1.2-2.2 2.2-4.1 2-5-0.36-10-0.72-15 0.88-2.2 0.76-2.7-1.6-4.4-2.4zm-18-37c-0.68-1.9-1.9-2-3.4-1.1-0.96 0.56-1.6 1.9-3.3 1 0.12-2 1.5-2.6 3.2-2.3 3.2 0.56 5.9-0.48 8.8-1.6 3.4-1.3 6.8-0.8 10 0.88-3 0.84-5.4 1.8-6.7 4.9-0.44 1-2.7 1.2-4.5 1.8-0.08-1.3-0.16-2.4-0.24-3.8h-4l0.12 0.12zm-402-29c11 0.36 22 0.72 32 1.2 0.68 0.04 1.3 0.68 1.8 1.6h-8c-4.2 0-8.4 0.08-13-0.08-1.9-0.08-3.7-0.68-5.5-1.4-2.7 0.64-5.4 1.4-8-0.28 0-0.32 0.04-0.64 0.04-1zm388 107c-3.3 0.04-3.4-0.2-2.1-4.8-2-0.8-2-0.8-4.4 0.44 0.08-1.4 0.12-2.6 0.2-3.8-1.4-2.4-5.4-2-6.1-5.6 2-0.32 2.5 1.3 3.8 2.6 1.1-1.5 2.1-2.9 3.4-4.6 1.5 2.1 4.8 3 2.7 6.4-0.28 0.48 0.04 1.7 0.48 2.2 2.2 2 2 4.6 2 7.3zm115-49c-0.36 0.44-0.6 0.68-0.92 1.1 0.6 0.28 1.1 0.52 1.7 0.76-0.08 0.24-0.04 0.6-0.2 0.68-2.9 1.5-3.1 1.4-5.5-0.56-0.56-0.48-1.6-0.36-2.4-0.56 0 1.8-3.3 2-2 4.4 0.12 0.2-0.56 1.1-0.76 1.1-0.52-0.08-1.5-0.6-1.4-0.8 0.16-1.2 0.56-2.4 0.96-3.9-0.48-0.04-1.2-0.36-1.8-0.16-0.96 0.32-1.8 1.2-2.8 1.4-0.92 0.16-2.6 0.28-1.4-1.8 0.16-0.28-0.64-1.2-1.2-2.1 0.48-0.2 0.88-0.36 1.3-0.52 2.8-0.88 5.5 1.1 8.4 0.08 2.7-0.96 5.2 0.6 8 0.84zm-58-32c-2.4-0.36-4.8 0.8-7.4 0.04-0.96-0.28-2.6 1.5-4.1 2.4-1.9-1.1-4-1.3-6.2 0-1.8 1-3.5 0.24-5.5-1 0.8-0.48 1.4-0.96 2-1.2 2.2-0.76 4.5-1.4 6.8-2.1 0.76-0.2 1.6-0.32 2.3-0.28 3.2 0.16 6.4 0.32 9.5 0.68 0.88 0.12 1.7 0.96 2.5 1.5v-0.041zm1e-3 0.04c1.2-1.7 2.7-2.4 4.8-2.4 1.2 0.04 2.3-0.48 3.5-0.6 1.4-0.16 3.1-0.6 4.3-0.12 2.5 0.96 4.9 0.48 7.4 0.08 1.7-0.28 3.4-0.68 4.9 0.72-1.7 1.2-6.4 2-8.9 1.9-3.6-0.08-7.2-0.24-11 0.44-2 0.4-3.6 0.2-5.3-0.2v0.12zm-89 4.8c-4.9 0.24-9.9 0.44-15 0.68-1.8 0.08-3.7 0.2-5.5 0.32-2.6 0.2-5.1 0.4-7.7 0.04 9.2-2.7 19-3.2 28-2.1 0.04 0.36 0.04 0.72 0.08 1zm106 28c-1.5-0.24-2.9-0.49-4.4-0.76 1.3-1.4 2.5-0.48 3.8-0.32 1.3 0.16 2.6 0.04 4.2 0.04 0.12 1.7 0.24 3.2 0.36 5.2l4.4-1.8c1.2 3 1.2 3 4.3 4.5-3 0.04-6.1 0.28-9.1 0.04-1.3-0.12-2.6-1.1-2.7-3-0.04-1.3-0.48-2.5-0.76-4zm-263-49c-3.5 4.5-7.9 3.3-12 3.2-0.44 0-1.2-0.48-1.2-0.8-0.2-2.5-2.3-1.4-3.5-2.4h17zm-247 2.4c-0.48 0.4-0.92 1.1-1.4 1.1-12 0.92-24 1.8-36 2.6-1.2 0.08-2.4-0.2-3.6-0.52 4.6-0.72 9-2 14-1.4 4.2 0.52 8.5-0.16 13-0.48 4.9-0.36 9.8-0.92 15-1.4zm0.041-2e-3c8.1-0.36 16-0.84 24-0.96 4.6-0.08 9.2 0.4 14 0.92-3.4 1.3-6.8 1.5-10 0.44-3.6-1.2-7.1-0.8-11-0.68-0.88 0.04-2 0.08-1.6 1.6-0.68 0.2-1.4 0.4-2.1 0.6-0.52-2.6-2.5-1.7-4.1-1.8-3.2-0.04-6.4-0.04-9.6-0.12v1e-3zm-57 5.3h31c-10 1-21 2.5-31 0zm582 41c0.16-0.56 0.36-1.1 0.52-1.6 1.5 0.24 2.9 0.44 4.3 0.72 1.6 0.32 1.9 1.2 0.92 2.5-1.8 2.4-5.2 3.1-7 1-1.4-1.6-2.8-2.3-4.7-2.3-0.36 0-0.68-0.36-1.7-0.88 3.3-1.6 5.3 1.4 7.6 0.56zm-416-53c-6.2-0.6-12-1.2-19-1.8 0.24-0.56 0.36-0.96 0.44-0.96 5 0.2 10 0.36 15 0.68 1.1 0.08 2.2 0.56 3.4 0.84-0.04 0.44-0.08 0.84-0.12 1.2zm329 38c0.92-1.8 2.1-2 3.5-1.5 3.2 1.1 6.2 1.2 9.1-1.2 0.8-0.64 2.9 0.36 5.2 0.72-6.2 2.7-12 3.7-18 1.9zm-380-30c-2.9 1.7-6 0.2-8.6 1-3.1 0.96-5.4-1.9-8.3-1.4 2.3-1.3 12-1 17 0.4zm284 52c1.8-2.3 3.6-1.9 5.6-1.6 1.9 0.2 3.9-0.64 5.8-0.8 1.8-0.12 3.7 0.08 5.6 0.12 1.9 0.04 3.8 0 5.7 0 0 0.28 0.04 0.56 0.04 0.88-7.5 0.48-15 0.96-23 1.4zm-171 13c1.6 1.8 2.9 3.3 4.5 5-2 0.92-1.3 4.4-4.4 3.6-0.56-1.1-1.1-2.2-1.9-3.8 0.4-1.1 1-2.8 1.8-4.9zm-228-67c5.4 0.32 11 0.68 16 1v1c-4.4 1-8.9 0.76-13 0.32-1.2-0.12-2.2-0.88-3.4-1.3 0.12-0.36 0.24-0.72 0.36-1zm390 54-25 0.84c0-0.32-0.04-0.64-0.04-1 8.3-0.24 17-0.52 25-0.76v0.92zm100 6.6c-0.72-1.1-1.3-1.9-2.2-3.3 1.4-0.08 2.8-0.64 3.4-0.16 1.3 0.96 2.1 0.76 3.3-0.04 0.88-0.56 2-0.6 2.5 0.84 0.32 0.84 1.1 1.5 2 2.6h-9.1zm-89-63c-0.16 0.64-0.2 0.88-0.24 0.88-4.5 0.6-9.1 1.3-14 1.7-1.2 0.12-2.5-0.6-4.3-1.1 2.2-1.9 4.2-0.32 6-0.68 1.9-0.36 4-0.36 5.9-0.48 2-0.08 4-0.2 6.2-0.32zm-20 67c-4.2 1.6-5.8 1.3-8.6-1.7 0.28-1.5 0.92-2.7 2.7-2.8 1.8-0.12 2.9 0.44 3.6 2.4 0.32 0.88 1.6 1.5 2.4 2.2zm-15-64c4.4-2 8-1.8 12-2 0.76 1.8-0.08 2.6-1.4 2.6-2.6-0.16-5.2-0.04-7.7 0.56-0.48 0.12-1.1-0.48-2.5-1.2zm-230 1.8c-9.6 2.8-11 2.8-13-0.44 4.3 0.16 8.5 0.32 13 0.44zm158 59h-16c3.7-2.4 3.8-2.6 7-1.4 1.8 0.64 3.1-0.04 4.6-0.36 1.7-0.4 3.3-0.88 4.4 1.8zm185-1.8c-2.1-0.44-4.2-0.84-7-1.4 0.91-1 1.8-2.1 2.8-3.1-0.92-0.44-1.8-0.84-2.6-1.3 1.6-0.72 3.6-2.8 3.8 0.92 0 0.32 0.84 0.56 1.1 0.96 0.84 1.1 1.6 2.2 2.5 3.3-0.2 0.2-0.36 0.4-0.52 0.6zm-244 3.1c-4.7 1.8-9.5 1.7-15 0.6 2.5-1.7 5.2-1.2 7.6-1.2 2.3 0 4.8-1.4 6.9 0.56zm244-22c-0.2-3.4-0.12-3.6 2.1-3.7 1-0.04 2.4-0.36 3.1 0.16 1.4 1.1 2.4-0.08 3.6-0.2-0.4 2.6-0.88 3.2-3.3 2.8-1.9-0.28-3.7-0.52-5.4 0.92zm6.4-9c-3.8 0.96-7.5 2-12 0.16 1.8-0.4 3.5-0.84 5.3-1.2 1.6-0.28 3.3-0.52 4.9-0.64 0.48-0.04 1 0.52 1.5 0.8-0.039 0.24-0.079 0.56-0.16 0.84zm-311 38h7.6c0.08 0.32 0.16 0.64 0.2 1-1.3 0.48-2.6 1-4.2 1.6 0 0.2-0.04 0.8-0.079 1.5h-4.6c-0.52-1.8 3.1-1.3 1.1-4.2zm146-71c-1.2-0.32-2.5-0.72-3.8-0.96-1.6-0.32-3.2-0.48-4.8-0.72 0.039-0.32 0.039-0.64 0.079-0.96 4.1 0 8.2-0.04 12 0.04 0.48 0 0.96 0.72 1.4 1.1h0.04c-0.84 0.16-1.7 0.28-2.6 0.52-0.92 0.24-1.8 0.6-2.7 0.92-0.04 0.04 0.08 0.039 0.08 0.039zm165 19c1.9-2.8 5.2-2.1 8.1-3.3 0.32 1 0.6 1.9 0.88 2.8-7.4 1.3-7.4 1.3-9 0.48zm-149 44c-0.56 1.6-1 2.9-1.5 4.4a533 533 0 0 1-6.4-2.9c2.6-1.4 4.7-3.4 7.9-1.5zm167 42c-0.16 0.36-0.36 0.8-0.68 1.6-1.7-1.2-3.2-1.8-5.3-0.64-0.76 0.44-2.4-0.6-3.6-0.96 1.2-3 2-3.4 4-2.4 1.8 0.8 3.5 1.5 5.6 2.4zm36-42h-9.5l-0.6-0.96c1.2-0.48 2.5-0.96 3.8-1.4-0.24-0.2-0.48-0.44-0.72-0.64 2.4 0.72 4.8 1.4 7.1 2.2-0.04 0.28-0.08 0.56-0.08 0.84z"/>
  <path d="m359 83c4.1-1.4 8.3-1.7 13-0.88-4.2 0.84-8.2 3.1-13 0.88zm177-0.24c0.96 1.1 1.8 2 2.7 3.1-0.68 2.6-0.68 2.6-4.6 2.4 1.9-1.6-0.84-4.6 1.9-5.5zm-398-34c4.4-0.92 4.4-0.92 8.8 2.1-2.3 0.44-4.4 1.9-6-1-0.36-0.68-1.8-0.76-2.7-1.1zm-30-0.12c-3.2 0.6-5.6 1.3-8 1.4-1.1 0.04-2.3-1.2-3.6-1.9 0.64-0.56 0.88-0.88 0.96-0.88 2.9 1.4 5.9 1.2 8.9 0.36 0.2 0 0.6 0.4 1.8 1.1zm82-18c5.2-0.32 5.2-0.32 6 2.4-2.8 1.6-4.6 0.16-6-2.4zm360 22c-3.4 0.48-6.2 0.92-9 1.3l-0.12-0.96c3 0.56 5.4-3.8 9.2-0.36zm-274 23h10c-3.8 1.6-7.8 1.5-10 0zm-73 22c2.4-0.2 4.9-0.48 7.4-0.52 0.32 0 0.72 0.92 1.1 1.5-3.6 1.2-4.6 1.2-8.3 0.04-0.04-0.36-0.08-0.68-0.12-1zm369-9.3c-2.1-0.36-3.8-0.48-5.4-1-1-0.36-1.7-1.4-0.88-2.6 0.84-1.2 1.9-1.4 3-0.28 1 1.1 1.9 2.2 3.3 3.8zm-170 46c-0.52-2.4-4-2.7-3.1-5.6 0.2-0.64 1.2-1 2.2-1.4-0.76 2.6 3.2 4 0.92 7zm-221-77c-2.8-0.08-6.2 1.9-8.2-2.8a1591 1591 0 0 1 8.2 2.8zm151 26c4.8-1.2 7.8-1.1 9.8 0.16-4.5 1.5-5.8 1.5-9.8-0.16zm53 2.8c2.5-2.1 2.6-2.1 4.9-0.24-0.36 1.2-0.68 2.4-1.2 4.2-0.48-0.76-0.8-1.5-1.3-2-0.6-0.68-1.4-1.2-2.4-1.9zm-59 55c3.1 0.24 6-2.2 9.1-0.72-3 0.4-6 2.4-9.1 0.72zm194-51c-2.2 2.2-3.3-0.04-5-1.1 1-1.7 2.4-2.4 4-2 1.8 0.44 0.88 2 0.96 3.1v-0.04zm17-26c-3.1 2.6-6.4 2.6-9.8 1.3 3.3-0.48 6.6-0.92 9.8-1.3zm-125 18c-3.7 0.32-6.6 0.6-10 0.92 2.8-2.2 4.8-2.4 10-0.92zm-206 60c-0.76 2.4-2 4.2-5.4 3.4 0.48-0.76 1-1.4 1.3-2.1 0.2-0.64 0.04-1.4 0.04-2.5 1.5 0.44 2.8 0.8 4.2 1.2 0 0.08-0.12-0.04-0.12-0.04zm141-120c2.9-1.2 5.8-1.4 8.6-0.08-2.8 1.6-5.7 0.44-8.6 0.08zm-129 71c-2 0-3.9-0.2-5.8 0-1.5 0.16-2.8 0.12-4.4-1.4 3.3 0 6.1-0.081 8.9 0.079 0.4 0 0.8 0.96 1.2 1.4l0.12-0.12zm9.8-25h13c-2.3 1-9.1 1.4-13 0zm184 29c-2.4 0.64-4.4-0.08-6.4-1.3 3.2-1.6 3.8-1.4 6.4 1.3zm37-26a518 518 0 0 1 7.3-0.88c-2 2.2-4.5 2.6-7.3 0.88zm137-20h8.1v0.6h-8.1c0-0.2 0-0.4-0.04-0.6zm-37 55c2.1-2.3 2.1-2.3 6-0.12-2.1 0.68-3.8 1.4-6 0.12zm-370-76h8.4c-1.3 1.9-1.8 2.2-3 1.8-1.5-0.48-3-1-5.5-1.8zm368 17c0.08-1.6 0.16-2.9 0.24-4.6 0.88 0.6 1.8 0.88 1.9 1.3 0.32 1.4-0.16 2.6-2.2 3.3zm-317-17c2.1-0.08 4.2-0.2 6.3-0.28 0 0.28 0.04 0.6 0.04 0.88-2.2 0.08-4.2 1.7-6.4 0.76 0.04-0.44 0.04-0.92 0.08-1.4zm218 15c-2.5 0.28-5 0.6-7.5 0.88 0-0.32-0.04-0.64-0.04-0.92 2.4-1.2 5-0.4 7.5 0.04zm-169 41c-2.9 1.5-4.9 0.76-7.6 0.12 2.8-1.4 4.9-1.4 7.6-0.12zm-21 0h7.3c-2 1.6-3.9 1.8-7.3 0zm266 13c0.2-0.44 0.44-0.88 0.56-1.4 0.6-2.7 0.92-2.8 3.5-0.84-0.76 1.8-2.3 2.3-4.1 2.2 0-0.04 0.079 0.04 0.079 0.04zm-395-50h-11c2-2.4 4-0.64 5.7-0.8 1.8-0.2 3.6-0.04 5.4-0.04 0 0.24 0 0.52-0.04 0.84zm446 24c-2.5 0.96-5 0.4-7.6-0.64 2.5-0.16 5-0.32 7.5-0.48 0 0.4 0 0.76 0.04 1.1zm-348 18c2.3 0.24 4 0.4 5.7 0.56-1.3 2.8-2 2.8-5.7-0.56zm159 14c2.1-1.2 3.3-0.12 4.3 1.6-2.8 0.96-2.8 0.96-4.3-1.6zm-91 33c3-2.5 3.1 2.5 4.5 1.7-0.96-0.2-3 0.88-4.5-1.7zm121-35c1.6-0.44 3.3-0.96 5.5-1.6-2.1 2.6-2.1 2.6-5.5 1.6zm119-42c-1 0.56-2 1.1-3.3 1.8-0.56-0.44-1.2-0.96-1.9-1.5 0.2-0.88 3.2-1 5.2-0.28l0.04-0.039zm-16-13c1.2 0.84 2.4 1.7 3.6 2.6-3 1.3-4 0.48-3.6-2.6zm-125 46c1.2-0.76 2.3-2.2 3.6-0.48 0.2 0.28-0.32 1.5-0.84 1.8-1.4 0.88-2.4 0.32-2.8-1.4zm-1.2 4.7c2-0.6 3.6-0.28 5.2 2.5-2.2-0.56-3.8-0.96-5.4-1.4 0.08-0.4 0.16-0.76 0.24-1.1zm-170-9.1c-1.9 0.48-3.9 1.2-5.8 0.4 0-0.28-0.04-0.6-0.04-0.88 2-0.2 3.9-0.36 5.8-0.56 0 0.32 0 0.68 0.039 1zm274-46c-2.2 0.28-4.3 0.56-6.4 0.8-0.04-0.32-0.08-0.6-0.12-0.92 2.2-0.24 4.3-0.48 6.4-0.76 0.04 0.32 0.08 0.6 0.12 0.88zm-294 27c-2.4 0.12-4.3 0.2-6.6 0.28 3.1-2 3.1-2 6.6-0.28zm114 66c-2.8 1.6-2.8 1.6-4-0.8 1.5-1 2.7-1.2 4 0.8zm263-83c1.6-0.04 3.6-0.84 3.4 2.3h-3.3v-2.4l-0.08 0.12zm4 32c-0.88 0.36-1.8 0.68-2.8 1-0.24-0.52-0.56-0.92-0.48-1.2 0.32-0.76 0.8-1.5 1.2-2.2 0.76 0.44 1.6 0.92 2.3 1.4-0.08 0.32-0.2 0.64-0.28 0.96zm-391-67c1.4 0.48 2.8 0.96 4.2 1.5-1.7 0.52-3.5 1.2-4.6-0.6 0.12-0.28 0.28-0.6 0.4-0.88zm194 79c-0.88 3.3-0.96 3.3-3.5 0.88 1.2-0.32 2.3-0.56 3.5-0.88zm-170 49c-3.4 0.04-2.4-2.4-3.4-4 3 0.4 2.5 2.5 3.4 4zm289-57c1.6-0.24 3.1-0.48 5.2-0.8-1.5 2.8-3.3 1.8-5 1.7-0.079-0.28-0.16-0.56-0.2-0.88zm-80 0.48c0.72 1.1 1.5 1.7 1.4 2.3 0 0.48-0.88 1.3-1.4 1.4-0.52 0.04-1.6-0.88-1.6-1.2 0.16-0.8 0.84-1.4 1.6-2.5zm-311-34c-1.6 0.08-3.2 0.2-5.1 0.32 1.2-1.6 1.2-1.6 5-1.2 0 0.24 0.04 0.52 0.08 0.84zm419 37h8.2v0.28h-8.2v-0.28zm-370-36c1.4 0.44 2.8 0.88 4.4 1.4-2.5 0.68-2.5 0.68-4.4-1.4zm421 12c-2.8 2-6 0.76-9 0.8 3-0.24 6-0.52 9-0.76l-0.04-0.04zm-77 53c0.6 0.92 1.2 1.9 1.8 2.9-2.4-0.16-2.4-0.16-1.8-2.9zm75-44c-0.96-0.44-1.9-0.92-3-1.4 2.3-2.2 2.3-2.2 3 1.4zm-23-25-4.3 0.96c-0.04-0.16-0.04-0.28-0.08-0.44 1.4-0.56 2.7-1.1 4-1.6 0.12 0.4 0.24 0.76 0.36 1.1v-1e-3zm-47 18c1.3-0.2 2.6-0.4 3.9-0.6-1 1.9-2.4 1.2-3.8 1.4l-0.12-0.84zm87-34c-0.44 0.8-0.84 1.6-1.3 2.3-0.039 0.08-0.84-0.16-0.92-0.36-0.48-1.4 0.2-2.1 2.2-2zm-515 16c0.72 0.76 1.2 1.2 1.7 1.8-0.48 0.44-1 1.4-1.4 1.3-0.56-0.12-1.2-0.84-1.4-1.4-0.12-0.28 0.56-0.88 1.1-1.6zm412 77h4.8c-3.2 2-3.2 2-4.8 0zm-28-12c1.4 0.32 2.9 0.64 4.9 1-2.8 0.8-3.1 0.76-4.9-1zm-236-29c-1.8 2-1.8 2-3.7 0.6 1.1-1.3 2.3-1.4 3.7-0.6zm309 12c-1.5 0.48-2.8 0.32-3.7-1.1 2-1.1 2-1.1 3.7 1.1z"/>
  <path d="m534 60c2-0.4 4-0.76 6-1.2 0.04 0.28 0.08 0.56 0.12 0.88-1.9 1.4-4 0.28-6 0.28 0-0.04-0.04-1e-3 -0.04-1e-3zm-262 76v2.4h-2.4c-0.44-2.1 0.28-2.9 2.4-2.4zm123-11c0.44 1.6 0.68 2.5 0.92 3.4-0.36 0.08-0.8 0.36-1 0.24-1.3-0.68-1.4-1.6 0.12-3.7zm-257 19c-3 1.1-3.6 0.2-3.4-2.4 1.2 0.88 2 1.4 3.4 2.4zm77-126c-0.12 0.04-0.28 0.16-0.36 0.12-0.68-0.32-1.4-0.72-2-1 0.32-0.32 0.6-0.92 0.96-0.96 1.5-0.24 1.7 0.68 1.4 1.9zm-115 16c0.76-1.8 1.9-1.6 3.6-1.3-1 1.4-1.9 2.3-3.6 1.3zm414 41h3.7c-1.2 1.3-2.5 2.1-3.7 0zm-262 65c-0.84-2-0.36-2.8 1.1-2.9 0.44 0 0.92 0.6 1.4 0.92l-2.5 2zm38-100-0.16 0.2c1.4-0.8 2.8-0.6 4.2 0.08l-0.12-0.12c-1.7 1.7-2.4 1.6-3.9-0.16zm237 1.6c-0.08 1.4 0.04 3.1-2.6 2.2 0.88-0.68 1.8-1.4 2.7-2l-0.08-0.12zm55 37c-0.84 0.12-1.6 0.24-2.5 0.4-0.04-0.68-0.24-1.2-0.04-1.6 0.28-0.48 0.84-1.2 1.3-1.1 1.4 0.08 1.4 1.1 1.3 2.3zm-199-51h2.2c-0.04 0.36 0 1-0.08 1-0.64 0.12-1.3 0.12-2 0.16-0.04-0.4-0.08-0.8-0.16-1.2zm-209 60c-1.3-0.16-2.6-0.28-3.9-0.44 1.4-0.92 2.7-2.4 3.9 0.44zm397 36c-2.7 1.8-3.5 0.48-4.4-0.36 0.12-0.32 0.2-0.6 0.32-0.92 1.1 0.36 2.2 0.72 4.1 1.3zm-178-93c1.4 0.4 2.2 0.6 3.1 0.88-0.28 0.6-0.36 1.1-0.6 1.2-1.2 0.44-2 0.12-2.5-2.1zm-236-4.1h4.7c0 0.08 0 0.16 0.04 0.24h-4.7c0.04-0.08 0.04-0.16 0-0.24zm204 67c-0.76 1.4-1.8 1.4-4 0.2 1.6-0.56 2.6-0.88 3.6-1.2 0.08 0.32 0.2 0.68 0.36 1zm-3.4-6.2c0.72 0.52 1.4 1 2.6 1.8-1.1 0.32-1.9 0.8-2.4 0.6-1.6-0.48-1-1.4-0.12-2.4zm228-3.4c1-2.8 1-2.8 3.8-2.4-1.4 0.84-2.4 1.5-3.8 2.4zm-352-80h-4c0.04-0.28 0.04-0.6 0.08-0.88 1.3 0.16 2.6 0.36 3.9 0.52 0.04 0.12 0.04 0.24 0 0.36v-1e-3zm278 62c1.3-0.16 2.6-0.32 4-0.52 0.04 0.28 0.12 0.52 0.16 0.8-1.3 0.32-2.7 0.68-4 1-0.04-0.44-0.12-0.88-0.16-1.3zm-32 51c-1.4-0.08-2-0.12-2.8-0.16 0.24-1.1 0.44-1.9 0.64-2.8 0.56 0.8 1.1 1.6 2.1 3zm-385-64c1.5-1.9 2.7-2.1 4.3-1.1-1.1 1.6-2.4 1.2-4.3 1.1zm524 23c1.3-2.2 2.4-0.88 3.8-0.04-1.4 1.4-2.6 1.1-3.8 0.04zm-302 61h3.6c-0.08 0.48-0.04 0.84-0.2 0.92-1.1 0.6-2.1 0.48-3.4-0.92zm109-41 3.4 0.24c0 0.24 0 0.48 0.04 0.72l-3.4 0.24c0-0.4-0.04-0.8-0.04-1.2zm-192 44c1.2-2 2.1-1.1 3.4 0h-3.4zm350-74c2.5-0.12 4.9-0.2 7.4-0.32v0.96c-2.5-0.24-4.9-0.44-7.4-0.68-0.04 0 0.04 0.04 0.04 0.04zm-157 44c-1.9 1.8-2.8 1.2-3.9-0.72 1.4 0.28 2.4 0.44 3.9 0.72zm106-57h2.8c0 0.2 0.04 0.36 0.04 0.56-0.92 0.08-1.8 0.16-2.8 0.2 0-0.28-0.04-0.52-0.04-0.76zm-392 87c0.32 0.44 0.6 0.88 0.92 1.3 0.56 0.72 1.1 1.4 1.6 2.1-0.2 0.2-0.4 0.4-0.64 0.6-1-0.76-2-1.5-3.1-2.4 0.48-0.56 0.84-1.1 1.2-1.6zm272-45c1 0.72 2 1.4 3.8 2.6-2.2-0.36-3.6-0.32-3.8-2.6zm-54-74c-0.76-0.08-1.5-0.12-2.3-0.2 0-0.16 0.04-0.36 0.04-0.52h2.3c-0.04 0.28-0.04 0.52-0.04 0.72zm-183 14c-0.24 2.1-0.96 2.5-2.9 1.7 1.1-0.68 1.8-1.1 2.9-1.7zm-13-19h-2.2v-0.56h2.2v0.56zm391 57h4c-1.8 1.2-2.9 1.8-4 0zm-164 2.9h-4.1c0-0.16-0.04-0.28-0.04-0.44 1.3-0.08 2.7-0.12 4-0.2 0.04 0.2 0.08 0.44 0.16 0.64zm-347-24h3.8c-2 1.4-2 1.4-3.8 0zm528 25h-3.6c1.2-2 2.4-1.4 3.5-0.96 0 0.32 0.04 0.64 0.04 0.96zm-171-54v2.3c-0.2 0-0.36 0.04-0.56 0.04-0.12-0.8-0.28-1.6-0.4-2.4h0.96zm179 29c-2.4-0.16-2.4-0.16-2.4-2.2 0.92 0.92 1.6 1.6 2.3 2.3-0.04 0 0.08-0.079 0.08-0.079zm-352 36c-1 2.4-1.9 1.3-3.5 0h3.5zm111 54c0.64-2.3 1.7-1.9 3.4-0.64-1.5 0.28-2.4 0.44-3.4 0.64zm181-45c-0.96 0.36-1.9 0.76-3.6 1.4 1-2 1.9-2.8 3.6-1.4zm-12-21c0.96-0.08 1.9-0.16 2.9-0.24 0.04 0.2 0.08 0.36 0.12 0.56-0.96 0.28-1.9 0.6-2.9 0.88-0.04-0.4-0.08-0.8-0.16-1.2v1e-3zm92-25c-0.72-0.04-1.5-0.12-2.2-0.16 0.04-0.28 0.04-0.56 0.08-0.84 0.72 0.08 1.5 0.16 2.2 0.2-0.04 0.28-0.04 0.56-0.08 0.8zm-280-51h3.2c0 0.16 0 0.32 0.04 0.44-1 0.12-2.1 0.24-3.2 0.32-0.08-0.24-0.08-0.52-0.08-0.76zm-61 139 3.1 1.2c-1.4 0.84-2.7 1.1-3.1-1.2zm350-102c0.76 0.28 1.5 0.56 2.3 0.88-0.04 0.2-0.12 0.36-0.16 0.56-0.84-0.16-1.6-0.32-2.5-0.48 0.12-0.36 0.24-0.64 0.36-0.96zm-127 87c-0.28-0.76-0.52-1.5-0.8-2.3 0.28-0.12 0.52-0.24 0.8-0.36l1.2 2.3-1.2 0.36zm-14-107c0.36 1 0.6 1.4 0.56 1.7-0.04 0.4-0.32 0.76-0.48 1.2-0.24-0.28-0.6-0.48-0.64-0.8-0.08-0.32 0.12-0.68 0.56-2z"/>
  <path d="M294.405 41.566c.639-1.879 1.439-1.919 2.798.12a86.243 86.243 0 0 1-2.918-.24c0 .04.12.12.12.12Zm199.884 66.827c.999.08 1.998.16 2.997.2v.68h-2.997v-.88Zm-35.572 11.592c-1.518.959-2.318 1.478-3.797 2.398 1.239-2.039 1.239-2.039 3.797-2.398Zm142.249-54.718c-.319.28-.639.72-.759.68-.36-.16-.639-.52-.959-.8.24-.24.519-.64.759-.64.32.08.56.44.959.76Zm-103.32 40.409c-.719-.28-1.479-.56-2.198-.84l.24-.839 2.278.48c-.08.399-.2.799-.32 1.199ZM93.524 53.797c-.56.36-1.12.679-1.679.999 0 0-.4-.52-.36-.56.44-.44.92-.84 1.4-1.28.199.28.399.561.639.841Zm408.637 14.229c-.879.2-1.759.36-2.638.56-.08-.28-.16-.6-.2-.88.919-.2 1.839-.4 2.758-.64 0 .36.04.64.08.96Zm6.917-12.51c.719.12 1.399.24 2.118.36v.4h-2.198c0-.24.04-.48.08-.76Zm-276.065-3.397c.879-.2 1.799-.36 2.678-.56.08.32.16.68.24 1-.88.28-1.759.519-2.638.799-.08-.4-.2-.799-.28-1.239ZM523.226 100.4c2.278-.359 2.278-.359 3.197 1.959l-3.117-2.039c0 .04-.08.08-.08.08ZM343.33 65.706c-.44.24-.56.36-.68.36h-2.398c-.04 0-.08-.24-.12-.4l2.398-.12c.12 0 .28.04.8.16ZM536.936 48.6c.4-.36.68-.72.96-.76.239 0 .719.48.679.68-.04.28-.4.679-.719.719-.2.04-.52-.359-.92-.639Zm-115.071 77.979h3.557c0 .2-.04.4-.04.6-1.159-.12-2.318-.2-3.438-.32a.757.757 0 0 1-.079-.28Zm-15.549 4.636c1.679.199 2.438.319 3.237.399.04.2.04.44.08.64-.519.16-1.039.44-1.518.4-.36-.08-.72-.56-1.799-1.439Zm-6.831-57.957c-.76.36-1.519.68-2.278 1.04-.12-.16-.24-.28-.36-.44.36-.36.639-.88 1.079-1.08.4-.199.919-.159 1.399-.199.04.2.08.439.16.679ZM51.439 46.722c-.64.28-1.239.6-1.878.88-.08-.36-.24-1-.24-1 .64-.2 1.279-.36 1.958-.48.08.2.12.4.16.6Zm500.244 22.183c.799-.28 1.559-.6 2.358-.88.12.12.2.28.32.4-.36.4-.68.92-1.119 1.159-.36.2-.879.12-1.319.16l-.24-.839ZM367.266 33.77c.28-.439.52-.879.8-1.278.04-.04.399.2.599.32-.279.44-.559.919-.839 1.359-.2-.16-.36-.281-.56-.401Zm23.705 39.372c.799-.04 1.559-.12 2.358-.16.04.28.08.56.12.8-.799.12-1.599.28-2.398.4-.04-.32-.04-.68-.08-1.04Zm-4.238 8.553c.879.08 1.758.12 2.637.2 0 .28-.04.56-.04.84-.879-.08-1.758-.12-2.637-.2 0-.28.04-.56.04-.84Zm-199.36-25.661c.52.44.999.92 1.519 1.36-.2.2-.36.399-.56.599-.519-.44-1.039-.84-1.559-1.28.24-.239.44-.439.6-.679Zm199.359 80.856c-1.199-.08-2.398-.16-3.557-.24 0-.279.04-.559.04-.839 1.199.08 2.398.16 3.557.24 0 .28-.04.559-.04.839ZM174.339 30.734c-.599-.12-1.239-.28-1.838-.44-.04 0 0-.28-.04-.44.679.04 1.359.12 1.998.16 0 .24-.08.48-.12.72Zm217.348 99.362c.279 1.479.399 2.198.559 2.918-.24.04-.439.12-.679.16-.16-.4-.4-.84-.44-1.239 0-.32.2-.68.56-1.839Zm7.636-65.667h-2.838v-.24h2.838v.24Zm-2.198 11.668c.56-.44.88-.84 1.079-.8.4.08.76.44 1.159.68-.239.28-.479.76-.719.76-.4-.04-.799-.32-1.519-.64Zm3.957 18.908c-.68 1.079-1.319 2.158-2.998.399 1.319-.16 2.158-.28 2.998-.399ZM354.72 33.491h1.519c0 .16 0 .32.04.48-.52.04-1.04.08-1.519.08-.04-.16-.04-.36-.04-.56Zm70.264-11.311c-.28.2-.6.44-.64.4-.24-.24-.44-.52-.639-.8.199-.12.479-.4.519-.36.32.2.52.48.76.76Zm198.441 13.91c.519-.16 1.039-.28 1.558-.44.04.2.08.36.16.56-.519.12-1.079.28-1.599.4-.039-.16-.079-.32-.119-.52Zm-183.294 96.042c.879-.079 1.758-.119 2.638-.199v.479h-2.558c0-.12-.04-.2-.08-.28ZM577.983 61.55l1.918-.239c.04.12.04.24.08.32-.679.16-1.359.32-1.998.52v-.601Zm-6.515 6.236h-2.558c0-.12-.04-.28-.04-.4.839-.12 1.678-.24 2.558-.36 0 .24 0 .48.04.76ZM164.55 36.81c.4-.52.839-1.04 1.239-1.559.32.32.639.68.959 1-.48.44-.999.879-1.479 1.318-.24-.24-.479-.519-.719-.759Zm386.292 72.983h2.717c.04.16.04.32.08.52l-2.638.48c-.079-.32-.119-.68-.159-1ZM200.682 5.197h-1.479c.44-.24.919-.48 1.359-.72l.12.72Zm351.162 96.001h-2.118v-.6l2.118.12v.48Zm-29.617-40.805h2.239v.2h-2.239v-.2Zm-25.742 61.111c.76.12 1.479.24 2.238.359-.039.28-.119.56-.159.8-.72-.2-1.479-.44-2.199-.64.04-.16.08-.32.12-.519ZM243.847 89.807h2.318v.439h-2.318v-.439Zm11.631 4.279h-1.919c0-.24 0-.44.04-.68l1.919.12c-.04.2-.04.36-.04.56Zm263.391-50.761c-.2-.36-.4-.68-.52-.999-.04-.12.32-.48.32-.44.279.16.559.36.759.6.04 0-.2.319-.559.839Zm.399 47.243 3.437.24c-.08.32-.12.639-.2.999-1.119-.4-2.198-.839-3.237-1.239Zm4.958-41.368c.16-.16.28-.32.439-.48.08.2.24.4.28.6 0 .08-.2.28-.2.28-.199-.12-.359-.28-.519-.4Zm10.273 62.389c-.52-.04-1.039-.08-1.559-.16.04-.24.08-.64.08-.64.519.04 1.039.08 1.559.16-.04.2-.08.44-.08.64ZM275.262 1.12h1.879v.32h-1.879v-.32Zm-54.636 31.294c.12.2.24.36.32.56-.2.08-.44.24-.64.2-.159-.04-.239-.32-.319-.52.24-.08.439-.16.639-.24Zm-5.035-13.629c1.159-.12 2.318-.24 3.437-.4 0 .12 0 .28.04.4h-3.477Zm-11.274-5.915c.2.12.4.239.599.319-.12.2-.199.52-.399.56-.12.04-.4-.2-.6-.28.16-.2.28-.4.4-.6v.001Zm344.208 53.314c-.28-.4-.599-.68-.599-.92 0-.239.359-.479.599-.718.24.24.64.48.64.719.04.24-.32.519-.64.919Zm-72.62 56.957c-.16-.599-.32-1.239-.48-1.839.24-.04.64-.199.68-.119.319.519.599 1.119.879 1.678-.4.04-.759.16-1.079.28Zm76.896-25.859c.799-.2 1.199-.44 1.638-.4.2 0 .32.519.48.799-.32.16-.679.48-.999.48-.24 0-.52-.36-1.119-.879Zm-94.165 26.739c.08.08.2.16.2.2 0 .639-.04 1.279-.12 1.918 0 .04-.24.04-.4.08v-1.958c.08-.08.24-.16.32-.24Zm115.47-44.245c-.56.48-.879.919-1.079.879-.4-.08-.8-.44-1.159-.68.239-.24.439-.72.679-.72.44 0 .839.242 1.559.521ZM155.556 35.81h-1.599c.04-.24.04-.68.12-.72.48-.08.999-.04 1.479-.04v.76Zm417.271 13.63c.199.28.399.52.599.799-.2.12-.439.36-.519.32-.28-.2-.48-.48-.72-.72.2-.08.36-.199.64-.399ZM445.01 128.658c-.28-.36-.6-.76-.88-1.119.12-.16.2-.28.32-.44.44.28.88.599 1.319.879-.24.24-.479.44-.759.68Zm140.526-44.005c.239.68.479 1.04.399 1.359-.08.36-.439.68-.679 1-.24-.28-.64-.52-.68-.8-.04-.24.32-.559.96-1.559Zm-466.43-49.761c-.56.24-1.119.52-1.719.72-.04 0-.2-.4-.32-.64.56-.24 1.159-.52 1.719-.759.12.24.24.439.32.679Zm470.866 26.819h1.798v.2h-1.798v-.2Zm12.309 16.545c.64-.16 1.279-.32 1.919-.44.04.24.12.48.16.72-.64.12-1.279.24-1.919.4-.08-.24-.12-.44-.16-.68ZM108.234 34.37c.639-.279 1.279-.599 1.918-.879.12.2.24.36.36.56-.6.4-1.159.8-1.759 1.2-.16-.32-.359-.6-.519-.88v-.001Zm-5.478 109.355c.399.52.639.799.839 1.079-.36.28-.72.64-1.119.72-.2.04-.76-.56-.72-.64.2-.4.56-.719 1-1.159Zm511.199-80.178h1.958v.12h-1.958v-.12ZM87.649 145.684c-.44.4-.72.76-1.12.96-.08.04-.68-.52-.64-.72.12-.399.48-.68.76-1.039.28.2.56.439 1 .799ZM63.467 16.427c-.64.08-1.319.12-1.958.2 0-.16-.04-.32-.04-.48.64-.04 1.319-.12 1.958-.2.04.2.04.32.04.48Zm-5.915.558c-.56-.04-1.079-.04-1.639-.08v-.4h1.6c.04.16.039.32.039.48Zm315.353 4.317c.44-.04.879-.12 1.359-.16 0 .08.04.16.04.24-.44.08-.879.2-1.319.28-.04-.16-.04-.28-.08-.36Zm-280.3 66.387c1.679-1.04 2.638-1.64 3.557-2.199 2.718 1.08 1.44 2.918 1.4 5.036-1.68-.959-2.958-1.678-4.957-2.837Zm-3.156 2.397c-.8-1.839-.56-3.278.56-4.677.199 1.52 1.638 3.158-.56 4.677Zm-17.904 1.441c-.72-.44-1.52-.839-2.119-1.359-.12-.12.28-.839.44-1.279l2.518 1.559-.839 1.079Zm-1.762 7.314c.04 2.159-.56 2.918-2.119 2.439-.36-.12-.52-.8-.8-1.199.92-.4 1.8-.76 2.919-1.24Zm-25.059 6.074c1.08-.04 2.159-.08 3.238-.16 0 .24.04.52.04.759l-3.238.24c0-.279-.04-.559-.04-.839Zm21.463-17.063h-3.718v-.36h3.717v.36h.001Zm6.875 14.744h2.677c-1.079 1.479-1.798 1.319-2.677 0Zm-13.909 14.19c-.48 1.959-1.399 2.159-2.438 1.839-.2-.08-.2-.879-.32-1.319.8-.16 1.599-.32 2.758-.52Zm17.104-47.401c-3.996.36-7.993.719-11.99 1.039-.04-.24-.04-.48-.08-.72 4.037-.4 8.114-.76 12.15-1.159-.04.28-.04.56-.08.84Zm-6.072-3.239c1.478-.68 2.957-1.4 4.836-.04-1.599.36-3.158.72-4.756 1.079-.04-.36-.04-.68-.08-1.04v.001Zm8.154.001c2.238-1.399 3.557-2.638 5.195 0h-5.195Zm73.821 27.778h-4.756c1.359-1.319 2.638-1.199 4.756 0Zm-44.607 5.315c-.28 2.118-1.239 2.958-3.517 1.838.639-1.878 1.998-2.038 3.597-1.758l-.08-.08Zm16.789-11.43c-.8-.04-1.639-.08-2.438-.16 0-.28.04-.559.04-.879l2.438.12c-.04.36-.04.639-.04.919ZM276.86 42.167c.719-.72 1.159-1.599 1.799-1.759 1.438-.36 2.478.36 3.037 1.759-1.998.84-1.998.84-4.836 0Z"/>
 </g>
</svg>
