<?xml version="1.0" encoding="UTF-8"?>
<svg width="100" height="40" fill="none" version="1.1" viewBox="0 0 100 40" xmlns="http://www.w3.org/2000/svg">
 <path d="m23 11c0.92-0.25 1.8-0.67 2.8-0.7 2.6-0.076 5.2 0.021 8.4 0.056-1.4 1.1-2.3 1.8-3.2 2.5-1.8-0.037-2.3-1.6-4.2-0.74-1.1 0.47-2 1.1-1.3 2 1.7-0.12 3.5-0.21 5.2-0.36 1.7-0.15 3.5-0.36 5.4-0.55 1.5 0.83 3.9 0.58 6 0.72 0.6 0.041 1.7-0.5 2-0.88 0.46-0.55-0.38-0.89-1.3-1.1-2.6-0.69-5.1-0.24-7.6 0.28-0.46 0.099-0.92 0.22-1.5 0.36 0.36-1.6 1.5-2.2 3.8-2.3 1.3-0.072 2.7-0.23 4-0.46 0.39-0.065 0.97-0.54 0.87-0.75-0.46-1.2 0.91-1 2.7-1.1-0.53 0.83-0.98 1.5-1.5 2.3 0.75 0.077 1.4 0.26 1.8 0.19 3.1-0.43 6.1-0.78 9.2-0.4 0.092 0.018 0.19-0.015 0.32-0.031 4.7-0.24 9.4-0.44 14-0.78 1.6-0.12 2.9-0.35 4.4 0.2 1.2 0.45 1.8 0.089 2.3-1.2 2.3 1.3 1.8 0.76 4.2 0.34 1-0.16 1.3-0.5 0.89-0.87-1.8 0.19-3.5 0.36-5.1 0.53-0.73-0.0078-1.4-0.015-2.3-0.024 0.0082-0.92-0.072-1.7-2-1.9-1.7-0.21-2.1 0.53-3.1 1.4-0.94-0.96-1.7-1.7-2.5-2.5-2.2 0.2-2.5 1-2.8 1.9-0.072 0.28-0.61 0.72-0.96 0.73-1.1 0.058-0.99-0.41-0.86-0.84 0.05-0.12 0.096-0.22 0.15-0.34 0.37-0.78-0.16-1.3-1.6-1.3-1.6-0.017-1.8 0.62-1.8 1.3 0.0099 0.36-0.2 0.74-0.44 1.5-0.76-0.63-1.2-0.95-1.6-1.3-0.59 0.13-1.1 0.26-1.7 0.4-0.23-0.19-0.49-0.32-0.54-0.46-0.37-1.3-0.86-1.5-3.2-1-1.1 0.21-2.3 0.88-3.3-0.29-0.43 0.57-0.74 0.94-1 1.3-0.35-0.021-0.66-0.0072-0.72-0.077-1.2-1.4-3.2-1.4-5.7-0.84-2.8 0.59-5.8 0.28-8.8 0.2-2-0.073-1.4-1.1-1.8-1.8-1.6-0.069-3.3-0.14-4.9-0.23 0.0076-0.052-0.019-0.087-0.011-0.14 1.4-0.037 2.7-0.11 4.1-0.11 1 0.011 2.1 0.04 2.2 0.85 0.033 0.21 0.62 0.54 0.97 0.55 3.3 0.0011 6.7 0.16 10-0.95 2.2 1 5.2 0.52 8 0.59 2.7 0.063 5.5-0.27 8.4-0.45-0.018-0.31-0.054-0.71-0.059-1.1 0.16-0.033 0.32-0.048 0.46-0.082 0.47 0.44 0.92 0.86 1.5 1.4 0.7-0.25 1.4-0.42 1.9-0.71 1.6-1 2.6-1.2 3.8-0.29 0.65 0.51 1.4 0.6 2.4 0.56 1.1-0.04 2.3-0.062 3.4-0.17 0.42-0.047 0.9-0.28 1.2-0.51 0.83-0.72 2-0.84 3.3-0.78 0.13 0.62 0.26 1.2 0.46 2-1 0.11-2 0.2-3.2 0.33 1.8 1.1 3.1 0.76 4.7-1.4 1.6 0.017 3.4 0.14 5.1 0.02 1.6-0.1 3.5 0.45 5.1-0.53-2-0.73-4.3 0.092-7-0.35 1.2-0.16 1.7-0.26 2.2-0.29 7.3-0.37 15-0.78 22-1.1 1.3-0.055 3.4-0.6 3.9 0.72 0.024 0.052 1.7-0.016 1.8-0.14 0.61-1.1 2.2-0.96 3.6-1.1 11-0.68 22-1.4 32-2 7.9-0.45 16-0.83 24-1.1 4.3-0.18 8.6-0.13 13-0.22 5.7-0.11 11-0.28 17-0.37 3.4-0.068 6.7 0.038 10-0.082 5.7-0.2 11 0.5 17-0.075 7.7 0.72 16-0.18 23 0.2 3.1 0.15 6.2 0.38 9.3 0.5 1.4 0.05 3-0.055 4.4-0.091 0.54-0.012 1.1-0.11 1.6-0.07 3.3 0.26 6.5 0.61 10 0.091 3.2-0.45 6.7-0.22 10-0.2 3.2 0.017 6.5 0.21 9.7 0.23 2.6 0.011 5.2-0.099 7.9-0.17 2.6-0.093 5.2-0.29 7.9-0.3 9.2-20 19-20 28-20 6.9 0.074 14 0.39 21 0.55 4.6 0.1 9.3 0.048 14 0.17 8.8 0.25 18 0.55 26 0.87 9.1 0.32 18 0.63 27 1.1 12 0.54 23 0.98 35 0.96 7.9-0.0017 16 0.12 24 0.03 7.8-0.089 16-0.35 23-0.56 0.41-0.013 0.83-0.06 1.3-0.073 9.3-0.21 19-0.32 28-0.64 9.2-0.32 18-0.84 28-1.3 2.3-0.11 4.6-0.24 7-0.39 1.7-0.1 3.4-0.24 5-0.4 1.3-0.12 2.7-0.32 4.1-0.39 6-0.32 12-0.67 18-0.88 7-0.25 14-0.35 21 19 16-0.57 32-0.6 48-0.74 14-0.12 28-0.28 42-0.76 12-0.41 24-0.034 36-0.16 9.9-0.12 20-0.32 30-0.48 12-0.2 24-0.44 36-0.6 9.4-0.14 19-0.21 28-0.32 1.3-0.021 2.5 0.044 3.8 0.041 2.8-0.0046 4.1 0.49 4.4 2 0.2 1.2-0.18 2.5-0.24 3.8-0.036 0.67-0.14 1.4 0.24 2 0.49 0.77 0.49 1.4-0.38 2.1-2.1 1.7-1.7 3.6-1.8 5.4-0.046 0.74 0.29 1.5 0.086 2.2-0.86 2.8-0.44 5.6-0.023 8.3 0.35 2.4 0.22 4.8 0.3 7.3-0.46 0.082-0.95 0.2-1.5 0.24-5.6 0.49-11 1.1-17 1.4-9.2 0.49-18 0.91-28 1.1-9.3 0.18-19 0.0082-28 0.047-2.6 0.0064-5.3 0.24-7.9 0.28-4.9 0.069-9.7 0.051-15 0.12-2.4 0.026-4.8 0.21-7.3 0.25-9.9 0.17-20 0.32-30 0.48-12 0.2-25 0.51-37 1.1-6.5 0.31-13 0.38-20 0.6-5.2 0.17-10 0.48-16 0.63-6.8 0.19-14 0.27-20 0.39-5 0.1-9.9 0.19-15 0.31-5.2 0.14-10 0.41-15 0.42-3.8-0.0066-7.6 0.19-11 0.28-1.2 0.022-2.4 0.11-3.5-0.42-1-0.5-2.5-0.6-3.7 0.27-0.14 0.12-0.52 0.27-0.61 0.25-1.5-0.43-3.6 0.78-4.9-0.38-0.11-0.1-1.4 0.071-2 0.29-1.2 0.49-2.1 1.2-3.4 0.12-0.31-0.25-2.3 0.15-3.5 0.29-0.58 0.063-1.2 0.35-1.7 0.29-4.2-0.44-8.2-0.019-12 0.66-1.8-0.59-3 0.49-4.4 0.59-2.1 0.15-4.5 0.33-6.3 1e-3 -3.4-0.63-6.9-0.47-10-0.3-0.99 0.041-1.9 0.22-3 0.14-1.5-0.1-3.1 0.17-4.6 0.3-0.19 0.015-0.4 0.17-0.56 0.17-1.2-0.099-2.3-0.22-3.5-0.33-1.1-0.12-1.8 0.95-3.1 0.43-0.27-0.11-1.1-0.012-1.4 0.14-1.3 0.77-1.8-0.0017-2.3-0.15-2.5 0.32-4.7 0.61-6.9 0.88-0.26 0.032-0.62-0.059-0.83-0.16-1.2-0.69-2-0.18-2.8 0.26-1.1-0.22-2.1-0.61-3.1-0.59-1 0.023-2.1 0.46-3.5 0.79-0.36-0.12-1-0.36-1.8-0.66-0.51 0.22-1.1 0.46-1.8 0.74-0.45-0.16-0.93-0.34-1.5-0.55-0.51 0.24-1 0.49-1.5 0.73-1.8-0.71-1.9-0.94-5.2-0.26-2.9 0.59-5.4 0.17-8.2 0.051-2.4-0.095-4.8-0.33-6.9 0.69-0.56-0.25-1-0.44-1.6-0.66-3 1.2-6.3 0.68-9.5 0.8-0.29 0.014-0.6-0.25-0.89-0.39-1.2-0.53-2.7-0.53-3.7-0.0051-1.2 0.61-2.5 0.58-3.8 0.6-2.4 0.026-4.8 0.21-7.3 0.23-16 0.18-32 0.38-48 0.46-15 0.06-31 0.21-46 0.63-12 0.33-23 0.39-35 0.6-5.9 0.11-12 0.29-18 0.38-1.2 0.021-2.4-0.16-3.7-0.26-1.7-0.14-3.4-0.54-5.1 0.2-0.24 0.1-0.62 0.13-0.91 0.13-4.4 0.0049-8.7 0.0098-13 0.014-1.6 3e-4 -3.2 7e-4 -4.7 0.019-8.2 0.085-16 0.19-25 0.22-1.1 0.0054-2.2-0.28-3.3-0.4-0.59-0.058-1.3-0.2-1.8-0.054-2.1 0.67-4.2 0.37-6.2 0.35-5-0.071-9.9-0.21-15-0.35-1.5-0.051-3.2 0.1-4.4-0.64-0.18-0.11-0.67-0.2-0.83-0.15-1.7 0.6-3.4 0.45-5 0.05-2.8 0.82-5.3-0.04-7.9-0.22-0.72-0.06-1.5-0.1-2.2 0.011-3.9 0.62-7.6 0.44-11 0.17-2.1-0.14-4.3-0.029-6.5 0.052-1.9 0.066-3.8 0.13-5.5-0.41-0.6-0.2-1.5-0.45-2-0.33-2.4 0.44-4.5-0.14-6.8-0.12-2.4 0.0083-4.8-0.035-7.3-0.061-2.7-0.029-5.4-0.041-8.2-0.1-1.7-0.035-3.3-0.24-4.8 0.48-0.38 0.19-1.5-0.1-2.3-0.18-0.84-0.096-2.1-0.45-2.4-0.27-1.8 0.83-3.7 0.55-5.4 0.43-3.9-0.27-7.7-0.52-12-0.14-1.9 0.19-3.9-0.076-5.8-0.11-1.7-0.036-3.5-0.33-5.1 0.48-0.27 0.14-1 0.21-1.2 0.13-2-1.1-4.6-0.38-6.8-0.35-10 0.13-21 0.49-31 0.72-3.3 0.085-6.7 0.049-10 0.1-7.4 0.13-15 0.29-22 0.37-1.4 0.019-2.8-0.22-4.3-0.36 1.2-1.3 1.2-1.3 5.1-0.98 0.064-0.43 0.12-0.83 0.2-1.4 1.9 0.31 4 0.043 5.1 1.2 0.38 0.4 2.5 0.027 3.3-0.48 0.39-0.27 0.68-0.56 1.3-1 1.7 0.54 3.2 1 4.9 1.5 1.2-0.45 2.1-0.98 2.4-1.8 2.1 0.56 2.8 0.52 6.5-0.43-2.3-0.35-4.4 0.14-6.5 0.45-0.81-0.078-1.6-0.16-2.4-0.23-0.023-0.28-0.077-0.55-0.11-0.95-0.84 0.078-1.8-0.0024-2.4 0.23-2.6 1.2-5.1 0.57-7.6 0.18-0.46-0.074-0.98-0.2-1.4-0.14-1.9 0.24-3.9 0.53-5.9 0.8-0.66-0.23-0.8-0.8-2.4-0.56-1.6 0.26-3.4-0.18-5.1-0.18-3.6-0.0045-7.4 0.51-11-0.14-1.9 0.71-3.7 0.029-5.5-0.076-2.9-0.15-5.8 0.059-8.7 0.34-1.7 0.17-3 0.02-4.3-0.55-0.68-0.3-1.6-0.47-2.6-0.74-0.63 0.37-1.2 0.7-1.9 1.1-0.69-0.27-1.3-0.52-2-0.78-0.032-4e-4 -0.18-0.037-0.25-0.02-2.9 1.2-5.8-0.69-8.7 0.18-0.36 0.1-1.2 0.039-1.5-0.14-1-0.65-2.1-0.54-3.4-0.21-0.2 0.05-0.46 0.12-0.61 0.08-1-0.22-2-0.61-3.1-0.67-0.88-0.061-1.8 1-2.9 0.11-0.23-0.18-1.2-0.082-1.8-0.11-2.8-0.17-5.6-0.34-8.4-0.49-1-0.063-2.1-0.074-3.1-0.051-2 0.048-3.9 0.13-5.9 0.18-0.35 0.014-0.77-0.13-1-0.29-0.99-0.62-2.2-0.63-3.6-0.44-2.2 0.29-3-0.015-3.9-0.96l-0.0026 0.017c0.41-0.19 0.94-0.6 1.2-0.54 1.5 0.24 2.8 0.32 4.5-0.16 1.1-0.32 3.3-0.1 4.3 0.36 1.5 0.67 2.8 0.57 4.4 0.36 1.4-0.18 2.9-0.66 4 0.22 0.17 0.12 0.78 0.078 1.2 0.082 1.8 0.037 3.8-0.29 5.5 0.32 0.42 0.14 1.5-0.24 2.3-0.41 0.86 0.22 1.9 0.49 2.2 0.58 1.9-0.45 3.2-0.76 4.5-1.1 0.94 0.48 1.7 0.85 2.5 1.3 1.6-0.21 3.3-1.1 4.4 0.15 2.8-0.2 5.6 0.86 8.4-0.6 1.7 0.74 3.3 1.1 5.7 0.44 1.1-0.32 2.7-0.18 4.1-0.53 0.53-0.13 1.4 0.12 2 0.28 0.82 0.22 1.6 0.52 2.6 0.84 1.4-0.85 2.8-0.71 4.2 0.028 0.88-0.39 1.6-0.73 2.4-1.1 0.17 0.11 0.48 0.21 0.49 0.33 0.19 0.83 0.92 1.1 2.4 0.67 3-0.85 3.7-0.83 6.1 0.19 2.4-0.96 4.8-1.6 7.5-0.49 0.54 0.21 1.7 0.16 2.4 0.0082 2.8-0.52 5.4-0.56 7.8 0.24 2.4-0.74 4.6-1.4 7-0.6 0.3 0.09 0.81 0.061 1.2 0.013 1.7-0.21 3.5-0.43 5.4-0.69 0.23-0.46-0.17-0.8-1.2-0.77-2.9 0.073-5.9 0.46-8.7 0.22-2-0.18-4.4 0.73-6.3-0.34-0.47-0.28-2-0.074-3 0.019-4.1 0.34-8.2 0.55-12-0.077-2.4-0.39-4.4-0.31-6.5 0.31-0.76-0.41-1.4-0.76-2.4-1.2-0.46 0.57-0.78 0.96-1.2 1.4-0.49-0.13-1.1-0.17-1.4-0.34-0.97-0.5-2-0.73-3.4-0.5-0.65 0.097-1.4-0.067-2.1-0.14-0.31-0.038-0.69-0.23-0.83-0.18-2.4 1-4.6-0.15-6.9 0.03-0.96 0.076-1.9 0.29-2.9 0.45-1.2-1.3-2.6-1.5-4.9-0.64-0.71 0.27-1.7 0.41-2.6 0.44-1.9 0.049-3.8-0.023-6-0.047 0.38-0.67 0.68-1.2 1-1.7-0.54-0.023-0.97-0.11-1.1-0.029-3.3 1.7-6.7 1.5-10 0.57-0.7-0.2-1.9-0.42-2.4-0.23-3 1.2-4.5-0.26-6.7-0.8-0.77-0.18-2.2 0.36-3.4 0.57-3.4-1.1-3.4-1.1-6.3-0.79-0.072-0.59-0.11-1.2-0.22-2 1.1 0.24 1.8 0.4 2.6 0.55 2.6-1.4 5.4-1.3 7.9 0.52 3.8-0.91 7.5-0.75 11 0.12 0.67 0.16 1.7-0.069 2.5-0.077 2.4 0.0082 4.7 0.051 7.6 0.082 2.1-0.62 4.7-1.1 7.5-0.46 0.43 0.091 0.99 0.17 1.5 0.12 3.3-0.31 6 0.5 8.8 1.3 3.1-0.97 4-1.9 2.8-2.9-1.2-0.98-2.5-1-5 0.051-0.22-0.24-0.41-0.47-0.59-0.7-0.16-0.21-0.29-0.42-0.59-0.92-0.81 0.79-1.2 1.1-1.7 1.6-1-0.44-2-0.87-3.1-1.3 1.1-1 2.6-1.1 4.4-0.94 2.5 0.25 5 0.45 7.6 0.67 0.31 0.021 0.63 0.0068 0.93-0.042 2.6-0.41 5-0.64 7.7-0.16 2.4 0.44 5.1-0.1 7.5-0.27 1.1-0.075 1.9-0.083 3 0.015 4.3 0.43 8.7 0.54 13 0.18 1.1-0.092 2.2-0.36 3.6-0.6 1.5 1.2 4.2 0.3 6.5 0.71 0.33-0.5 0.61-0.93 0.97-1.4 0.7-0.44 2.7 0.13 2.8-1-1.1 0.057-2.3 0.062-3.4 0.19-1.1 0.11-2.1 0.34-3.4 0.57-0.57-1.3-2-2.5-0.12-3.7 1.7-0.16 3.2-0.31 4.9-0.47 0.027 0.68 0.071 1.5 0.11 2.3 1.4 0.068 1.6-0.42 1.5-1.1-0.088-0.69-0.64-1.4 0.78-2.3 0.19 0.4 0.15 0.73 0.44 0.85 0.57 0.23 1.3 0.36 2 0.52 0.85-1.1 2.7-0.44 3.9-0.77 1.2-0.3 1.6 0.17 1.8 0.73 1.6-0.59 3.1-1.2 4.9-1.9 0.37 0.71 0.59 1.2 0.91 1.8 1.2-0.19 2.8-0.18 3.3-0.57 1.8-1.2 4.4-0.75 6.5-1.2 1.3-0.31 2.6 0.25 2.6 1.3 1.2-0.39 2.3-1.9 3.5-0.12 0.81-0.55 1.4-0.94 1.9-1.3 3.3-0.1 6.5 0.018 9.5-0.33 4.9-0.57 9.7-0.47 15-0.66 0.32-0.014 0.72 0.025 0.93-0.076 2.1-0.93 4-0.46 5.4 0.023 2.4-0.23 4.3-0.42 6.3-0.61 1.6-0.14 1.6-0.12 2.8-1.5-2.6 0.059-5 0.05-7.4 0.18-1.8 0.1-3.5 0.43-5.3 0.58-0.8 0.078-1.7 0.051-2.5-0.027-1.5-0.12-2.9-0.31-3.8 0.46-2.9-0.43-5.5-0.84-8.4-0.09-1.2 0.32-2.4 0.41-3.7 0.047-0.52-0.14-1.4-0.29-1.8-0.14-2 0.9-4 0.22-6 0.23-3 0.037-6 0.16-9 0.21-1.3 0.021-2.6-0.028-3.8-0.0066-3.3 0.068-6.6 0.17-10 0.27-0.6 0.011-1.2 0.11-1.8 0.17-0.61 0.063-1.4 0.28-1.8 0.14-1.7-0.55-3.3-0.24-5.1-0.12-3.4 0.24-6.8 0.014-10 0.029-3 0.0026-5.9-0.098-8.9 0.11-2.8 0.2-5.6-0.13-8.3 0.032-3.3 0.21-6.4-0.64-9.8-0.12-1.9 0.27-4.1-0.2-6.5-0.36-0.21-0.54-0.46-1.2-0.78-2 2.8 0.32 5.6 0.026 7.2 1.5 1.8-0.54 3.3-1 4.9-1.5l-0.1 0.034c0.31 0.28 0.59 0.54 1.1 0.98 0.35-0.26 0.55-0.5 0.91-0.6 0.66-0.18 1.4-0.24 2.1-0.39 1.8-0.34 2-0.79 1-1.6-0.23-0.18-0.59-0.3-0.89-0.44l-0.1 0.051zm27 15c0.028 0.68 0.67 1.2 1.8 1.1 2-0.32 3.9-0.89 5.8-1.4 0.1-0.034 0.012-0.29 0.033-0.66-1 0.35-1.7 0.6-2.4 0.86-2.9-0.86-2.9-0.86-5.3 0.19-1.3-0.9-2.5-1.2-3.8-0.77-1.2 0.33-1.6 0.87-1.2 1.6 0.59-0.17 1.2-0.45 1.4-0.38 1.5 0.52 2.5-0.0074 3.7-0.48zm4.2-14c-0.37-1.1-1.9-0.4-2.7-0.31-1.3 0.18-2.2 0.24-2.7-0.65-1.4 0.5-2.6 0.92-4.1 1.5 3.7 0.52 6.4 0.33 9.5-0.56 0.14 0.35-0.032 0.87 1.1 0.7 0.29-0.032 0.72-0.36 0.64-0.48-0.27-0.73-1.1-0.32-1.8-0.18zm-48 13 0.1-0.051c-0.51 0.22-1.3 0.38-1.5 0.66-0.28 0.38-0.39 0.91-0.059 1.3 0.22 0.24 1.3 0.43 1.9 0.31 1.7-0.33 3.4-0.78 5.1-1.2 0.23-0.067 0.47-0.17 0.9-0.34-0.084 0.57-0.15 1-0.24 1.6 1.4-0.11 2.7-0.21 3.9-0.29 1.3-0.089 2.7-0.2 4.1-0.2 2.9-0.0036 5.8 0.044 8.5 0.073 0.39-0.5 0.63-0.82 1-1.3 0.8 0.6 1.4 1 1.9 1.4 1.1-0.18 2.1-0.51 2.9-0.42 0.87 0.096 1.5 0.59 2.2 0.87 1.5-0.64 3.9-0.53 4.8-1.7-0.6-0.47-1.2-0.95-1.8-1.5-1.5 0.21-3 0.47-4.5 0.64-0.55 0.063-1.3 0.0033-1.8-0.16-2.4-0.84-4.5-0.69-6.4 0.8-0.68-0.75-1.5-0.92-3-0.88-3.1 0.088-6.2-0.22-9.3-0.38-2.8-0.13-5.5-0.25-8.6-0.39-0.047 0.54-0.024 0.81 7.3e-4 1.1zm66-13c2 0.49 3.4-0.22 4.9-0.36 1.7-0.15 3.7-0.65 5.2-0.38 3.6 0.63 7.3-0.63 11 0.18 0.15 0.036 0.45-0.03 0.58-0.098 1.7-0.86 3.9-0.89 6.6-0.88-1.9-0.71-3.2-1.2-4.7-1.8-0.43 0.34-1.1 0.84-1.8 1.3-0.98-0.011-1.9-0.072-2.9-0.013-1.8 0.085-3.4 0.14-5.2-0.091-1.5-0.19-3.4 0.41-5.2 0.65-0.29 0.049-0.64 0.062-0.92 0.0075-2.9-0.55-5 0.36-7.3 1.5zm-1.2-0.88c-0.8-0.15-1.5-0.19-1.9-0.38-1.9-0.94-3.7-0.77-5.7 0.078-1.8 0.78-3.9 1.2-6.2 0.4 0.12 0.47 0.27 0.96 0.7 1 1.1 0.17 2.4 0.37 3.3 0.17 2.2-0.48 4.2-0.42 6.4-0.087 0.46 0.074 1 0.028 1.4 0.033 0.63-0.41 1.2-0.77 1.9-1.2zm13-4.2c0.5 0.27 1 0.51 1.4 0.72 1.4-0.21 2.7-0.39 4.2-0.61-0.23-0.57 0.48-1.3-1.8-1.2-0.7 0.044-1.5-0.57-2.2-0.94-0.65-0.35-1.2-0.76-1.9-1.3-0.59 0.79-0.98 1.3-1.4 1.8 1 0.011 1.8 0.019 2.8 0.03-0.43 0.55-0.75 0.98-1.1 1.4zm24-2.1c0.49 1.2 2.4 0.8 3.6 0.97 0.81 0.11 1.8-0.032 1.7-0.69-0.11-0.56-0.85-0.7-1.8-0.61-1.1 0.092-2.2 0.2-3.4 0.33zm-7.8 0.78c-0.011 0.29-0.18 0.6 0.01 0.8 0.19 0.19 0.71 0.35 1.1 0.38 0.25 0.02 0.8-0.23 0.88-0.39 0.36-0.71-0.1-1.2-1.3-1.5-1-0.2-2.1-0.26-2.6 0.51-0.084 0.14 0.081 0.31 0.15 0.49 0.55-0.098 1-0.18 1.7-0.29zm-35 20c1.2 0.39 1.8 0.57 2.3 0.75 0.78-0.75 3.3-0.41 3.6-1.9-1.9 0.36-3.5 0.67-5.9 1.1zm72-13c0.017 0.1 0.065 0.21 0.078 0.33 1.4 0.1 2.8 0.24 4.2 0.27 0.41 0.0044 0.88-0.35 1.3-0.56-0.45-0.18-0.85-0.48-1.4-0.5-1.1-0.029-2.2 0.046-3.3 0.14-0.32 0.014-0.63 0.2-0.97 0.32zm-58 6.2c1.6 0.74 3 0.45 4.6 0.33-0.98-1.3-0.98-1.3-4.6-0.33zm37-10c-3.6-0.21-4.4 0.092-3.6 1.4 1.1-0.4 2-0.77 3.6-1.4zm-22-3.3c-0.17-0.11-0.35-0.23-0.52-0.33-1 0.23-2.2 0.25-3.1 0.83 0.91 0.25 1.7 0.45 2.6 0.7 0.27-0.33 0.62-0.76 1-1.2zm13-2.4c0.021-0.14 0.041-0.28 0.061-0.41-1.8-0.8-1.8-0.8-3.2 0.5 1.2-0.022 2.2-0.063 3.1-0.088zm-33 20c-0.19-0.83-0.31-1.4-0.51-2.1-0.98 0.66-1.7 1.1-2.6 1.7 1.2 0.15 1.8 0.24 3.1 0.4zm-13-1c1.1 1.1 2.1 1.3 3.5 0.35-0.94-0.079-1.9-0.18-3.5-0.35zm86-9.9c-0.94 0.35-1.5 0.54-2.2 0.82 0.83 0.39 1.5 0.67 2.6 1.2-0.13-0.85-0.22-1.3-0.34-2zm-11 0.71c-1.4 0.072-2.5 0.13-4.1 0.2 2.1 0.94 2.3 0.92 4.1-0.2zm376-0.2c-2.1-0.27-2.1-0.27-2.9 0.78 1.3-0.33 2.1-0.55 2.9-0.78zm-388-0.28c0.08 0.75 0.11 1.2 0.15 1.6 0.48-0.047 1.2-0.0046 1.4-0.14 0.72-0.56 0.17-0.93-1.5-1.5zm4 1.7c0.83-0.46 1.3-0.75 2-1.1-2.5-0.36-2.5-0.34-2 1.1zm-78 9.1c1 0.011 1.8 0.019 2.7 0.029-0.99-1-0.99-1-2.7-0.029zm30-17c0.27 0.072 0.55 0.14 0.86 0.2 0.69-0.37 1.5-0.73 0.68-1.8-0.71 0.72-1.1 1.1-1.5 1.6zm412 6.4c-0.026 0.17-0.048 0.33-0.042 0.5 0.82 0.46 1.5 0.31 2.7-0.54-1.3 0.021-2 0.03-2.7 0.04zm-383-3c-0.88 0.15-1.7 0.24-1.4 0.89 0.048 0.1 0.5 0.23 0.73 0.22 1.2-0.14 1.1-0.56 0.67-1.1zm-6 0.75c2 0.73 2 0.73 3.2-0.087-1.1 0.023-1.9 0.049-3.2 0.087zm-33 9.5c1.6 0.4 2.1 0.18 1.9-0.79-0.84 0.35-1.4 0.57-1.9 0.79zm2 16c0.17-0.1 0.35-0.2 0.55-0.31-0.56-0.28-1.1-0.58-1.8-0.94-1 1.2 0.21 1.2 1.2 1.2zm-15-4.6c-0.21-0.072-0.42-0.14-0.67-0.2-0.71 0.29-1.8 0.48-0.81 1.4 0.62-0.53 1-0.89 1.5-1.2zm8.2-13c0.57 0.89 0.53 0.89 1.5 0.99 0.092 0.018 0.27-0.14 0.69-0.36-0.64-0.18-1.2-0.36-2.2-0.63zm39-13c-0.18 0.14-0.32 0.27-0.5 0.41 0.63 0.21 1.2 0.43 1.9 0.64 0.14-0.12 0.32-0.26 0.47-0.38-0.6-0.25-1.2-0.46-1.8-0.68zm23 3.8c-9e-3 -0.16-0.052-0.29-0.061-0.45-0.61 0.045-1.3 0.11-1.9 0.15 0.011 0.14 0.022 0.28 0.036 0.4 0.64-0.028 1.2-0.056 1.9-0.1zm-39-4.5c0.66 0.0071 1.3 0.014 2.2 0.023-0.4-0.97-1.2-0.71-2.2-0.023zm-26 31c-0.24 0.14-0.48 0.25-0.72 0.39 0.5 0.25 1 0.48 1.5 0.73 0.17-0.1 0.35-0.2 0.52-0.31-0.44-0.26-0.87-0.53-1.3-0.81zm-4.7-13c0.0087 0.16 0.049 0.31 0.058 0.47 0.54-0.029 1.1-0.074 1.7-0.1-0.04-0.16-0.063-0.43-0.16-0.43-0.51-0.0054-1.1 0.041-1.6 0.07zm491-11c-0.11-0.12-0.19-0.23-0.3-0.35-0.53 0.17-1.1 0.32-1.6 0.48 0.051 0.087 0.14 0.16 0.19 0.24 0.59-0.13 1.2-0.25 1.7-0.38zm-493 11c-0.27-0.089-0.54-0.18-0.81-0.29-0.33 0.31-0.7 0.63-1 0.94 0.21 0.072 0.42 0.14 0.6 0.21 0.39-0.29 0.81-0.58 1.2-0.87zm22 2.2c-0.47-0.23-0.7-0.41-1-0.44-0.16-0.019-0.66 0.2-0.64 0.27 0.035 0.19 0.22 0.42 0.47 0.49 0.18 0.037 0.62-0.15 1.2-0.32zm6.9-0.26c0.95 0.41 1.2 0.6 1.4 0.57 0.33-0.083 0.58-0.27 0.85-0.41-0.24-0.12-0.46-0.35-0.71-0.37-0.38-0.021-0.81 0.11-1.5 0.21zm66-11c8e-3 -0.48 0.022-0.8 0.017-1.2-1.9 0.46-1.6 0.78-0.017 1.2zm361 2.3c0.28-0.15 0.61-0.29 0.59-0.37-0.014-0.12-0.31-0.28-0.53-0.3-0.16-0.019-0.53 0.17-0.55 0.27-0.018 0.12 0.25 0.23 0.48 0.4zm-431 7c-0.3-0.12-0.5-0.27-0.72-0.28-0.25-0.02-0.52 0.098-0.78 0.15 0.23 0.16 0.39 0.33 0.7 0.44 0.092 0.018 0.44-0.17 0.8-0.3zm-3.3-17c-0.11-0.088-0.23-0.18-0.31-0.26-0.47 0.17-0.91 0.35-1.4 0.52 0.085 0.07 0.17 0.16 0.28 0.23 0.47-0.17 0.94-0.34 1.4-0.49zm1.6 20c-0.17 0.1-0.32 0.22-0.49 0.32 0.42 0.16 0.84 0.3 1.3 0.46 0.11-0.085 0.25-0.17 0.35-0.26-0.35-0.19-0.74-0.37-1.1-0.53zm-2.6-3.6c-0.28 0.17-0.64 0.29-0.63 0.39 0.014 0.12 0.3 0.31 0.52 0.32 0.19 2e-3 0.6-0.17 0.61-0.29 0.049-0.12-0.28-0.25-0.51-0.42zm4.7-1.3c-0.42 0.29-0.66 0.43-0.64 0.44 0.17 0.11 0.38 0.19 0.59 0.28 0.11-0.085 0.34-0.17 0.32-0.22-0.04-0.16-0.18-0.31-0.27-0.5zm21 4.5c0.18-0.15 0.52-0.31 0.46-0.36-0.11-0.12-0.38-0.25-0.63-0.25-0.16-0.0017-0.37 0.17-0.58 0.27 0.21 0.11 0.42 0.19 0.74 0.34zm1.1-4.1c0.45-0.46 0.66-0.62 0.68-0.75 0.016-0.1-0.25-0.21-0.43-0.32-0.17 0.067-0.4 0.13-0.44 0.22-0.018 0.12 0.057 0.26 0.19 0.85zm28-17c0.21-0.12 0.38-0.22 0.56-0.34-0.15-0.036-0.3-0.14-0.42-0.13-0.16 0.016-0.37 0.12-0.44 0.2-0.039 0.052 0.17 0.14 0.31 0.26zm5.3 5.1c0.3-0.083 0.46-0.13 0.63-0.18-0.18-0.11-0.28-0.23-0.5-0.28-0.093-0.018-0.33 0.083-0.53 0.13 0.14 0.11 0.25 0.23 0.4 0.33zm309 20c-0.14-0.12-0.22-0.21-0.34-0.3-0.23 0.084-0.47 0.15-0.67 0.24 0.082 0.088 0.22 0.24 0.28 0.23 0.26-0.015 0.49-0.099 0.72-0.17zm-326-19c-0.051-0.087-0.062-0.23-0.18-0.26-0.09-0.036-0.32 0.031-0.48 0.047 0.077 0.12 0.15 0.24 0.23 0.37 0.16-0.033 0.3-0.083 0.44-0.15zm-0.96-4.9c0.26-0.066 0.43-0.12 0.6-0.17-0.14-0.11-0.25-0.25-0.43-0.33-0.06-0.018-0.46 0.099-0.43 0.12 0.043 0.14 0.15 0.26 0.26 0.38zm351 24c-0.15-0.054-0.27-0.11-0.45-0.14-0.061-0.018-0.17 0.05-0.23 0.084 0.084 0.07 0.17 0.16 0.28 0.23 0.13-0.05 0.27-0.1 0.4-0.17zm-360-4.7c-0.21 0.12-0.34 0.19-0.45 0.25 0.15 0.071 0.26 0.18 0.45 0.2 0.12 0.019 0.33-0.066 0.49-0.099-0.18-0.11-0.32-0.23-0.49-0.35zm368-11c0.11 0.14 0.21 0.31 0.27 0.31 0.29-0.014 0.55-0.098 0.81-0.15-0.11-0.12-0.22-0.24-0.33-0.37-0.23 0.05-0.5 0.13-0.76 0.2zm-371 8.1c0.082 0.087 0.096 0.21 0.25 0.25 0.093 0.018 0.3-0.066 0.46-0.12-0.11-0.11-0.22-0.23-0.33-0.33-0.1 0.068-0.24 0.14-0.38 0.2zm-19 1.1c0.022 0.069 0.04 0.16 0.062 0.23 0.19 0.0021 0.44 0.057 0.57 0.023 0.2-0.067 0.32-0.2 0.46-0.31-0.32 0.031-0.7 0.044-1.1 0.058zm442-10c-0.62-0.13-0.86-0.2-1.1-0.2-0.16-0.0017-0.46 0.082-0.46 0.13-0.018 0.12 0.088 0.26 0.16 0.38 0.23-0.049 0.46-0.099 1.4-0.31zm-484 8.3c0.24-0.1 0.5-0.19 0.68-0.3 0.034-0.017-0.22-0.24-0.25-0.23-0.26 0.066-0.5 0.15-0.76 0.23 0.11 0.088 0.2 0.18 0.34 0.3zm24 2.7c0.17-0.068 0.27-0.14 0.41-0.19-0.12-0.07-0.2-0.18-0.32-0.18s-0.33 0.1-0.37 0.17c0.024 0.052 0.2 0.12 0.29 0.19z" fill="#F8F3EC"/>
</svg>
