<?xml version="1.0" encoding="UTF-8"?>
<svg width="366" height="50" version="1.1" viewBox="0 0 366 50" xmlns="http://www.w3.org/2000/svg">
 <path d="m55 32c0.86-0.68 1.4-1.1 1.9-1.5-4.2 0.76-8.1 1.5-13 0.32 3.1-0.98 5.6-1.9 10-0.83 0.73-0.7 1.2-1.1 1.7-1.7 3.4-0.085 7-0.19 11-0.3-0.43-1.9 5.7-1.7 7.1-2.7 3.1 0.19 5.4 0.42 7.8 0.4 0.74 0 1.5-0.64 2.6-1.2h4.5c0.55 0.81 1.4 1.5 4.9 0.95-0.061-0.32-0.18-0.68-0.31-1.1 1.2-0.085 2.3-0.17 3.5-0.28 0.12-0.11 0.18-0.21 0.31-0.32-2.2-0.32-4.4-0.66-6.7-0.89-0.49-0.064-1.3 0.34-2 0.38-1.9 0.13-4.6 0.49-5.5 0.19-2.5-0.85-4.8-0.38-7.6-0.19-0.55-0.62 1.2-1.5-1.4-1.7-1.3-0.11-2.9 0.11-4.3 0.3-1.9 0.26-3.6 0.64-5.3 0.96-0.18-0.36-0.55-0.96-0.8-1.5 4.9-0.47 10-0.98 16-1.5 1.2 0.13 3.4 0.34 5.5 0.57-2.3-2-7.9-0.81-12-1.9 3.6-0.3 6.6-0.51 10-0.38 3.1 0.11 6.3-0.19 9.5-0.25 0.92-0.022 1.8 0.11 2.8 0.15 0.92 0.064 2.1 0.23 2.8 0.13 7.8-1.2 16-0.49 24-0.55 6.1-0.043 12 0.23 18 0.3 1.8 0.021 3.5-0.23 5.3-0.21 1.8 0.042 3.5 0.3 5.4 0.7-4.1 0.13-8.1 0.25-13 0.38 2.6 1.8 2.8 1.8 6.9 1.6 2-0.085 4.4-0.55 5.9 0.4-1.2 0.51-2.4 0.98-3.4 1.5-1.8 0.93-4.1 0.66-6.5 0.47-2.8-0.21-5.8-0.49-6.4 1.2 3.5 0.084 7 0.19 11 0.3-0.92 0.42-1.7 0.78-3 1.4 4 0.15 7.3 0.32 11 0.4 3.5 0.11 7.1 0.15 11 0.21-2.1 1.6-0.12 2.7 2.4 3.9-2.1 0.085-3.8 0.15-5.4 0.21-0.12 0.13-0.43 0.28-0.37 0.36 0.73 0.62 1.8 1.1 1.3 1.9-0.18 0.34 2.4 0.62 1.7 1.5-0.73 0.83 2 1.4 5.4 1.4 3.1 0.042 6.2 0.13 9.5 0.59-1.3 0.21-2.7 0.44-5.3 0.85 4.7 0.11 8.1 0.17 12 0.28-0.31-0.53-0.55-0.83-0.67-1.1-0.12-0.26-0.24-0.49-0.43-0.85 1 0.085 2 0.064 2.1 0.17 1.2 0.98 2.6 1.9 5.9 2.3a7.6 7.6 0 0 1-0.37 0.42c-4.2 0.15-8.9 0.72-13 0.32-3.7-0.38-6.5-0.44-9.9 0.17-1.4-0.36-2.8-0.7-4.6-1.2-0.73 1.9 4.3 1.7 6.4 2.7a701 701 0 0 1-3.7-0.063c-4.7-0.085-9.2-0.19-13 0.91-2 0.55-4.1 0.78-4.9-0.53-0.061-0.15-3.6-0.022-5.7-0.022 0.061 1.4 3.8 1.1 5.5 1.8-2.8 0.76-6.4 0.11-10 0.7 5.8 1.2 12 0.95 17 1.9-9.7-0.15-19 0.28-29 0.64 5.1 0.81 11-0.21 16 0.44 5.3 0.72 10-0.4 15 0.59-5.2 0.19-10 0.32-16 0.55-5.4 0.23-11 0.53-17-0.49 0.31 1.6 3.1 2 6.1 2.6 0.49-0.57 0.86-1 1.2-1.4 6.7-0.21 7.1-0.15 8 1.4-5.9 0.064-12 0.085-18 0.21-3.3 0.064-4.3-0.93-6.9-1.5a42 42 0 0 0-0.86 1.7c-4-0.021-8.1 0.34-12-0.98-0.8-0.3-2.6-0.34-4-0.38-3.6-0.11-7.2-0.15-12-0.53l3.1-0.38c-0.18-0.13-0.37-0.23-0.55-0.36-2.5-0.11-5-0.21-8.8-0.38 9.4-0.13 17-0.26 26-0.36v-0.49c-9.9-0.17-20-0.34-30-0.49 2-0.93 2-0.93 5.7-1.3-0.73-0.42-2-0.83-2-1.3-0.06-0.42 1.2-0.85 1.8-1.3-1.3-0.62-2.5-1.2-4.2-2-1 0.59-1.8 1-2.9 1.6-2.9-1.6-7.2-1.8-12-1.7-6.4 0.11-13-0.11-19-0.11-2 0-4 0.3-6 0.34a61 61 0 0 1-6.5-0.15c5.1-1.4 12-0.042 18-1.1-2.1-1-5-0.55-8.4-0.87 3.4-0.42 5.9-0.85 8.6-1 2.7-0.19 5.5-0.15 9-0.21-1.2-0.68-2-1.1-2.9-1.7-1.5 0.38-2.8 0.68-4.4 1.1-2.3-1.5-6.8-0.61-11-1.3 3.4 0 5.6 0.063 7.6-0.022 1.5-0.063 3-0.3 4.5-0.42 2.1-0.17 4.6-0.66 6.2-0.4 6.2 0.91 12-0.085 18-0.32 2.9-0.11 5.5-0.68 8.6-0.19 0.73 0.13 1.9-0.11 3.6-0.21-2.3-0.87-4.7-0.89-7.3-0.81-5.2 0.19-10 0.085-15-0.53-2.8-0.32-6.3 0.02-9.4 0.17-1.5 0.084-2.8 0.38-4.8 0.68zm104-3.9c0.12 0.13 0.18 0.3 0.43 0.36 0.55 0.13 1.2 0.21 1.9 0.3 0 0 0.43-0.3 0.37-0.3-0.55-0.13-1.1-0.28-1.8-0.34-0.31-0.042-0.73 0.043-1.1 0.064 0.24-0.85-0.67-1.3-3.4-1.3 0.12 0.87 2 1 3.6 1.2zm-62 3.6c3.7 1.4 13 1.3 21-0.21-3.4 0.043-6.7 0.17-10 0.34-3.5 0.17-6.6-1.3-11-0.13zm29-12c4 1.4 6.7 1.4 12-0.022-4.2-0.76-7.7 0.36-12 0.022zm27 12c0.12 0.57 0.24 1.1 0.37 1.6 2.6 0.38 4.4 0.25 4.5-0.72 0-1.2-2.5-0.98-4.8-0.89zm-19-7.8c-2.3 0.64-6.7-1.2-8.3 0.78 3.5 0.51 5.9-0.15 8.3-0.78zm-43 18-0.37 0.51c2.1 0.23 4.1 0.49 6.2 0.72-0.55-1.7-3.6-1.2-5.8-1.2zm-25-3.2c-0.12-0.19-0.24-0.4-0.43-0.59-2.4 0.34-5.5-0.44-7.6 0.36 0.062 0.17 0.18 0.34 0.25 0.51 2.6-0.085 5.3-0.19 7.8-0.28zm58 8c-3.1-0.23-6.1-0.68-9.5 0.15 3.8 0.89 6.5-0.17 9.5-0.15zm-34-27c-0.18 0.15-0.43 0.32-0.61 0.47 1.5 0.83 3.4 1.2 7 0.36-2.6-0.32-4.5-0.57-6.4-0.83zm45 24c-2.4 0.51-2.4 0.51-2.6 1.5 3.2-0.063 3.1-0.68 2.6-1.5zm-24-18c-0.062-1.4-1.5-1.6-4.7-1.1 1.6 0.38 2.8 0.66 4.7 1.1zm-28 10c-0.12 0.13-0.18 0.26-0.31 0.38 0.92 0.085 1.8 0.19 2.8 0.26 0.061 0 0.31-0.23 0.43-0.36-0.98-0.11-1.9-0.19-2.9-0.28zm36-15c-0.061 0.084-0.12 0.15-0.12 0.23 0.67 0.085 1.3 0.26 2 0.26 0.73 0 1.4-0.13 2.1-0.21-0.062-0.085-0.12-0.19-0.18-0.28h-3.9zm-30 20c0.92 0.19 1.4 0.36 1.8 0.34 0.49-0.043 0.98-0.23 1.2-0.38 0.06-0.085-0.61-0.38-0.8-0.36-0.61 0.063-1.2 0.21-2.1 0.4zm30 4.1c0.67 0.19 0.98 0.34 1.4 0.38 0.24 0.02 0.92-0.13 0.92-0.15-0.061-0.15-0.24-0.4-0.55-0.42-0.43-0.042-0.92 0.085-1.8 0.19zm-55-13c0.61-0.26 1.3-0.4 1.2-0.51-0.18-0.23-0.73-0.42-1.1-0.61-0.37 0.13-1.2 0.25-1.1 0.36 0.061 0.23 0.55 0.45 0.98 0.76zm39-4.7v0.19c1 0.022 2 0.064 3.1 0.085 0-0.085 0-0.17 0.061-0.28h-3.1zm197-9.8c-6.6 0.043-13 0.064-20 0.13-1.8 0.021-3.5 0.15-5.5-0.17 25-1.5 50-3.1 75-4.6 0.49 0.064 0.98 0.085 1.2 0.17 2 0.89-0.49 2.3 2.9 3.1 0.31 0.085-0.49 0.93-1.2 1.3-1.6 0.78-3.5 1.5-5.3 2.2 3.2 0.57 7 1.3 10 1.9 0.18 0.51-0.062 1.2 0.61 1.3 2 0.4 0.92 1.1 1.5 1.4 1.5 0.7 0.67 1-0.18 1.6-1 0.76-0.98 1.7-1.5 2.7 1.5 0.59 2.9 1.4 5 1.9 2.3 0.59-0.062 1.5 2.2 2.2 1.2 0.34 0.37 1.7-0.49 2.5-1.8 1.6-1.3 3.1 0.67 4.6 2.3 1.9-1.5 4.1-7.2 4.2-6 0.11-12 0.042-18-0.022-1.5-0.02-3.1-0.3-5-0.49-1 0.47-2.2 1-3.4 1.5-3.3-0.32-6.4-0.59-9.7-0.91-0.74 0.55-1.3 1-2 1.5-5.9-1.7-9-2.3-12 0.043-4.2-0.064-8.4-0.26-13-0.19-4.2 0.063-8.4 0.38-13 0.59 4.6-1.9 5-1.9 11-1.2 2.1-0.49 4.2-0.96 6.5-1.5-2.7-0.62-7.2 0.21-8.8-1.2 0.55-0.51 1.1-1 2.1-1.9-6.5 1-12 1.3-17 0.83l-0.73-0.51c1-0.19 2.1-0.36 3.2-0.53-0.55-0.21-0.8-0.38-1-0.38-1-0.021-2.2-0.13-3 0.021-6.5 1.3-13 0.4-20 0.085 1.2-1.3 4.5-0.38 6.7-1.1-1.2-0.17-2.2-0.47-3.1-0.4-3.5 0.21-7.6-0.085-10 1.3-1.6 0.85-2.6 0.7-6.1-0.51-5.3 0.3-9.6 2-16 1.3-1.2-1.9-0.98-2 8.1-2 0.18-0.17 0.55-0.34 0.61-0.53 0.12-0.19 0-0.4 0-0.55 1.5 0.32 3.1 0.64 4.9 1 0.8-0.74 0.92-1.4 1.9-1.6 1.6-0.34 3.8-0.57 5.7-0.53 8.3 0.11 16-1 24-2-3.7-0.64-6.5-0.34-9.1-0.34-3 0-6.1 0.022-9.1 0.13a43 43 0 0 0-5.1 0.49c-2.2 0.36-4.1 0.49-6.6-0.55l71-4c0.86-0.7 0.12-1.2-1.8-1.2-2.2 0.022-4.4-0.62-6.9 0.15-0.98 0.32-4.1 0.11-5.7-0.19-2.2-0.4-4.3-0.34-5.6 0.13-3.5 1.2-7.3 0.74-11 0.49-1.4-0.085-2.8-0.19-4.2-0.3-3-0.21-5.1 0.93-8.5 0.51-2.4-0.3-5.5-0.043-8.3-0.043-0.31 0-0.61-0.13-1.3-0.3 2.1-0.34 4-0.64 6.8-1.1-2.3 0.043-3.7 0.085-5.3 0.13 1.5-1 1.5-1 9.1-1.3-0.24-0.49-0.55-0.98-0.8-1.5 2.2-0.17 4.1-0.32 6-0.49 1.8-0.17 3.7-0.38 6.4-0.66-0.49 0.87-0.8 1.4-1.2 2.1 3.4-0.59 6.4-1.1 9.2-1.6-2.6 0-4.5-0.53-4.9-1.6 4.5-1.4 5.6-1.3 7.2 0.4 10 0.36 15-0.47 17-3.3-3 0.15-5.6 0.32-8.3 0.4-5.2 0.17-10 0.32-16 0.42-0.55 0.022-1.2-0.25-1.8-0.4-0.73-0.17-1.4-0.47-2.1-0.47-2-0.022-3.9 0.063-5.9 0.13-0.8 0.021-1.7 0.021-2.4 0.13-3.5 0.59-6.9 1.2-11 1.9-2.9-1.6-8.1-0.53-13-1.2 3.5-0.93 6.4-0.96 9.3-0.53 3.2 0.47 3.2 0.44 4.7-0.64 9.2-0.55 18-1.1 27-1.7 1.6-0.084 3.2 0 4.8-0.13 1.8-0.15 4.4 0 4.5-1 1.3-0.063 2.5-0.1 3.8-0.17-0.24-0.19-0.43-0.36-0.67-0.55-0.73 0.4-1.8 0.66-2.8 0.91zm3.1 26c12-0.084 32-1.4 36-2.4-5.1 0.49-10 1-15-0.13-5.9 2.3-13 1-19 0.59a30 30 0 0 0-1.5 2zm33-15c0-0.11 0-0.23-0.061-0.34-4.2-0.064-8.3-0.15-12-0.21-3.9-0.043-4.8 0.17-6.7 1.6 6.7-0.36 13-0.72 19-1.1zm-41 11c-4.1-1.2-7.3-0.55-12 0.57 4.7-0.21 8.1-0.38 12-0.57zm11-22c3.1-0.28 6.3-0.55 9.4-0.83-7.1-0.64-7.2-0.64-9.4 0.83zm23 2.6v-0.28h-5.1v0.28h5.1zm-74 17v-0.17h-5.1v0.17h5.1zm27-3.1c-0.12-0.19-0.18-0.38-0.31-0.57a64 64 0 0 0-3 0.23c-0.12 0.022 0.061 0.34 0.12 0.53l3.2-0.19zm-52 5.3c0.061 0.13 0.061 0.25 0.12 0.38 1-0.02 2-0.063 3.1-0.084-0.061-0.13-0.061-0.28-0.12-0.4-1 0.022-2 0.064-3.1 0.11zm81-18c0.31 0.11 0.55 0.23 0.86 0.34 0.67-0.26 1.4-0.51 2.1-0.76-0.18-0.064-0.37-0.15-0.61-0.21-0.73 0.21-1.5 0.42-2.3 0.64zm2.6 1.5c0.24 0.17 0.43 0.34 0.67 0.51 1-0.17 2-0.34 3.1-0.49-0.12-0.13-0.24-0.23-0.37-0.36-1.2 0.1-2.3 0.23-3.4 0.34zm36-18c-1.5 0.28-2.8 0.66-4 0.66-5.3 0.064-11 0.021-16-0.021-3.8-0.021-7.6-0.26-11-0.15-10 0.32-21 0.83-31 1.1-2.4 0.064-5-0.38-8.1-0.64 3.8-0.81 3.7-0.74 6.5-0.32 1.1 0.17 3.1 0.3 3.8 0.085 4.8-1.4 11-1.6 16-1.8 11-0.44 23-0.85 34-1.3 0.8-0.02 1.7 0 2.4 0.022 5 0.15 5.1 0.19 7 2.3zm-66 5.8c0.8-0.15 1.7-0.42 2.4-0.42 10 0.11 20-1.3 30-1.9 1.2-0.063 2.4-0.19 3.6-0.17 3.1 0.064 4.8-0.42 5.3-1.3 1.8 0 3.2 0.063 4.6-0.021 3.7-0.21 7.5-0.55 11-0.72 1.3-0.063 2.7 0.17 4 0.34 2 0.25 3.9 0.59 6.4 1-4.6 0.91-8.1 2.5-14 2.7-0.98 0.021-2.4 0.085-2.8-0.11-2.4-0.98-3.5-0.042-5.1 0.45-1.5-0.38-3-0.74-4.8-1.2-13 2-26 1.3-40 1.9-0.18-0.17-0.31-0.34-0.49-0.53zm-206-2.4c3.4-0.4 5.6-0.81 7.8-0.89 2.9-0.13 5.9-0.021 8.8 0.042 2 0.043 4.3 0.45 5.8 0.19 6.5-1.1 13-0.44 20-0.4 6.4 0.064 13 0.53 19 0.78 0.74 0.042 1.7 0.064 2.3-0.042 5.3-1 9.9 0.3 15 0.57-0.8 0.085-1.6 0.26-2.3 0.23-2.2-0.043-2.2-0.064-7.7 0.68-0.86 0.13-2.4 0.19-2.9 0.022-4.2-1.3-9.2-0.78-13-0.38-7.5 0.74-15 0.042-22-0.13-5.4-0.11-11-0.38-16-0.13-4.3 0.21-9-0.32-15-0.55zm83 9.8c-4.6 0.043-8.7 0.13-13 0.13-17 0.064-34 0.11-52 0.15-5.4 0.021-11 0.064-16 0.064-1 0-2.1-0.17-3.1-0.49 7.6-0.21 15-0.51 23-0.64 6.2-0.11 12 0.022 19-0.72 2.9-0.34 6.4-0.26 9.5-0.064 6.4 0.4 13 0.25 19 0 2.4-0.11 4.6-0.085 6.8 0.59 1.5 0.51 4.1 0.64 6.7 0.98zm126-4.4c22-1 43-2.8 66-3.4-0.31 1.7-3.5 1.8-6.5 2-7.2 0.38-14 0.7-22 1.1-5.9 0.28-12 0.42-18 0.74-5.9 0.3-12 0.53-17 0.36-0.8-0.021-1.5-0.13-2.3-0.19 0-0.23-0.061-0.4-0.12-0.6zm-79 26h7.3c-0.31-0.36-0.55-0.62-1.1-1.3 2.5 0.66 4.2 1.1 6.4 1.7-0.49 0.45-1 0.93-1.8 1.6-3.3-0.59-6.4-1.1-11-2z" fill="#E4DDD4"/>
 <path d="m185 34c-4.6-0.76-10 1-15-0.62 6.1-0.78 12-0.59 15 0.62zm-182 5.3c5.4 0.11 4.4 1.6 5.4 2.8-7.3 0.34-3.3-2-5.4-2.8zm292-20c6.5-0.57 6.5-0.57 8.1 0.55-6 0.47-6.7 0.42-8.1-0.55zm-226 20a64 64 0 0 0 2.3 0.89c0.37-0.084-0.061 0.085-0.55 0.11-4.2 0.13-8.3 0.21-13 0.085 3.8-0.38 7.6-0.74 11-1.1zm129-1.3c0.062-0.51 0.12-0.91 0.18-1.3 3.4-0.3 4.7 0.4 6.5 1.5-2.7-0.043-4.6-0.085-6.7-0.13zm-32-17c-3.3 0.78-6.4-0.021-9.7-0.47h9.5c0.062 0.15 0.062 0.3 0.12 0.47zm106-8.3c3.6-0.23 7.2-0.47 12-0.76-2.9 1.1-2.9 1.1-12 0.76zm-85 28c-2.7-0.51-4.5-0.87-6.7-1.3 3-0.42 5.6-0.89 7.8 0.13 0.31 0.17-0.61 0.66-1.1 1.1zm-118 1.6c2.3 0.28 6.2-0.59 6.8 1.1-3.4 0.42-5.9 0.36-6.8-1.1zm27 6.9c3.9-1.2 4.2-1.2 8-0.21-2.5 0.95-4.9 0.4-8 0.21zm-63-15c-2.4 0.3-4 2.2-8.1 0.42 3.1-0.17 5.6-0.3 8.1-0.42zm-26 3.6c3-1.1 5.3-1.2 8.3 0h-8.3zm1.2-8c-2.7 0.042-5.4 0.11-8.1 0.15-0.061-0.15-0.06-0.32-0.12-0.47 2.5-0.57 5.3-0.47 8-0.26 0.12 0.19 0.18 0.38 0.18 0.57zm24 6.6h7c-2.8 1.5-2.8 1.5-7 0zm99-26c4.5-1 4.5-1 5.6 0.28-1.7-0.063-3-0.15-5.6-0.28zm-82 11c2.6-0.064 5.2-0.13 7.8-0.19v0.44c-2.6-0.064-5.2-0.11-7.8-0.17 0 0 0-0.042-0.061-0.084zm217-12h6.3c-2.9 0.87-4.7 0.83-6.3 0.49v-0.49zm12 35-8 0.13c-0.061-0.084-0.061-0.19-0.12-0.28 2.6-0.13 5.2-0.23 7.8-0.36 0.12 0.17 0.18 0.34 0.24 0.51zm-157-33c1.8-0.085 3.7-0.17 6.1-0.3-2.4 0.64-2.4 0.64-6.1 0.3zm156-1.7c1.6 0.064 3.2 0.11 4.8 0.17-1.7 0.72-3.2 0.89-4.8-0.17zm-201 36h-6.5c2.6-1 4.5-0.59 6.5 0zm-19-18h6.2v0.23h-6.2c0-0.064 0-0.15 0.062-0.23zm214 15c-1.2-0.085-2.4-0.17-3.6-0.26 0.061-0.11 0.061-0.21 0.12-0.32h3.7c-0.12 0.19-0.18 0.38-0.24 0.57zm-261-7.2c2.1-0.043 4.2-0.11 6.2-0.15-2.1 0.93-4.2 0.42-6.2 0.15zm95-21h3.1c-0.062 0.15-0.062 0.28-0.12 0.42-1-0.043-2.1-0.11-3.1-0.15 0-0.085 0.061-0.19 0.061-0.28zm148 14c-0.98 0.085-2 0.17-2.9 0.25-0.12-0.11-0.18-0.21-0.31-0.32 0.92-0.11 1.8-0.23 2.7-0.34 0.12 0.13 0.31 0.28 0.49 0.4zm-85 0.51a788 788 0 0 0 5.1-0.98c-0.61 1.2-1.8 1.4-5.1 0.98zm-131 3.8c0.37-0.17 0.55-0.34 0.73-0.34 0.49 0 0.98 0.085 1.5 0.13-0.18 0.11-0.37 0.28-0.61 0.28-0.49 0.022-0.98-0.042-1.6-0.063zm136-2.5h3.5v0.13h-3.5c0.062-0.042 0-0.085 0-0.13zm109 11c0.67-0.17 1.1-0.26 1.5-0.34 0.24 0.15 0.61 0.28 0.67 0.45 0.061 0.085-0.55 0.28-0.67 0.26-0.49-0.064-0.86-0.19-1.5-0.36zm-221 1.6c0.67 0.085 1.4 0.15 2.1 0.25 0.062 0.022-0.12 0.23-0.18 0.34-0.73-0.064-1.5-0.13-2.1-0.19 0.062-0.13 0.18-0.26 0.24-0.4zm30 6.2c0.67 0.42 1.3 0.64 1.2 0.83-0.06 0.19-0.8 0.36-1.3 0.53-0.43-0.17-1.2-0.34-1.2-0.51 0-0.21 0.61-0.42 1.3-0.85zm130-15c-0.92-0.02-1.9-0.042-2.8-0.042 0-0.085-0.061-0.15-0.061-0.23 0.92-0.043 1.8-0.085 2.8-0.13 0 0.13 0.061 0.28 0.061 0.4zm-26 0.022c0.98-0.085 2-0.17 2.9-0.23 0.12 0.084 0.31 0.19 0.43 0.28-0.43 0.13-0.86 0.32-1.3 0.34-0.61 0.042-1.3-0.064-2-0.11 0-0.085-0.062-0.17-0.062-0.28zm-160-3.8c0.73-0.11 1.3-0.28 1.6-0.23 0.55 0.085 0.92 0.3 1.4 0.44-0.55 0.064-1 0.17-1.5 0.15-0.43 0-0.8-0.17-1.5-0.36zm227-5.5c0.86-0.063 1.7-0.13 2.5-0.19 0.061 0.1 0.12 0.23 0.18 0.34-0.86 0.042-1.7 0.064-2.6 0.11-0.061-0.064-0.12-0.15-0.12-0.26zm-153-14-2.4 0.32c-0.12-0.13-0.43-0.34-0.37-0.36 0.74-0.15 1.5-0.26 2.3-0.38 0.18 0.13 0.31 0.28 0.49 0.42z" fill="#E4DDD4"/>
</svg>
